<svg width="56" height="37" viewBox="0 0 56 37" fill="none" xmlns="http://www.w3.org/2000/svg">
<path d="M3.538 11.7327L2.8084 16.139C2.75904 16.4277 2.79338 16.7242 2.90745 16.9943C3.02152 17.2645 3.21065 17.4972 3.45299 17.6656C3.68702 17.8309 3.96364 17.9273 4.25082 17.9436C4.538 17.9599 4.82399 17.8956 5.07567 17.7579L8.82925 15.7126L12.581 17.7579C12.8327 17.8957 13.1189 17.9602 13.4063 17.9439C13.6936 17.9275 13.9704 17.8311 14.2046 17.6656C14.4467 17.4971 14.6357 17.2643 14.7496 16.9942C14.8635 16.724 14.8977 16.4276 14.8482 16.139L14.1196 11.7327L17.208 8.61211C17.4115 8.40613 17.5533 8.14855 17.6177 7.86788C17.6822 7.5872 17.6668 7.29438 17.5733 7.02181C17.4837 6.75385 17.321 6.51552 17.1031 6.33311C16.8852 6.15071 16.6205 6.0313 16.3383 5.98807L12.1148 5.35214L10.2259 1.38331C10.1033 1.11905 9.9064 0.895228 9.65857 0.738593C9.41074 0.581959 9.12251 0.499135 8.82831 0.500018C8.53454 0.499408 8.24678 0.582262 7.99932 0.738705C7.75187 0.895149 7.55516 1.11859 7.43263 1.38239L5.54277 5.35121L1.32023 5.98715C1.03754 6.03014 0.772397 6.14954 0.554111 6.33214C0.335825 6.51474 0.172904 6.75343 0.0833645 7.02181C-0.0100561 7.29446 -0.0252935 7.58734 0.039339 7.86801C0.103971 8.14869 0.245953 8.40622 0.449567 8.61211L3.538 11.7327ZM5.99585 7.15103C6.24747 7.11253 6.48563 7.0134 6.68929 6.86241C6.89295 6.71142 7.05584 6.5132 7.16359 6.28527L8.82831 2.78625L10.494 6.28527C10.6016 6.51309 10.7644 6.71123 10.9679 6.86221C11.1714 7.0132 11.4093 7.11238 11.6608 7.15103L15.4723 7.72512L12.68 10.5467C12.5074 10.7223 12.3789 10.9354 12.3046 11.1689C12.2303 11.4024 12.2123 11.6499 12.2521 11.8915L12.9061 15.8206L9.56539 14.0032C9.33908 13.8789 9.08444 13.8137 8.82551 13.8137C8.56659 13.8137 8.31194 13.8789 8.08563 14.0032L4.75431 15.8215L5.40825 11.8942C5.44846 11.6524 5.43079 11.4047 5.35665 11.1708C5.28252 10.937 5.15397 10.7235 4.98132 10.5476L2.18529 7.72512L5.99585 7.15103ZM31.4843 17.7542C31.7362 17.8922 32.0225 17.9568 32.3101 17.9405C32.5976 17.9241 32.8746 17.8276 33.1088 17.6619C33.3505 17.4933 33.539 17.2605 33.6525 16.9906C33.7661 16.7206 33.8001 16.4245 33.7506 16.1363L33.022 11.7299L36.1113 8.60934C36.3146 8.40326 36.4562 8.14564 36.5205 7.86497C36.5849 7.5843 36.5693 7.29153 36.4757 7.01904C36.3861 6.75108 36.2234 6.51275 36.0055 6.33034C35.7876 6.14794 35.5229 6.02853 35.2407 5.9853L31.0181 5.34937L29.1283 1.38054C29.0055 1.11709 28.8086 0.894032 28.5612 0.737929C28.3138 0.581826 28.0261 0.499246 27.7326 0.500018C27.4381 0.499481 27.1496 0.582298 26.9013 0.738671C26.653 0.895044 26.4552 1.11843 26.3313 1.38239L24.4424 5.35121L20.2189 5.98715C19.9365 6.03046 19.6718 6.15 19.4539 6.33258C19.2359 6.51516 19.0733 6.75368 18.9839 7.02181C18.8905 7.29425 18.8752 7.58689 18.9397 7.86738C19.0042 8.14787 19.1459 8.40529 19.3492 8.61119L22.4376 11.7318L21.7089 16.1381C21.6595 16.4266 21.6937 16.7231 21.8076 16.9933C21.9215 17.2634 22.1104 17.4962 22.3526 17.6647C22.5867 17.8301 22.8635 17.9266 23.1509 17.943C23.4382 17.9593 23.7244 17.8948 23.9762 17.757L27.7288 15.7117L31.4843 17.7542ZM26.9918 14.0032L23.6576 15.8215L24.3069 11.8942C24.3471 11.6524 24.3294 11.4047 24.2553 11.1708C24.1812 10.937 24.0526 10.7235 23.88 10.5476L21.0877 7.72605L24.9001 7.15195C25.1514 7.11317 25.3892 7.01391 25.5925 6.86294C25.7958 6.71196 25.9584 6.51389 26.066 6.28619L27.7307 2.78717L29.3982 6.28896C29.5062 6.51615 29.6689 6.71366 29.8722 6.86413C30.0755 7.01461 30.3131 7.11345 30.5641 7.15195L34.3747 7.72605L31.5805 10.5504C31.4087 10.7259 31.2807 10.9386 31.2068 11.1716C31.1328 11.4046 31.1149 11.6514 31.1545 11.8924L31.8084 15.8215L28.4706 14.0032C28.2444 13.8791 27.9899 13.814 27.7312 13.814C27.4724 13.814 27.218 13.8791 26.9918 14.0032ZM47.1656 0.500018C46.8718 0.499408 46.584 0.582262 46.3366 0.738705C46.0891 0.895149 45.8924 1.11859 45.7699 1.38239L43.88 5.35121L39.6575 5.98715C39.3751 6.03022 39.1102 6.14955 38.8921 6.33197C38.674 6.51439 38.5112 6.7528 38.4216 7.02089C38.3282 7.29354 38.3129 7.58641 38.3775 7.86709C38.4422 8.14777 38.5842 8.4053 38.7878 8.61119L41.8762 11.7318L41.1466 16.1381C41.0971 16.4275 41.1317 16.7249 41.2465 16.9956C41.3613 17.2663 41.5514 17.4993 41.7949 17.6675C42.029 17.8327 42.3056 17.9291 42.5928 17.9454C42.8799 17.9618 43.1659 17.8974 43.4176 17.7598L47.1703 15.7145L50.9229 17.7598C51.1747 17.8976 51.4609 17.9621 51.7482 17.9457C52.0356 17.9294 52.3124 17.8329 52.5465 17.6675C52.7887 17.499 52.9776 17.2662 53.0915 16.996C53.2054 16.7259 53.2396 16.4294 53.1902 16.1409L52.4615 11.7346L55.5509 8.61395C55.7542 8.40788 55.8958 8.15025 55.9601 7.86958C56.0244 7.58892 56.0089 7.29614 55.9152 7.02366C55.8257 6.75569 55.663 6.51737 55.445 6.33496C55.2271 6.15255 54.9625 6.03315 54.6802 5.98992L50.4567 5.35398L48.5678 1.38516C48.4453 1.11998 48.2479 0.895384 47.9993 0.738366C47.7507 0.581349 47.4606 0.498585 47.1656 0.500018ZM48.8322 6.28527C48.9398 6.51309 49.1026 6.71123 49.3061 6.86221C49.5096 7.0132 49.7475 7.11238 49.999 7.15103L53.8105 7.72512L51.0182 10.5467C50.8456 10.7223 50.7171 10.9354 50.6428 11.1689C50.5685 11.4024 50.5505 11.6499 50.5903 11.8915L51.2443 15.8206L47.9111 14.0042C47.6847 13.8797 47.4298 13.8144 47.1707 13.8144C46.9116 13.8144 46.6568 13.8797 46.4304 14.0042L43.0925 15.8215L43.7465 11.8905C43.7859 11.6492 43.7678 11.4022 43.6935 11.169C43.6193 10.9358 43.4909 10.7231 43.3186 10.5476L40.5254 7.72605L44.3369 7.15195C44.5885 7.11345 44.8266 7.01433 45.0303 6.86333C45.234 6.71234 45.3969 6.51413 45.5046 6.28619L47.1693 2.78717L48.8322 6.28527ZM26.7638 25.5756C26.6745 25.3072 26.5118 25.0684 26.2937 24.8856C26.0755 24.7028 25.8105 24.5832 25.5279 24.54L21.3044 23.9041L19.4155 19.9353C19.2931 19.6713 19.0964 19.4476 18.849 19.291C18.6015 19.1344 18.3137 19.0514 18.0198 19.052C17.725 19.0504 17.4359 19.1329 17.1874 19.2895C16.9388 19.4462 16.7413 19.6704 16.6185 19.9353L14.7287 23.9041L10.5052 24.54C10.2226 24.5832 9.95753 24.7028 9.73941 24.8856C9.52129 25.0684 9.35858 25.3072 9.26925 25.5756C9.17632 25.8481 9.16143 26.1406 9.22622 26.4209C9.29101 26.7013 9.43296 26.9584 9.63639 27.164L12.7248 30.2847L11.9943 34.6919C11.945 34.9803 11.9793 35.2766 12.0932 35.5465C12.2071 35.8165 12.3959 36.0491 12.6379 36.2176C12.8721 36.383 13.1489 36.4795 13.4362 36.4958C13.7236 36.5122 14.0098 36.4477 14.2616 36.3099L18.0142 34.2646L21.7668 36.3099C22.0187 36.4479 22.3051 36.5124 22.5926 36.4961C22.8802 36.4798 23.1572 36.3832 23.3914 36.2176C23.6332 36.049 23.8219 35.8163 23.9356 35.5464C24.0493 35.2764 24.0835 34.9802 24.0341 34.6919L23.3055 30.2847L26.3929 27.164C26.597 26.9588 26.7397 26.7018 26.8051 26.4215C26.8706 26.1412 26.8563 25.8484 26.7638 25.5756ZM21.8696 29.0986C21.6971 29.2743 21.5685 29.4874 21.4942 29.7209C21.4199 29.9544 21.402 30.2018 21.4417 30.4434L22.0957 34.3725L18.7578 32.5552C18.5315 32.4309 18.2769 32.3657 18.0179 32.3657C17.759 32.3657 17.5044 32.4309 17.2781 32.5552L13.9439 34.3735L14.5979 30.4462C14.6381 30.2044 14.6204 29.9566 14.5463 29.7228C14.4721 29.4889 14.3436 29.2755 14.1709 29.0995L11.3777 26.278L15.1901 25.7039C15.4417 25.6659 15.6798 25.5669 15.8833 25.4159C16.0867 25.2648 16.2491 25.0663 16.356 24.8381L18.0217 21.3391L19.6873 24.8372C19.7943 25.0658 19.9569 25.2646 20.1607 25.4159C20.3645 25.5671 20.6031 25.6661 20.8551 25.7039L24.6656 26.278L21.8696 29.0986ZM46.1996 25.5765C46.1104 25.3078 45.9476 25.0687 45.7293 24.8858C45.511 24.7028 45.2457 24.5832 44.9628 24.54L40.7402 23.9041L38.8504 19.9353C38.7278 19.6713 38.5309 19.4478 38.2833 19.2913C38.0356 19.1349 37.7477 19.0521 37.4538 19.0529C37.1599 19.0524 36.872 19.1353 36.6246 19.292C36.3771 19.4486 36.1805 19.6722 36.0581 19.9362L34.1691 23.905L29.9438 24.5409C29.6615 24.5845 29.3969 24.7042 29.1791 24.887C28.9614 25.0697 28.7989 25.3083 28.7097 25.5765C28.6168 25.849 28.6019 26.1416 28.6667 26.4219C28.7315 26.7022 28.8734 26.9594 29.0769 27.165L32.1597 30.2856L31.432 34.691C31.3825 34.9801 31.4171 35.2772 31.5317 35.5478C31.6463 35.8183 31.8362 36.0512 32.0794 36.2194C32.3136 36.385 32.5906 36.4816 32.8781 36.498C33.1657 36.5143 33.452 36.4497 33.7039 36.3117L37.4566 34.2664L41.2101 36.3117C41.4619 36.4495 41.7481 36.514 42.0355 36.4977C42.3228 36.4813 42.5996 36.3849 42.8338 36.2194C43.0758 36.051 43.2646 35.8183 43.3785 35.5484C43.4924 35.2784 43.5267 34.9821 43.4774 34.6937L42.7478 30.2865L45.8306 27.1668C46.0347 26.9612 46.1772 26.7038 46.2424 26.4231C46.3075 26.1424 46.2927 25.8494 46.1996 25.5765ZM41.3045 29.0986C41.1319 29.2743 41.0034 29.4874 40.9291 29.7209C40.8548 29.9544 40.8368 30.2018 40.8766 30.4434L41.5306 34.3725L38.1964 32.5561C37.97 32.432 37.7155 32.3666 37.4566 32.366C37.1978 32.3651 36.9431 32.4286 36.7157 32.5506L33.3798 34.3735L34.0337 30.4425C34.0732 30.2012 34.055 29.9541 33.9808 29.7209C33.9065 29.4878 33.7781 29.275 33.6058 29.0995L30.8135 26.278L34.6241 25.7039C34.8757 25.6654 35.1139 25.5663 35.3175 25.4153C35.5212 25.2643 35.6841 25.0661 35.7918 24.8381L37.4575 21.3391L39.1231 24.8372C39.23 25.0657 39.3925 25.2644 39.5961 25.4157C39.7997 25.5669 40.0381 25.6659 40.29 25.7039L44.1005 26.278L41.3045 29.0986Z" fill="white"/>
</svg>
