<svg width="40" height="40" viewBox="0 0 40 40" fill="none" xmlns="http://www.w3.org/2000/svg">
<mask id="path-1-outside-1_16147_8968" maskUnits="userSpaceOnUse" x="1.13232" y="0.25" width="37" height="39" fill="black">
<rect fill="white" x="1.13232" y="0.25" width="37" height="39"/>
<path fill-rule="evenodd" clip-rule="evenodd" d="M25.2162 5.63188C25.2162 4.88937 25.5056 4.19125 26.0306 3.66625C27.1137 2.58313 28.8781 2.5825 29.9618 3.66625C31.0456 4.75 31.0456 6.51375 29.9618 7.5975C29.4368 8.1225 28.7387 8.41187 27.9962 8.41187C27.2537 8.41187 26.5556 8.1225 26.0306 7.5975C25.5056 7.0725 25.2162 6.37437 25.2162 5.63188ZM29.5257 5.63188C29.5257 5.22619 29.3647 4.83709 29.0781 4.55C28.7793 4.25188 28.3881 4.1025 27.9962 4.1025C27.6043 4.1025 27.2125 4.25188 26.9143 4.55C26.6256 4.83875 26.4662 5.22312 26.4662 5.63188C26.4662 6.04062 26.6256 6.425 26.9143 6.71375C27.4924 7.29187 28.5 7.29187 29.0781 6.71375C29.3647 6.42666 29.5257 6.03756 29.5257 5.63188Z"/>
<path fill-rule="evenodd" clip-rule="evenodd" d="M36.1514 15.2919C35.8141 15.4313 35.4525 15.5027 35.0874 15.5019C34.7224 15.5027 34.3608 15.4313 34.0235 15.2919C33.6862 15.1525 33.3797 14.9477 33.1218 14.6894C32.6013 14.1676 32.309 13.4607 32.309 12.7238C32.309 11.9868 32.6013 11.2799 33.1218 10.7581C33.6468 10.2331 34.3449 9.94375 35.0874 9.94375C35.8299 9.94375 36.5281 10.2331 37.0531 10.7581C37.5781 11.2831 37.8675 11.9812 37.8675 12.7238C37.8675 13.4662 37.5781 14.1644 37.0531 14.6894C36.7952 14.9477 36.4887 15.1525 36.1514 15.2919ZM35.0874 11.1938C34.6787 11.1938 34.2943 11.3531 34.0056 11.6419C33.7189 11.929 33.558 12.3181 33.558 12.7238C33.558 13.1294 33.7189 13.5185 34.0056 13.8056C34.2927 14.0923 34.6818 14.2532 35.0874 14.2532C35.4931 14.2532 35.8822 14.0923 36.1693 13.8056C36.4581 13.5169 36.6175 13.1325 36.6175 12.7238C36.6175 12.315 36.4581 11.9306 36.1693 11.6419C35.8806 11.3531 35.4962 11.1938 35.0874 11.1938Z"/>
<path d="M36.9356 4.66687L27.0312 14.5712C26.9732 14.6293 26.9043 14.6753 26.8285 14.7067C26.7526 14.7381 26.6714 14.7543 26.5893 14.7543C26.5073 14.7543 26.426 14.7381 26.3502 14.7067C26.2744 14.6753 26.2055 14.6293 26.1474 14.5712C26.0894 14.5132 26.0434 14.4443 26.012 14.3685C25.9806 14.2927 25.9644 14.2114 25.9644 14.1294C25.9644 14.0473 25.9806 13.9661 26.012 13.8902C26.0434 13.8144 26.0894 13.7455 26.1474 13.6875L36.0518 3.78312C36.1099 3.7251 36.1787 3.67907 36.2546 3.64766C36.3304 3.61626 36.4116 3.60009 36.4937 3.60009C36.5758 3.60009 36.657 3.61626 36.7328 3.64766C36.8087 3.67907 36.8775 3.7251 36.9356 3.78312C36.9936 3.84115 37.0396 3.91004 37.071 3.98586C37.1024 4.06168 37.1186 4.14294 37.1186 4.225C37.1186 4.30706 37.1024 4.38832 37.071 4.46414C37.0396 4.53996 36.9936 4.60885 36.9356 4.66687Z"/>
<path d="M20.1443 7.20187V5.73125C20.1443 5.56549 20.2102 5.40652 20.3274 5.28931C20.4446 5.1721 20.6036 5.10625 20.7693 5.10625C20.9351 5.10625 21.0941 5.1721 21.2113 5.28931C21.3285 5.40652 21.3943 5.56549 21.3943 5.73125V7.20187C21.3943 7.36764 21.3285 7.52661 21.2113 7.64382C21.0941 7.76103 20.9351 7.82687 20.7693 7.82687C20.6036 7.82687 20.4446 7.76103 20.3274 7.64382C20.2102 7.52661 20.1443 7.36764 20.1443 7.20187Z"/>
<path d="M2.31682 27.1144C2.13745 26.9356 2.08307 26.6669 2.17932 26.4325C2.27557 26.1987 2.50432 26.045 2.75745 26.045H7.20432V5.73125C7.20432 5.56549 7.27017 5.40652 7.38738 5.28931C7.50459 5.1721 7.66356 5.10625 7.82932 5.10625C7.99508 5.10625 8.15406 5.1721 8.27127 5.28931C8.38848 5.40652 8.45432 5.56549 8.45432 5.73125V26.67C8.45432 26.8358 8.38848 26.9947 8.27127 27.1119C8.15406 27.2292 7.99508 27.295 7.82932 27.295H4.27432L14.2993 37.2444L24.3243 27.295H20.7693C20.6036 27.295 20.4446 27.2292 20.3274 27.1119C20.2102 26.9947 20.1443 26.8358 20.1443 26.67V10.6362C20.1443 10.4705 20.2102 10.3115 20.3274 10.1943C20.4446 10.0771 20.6036 10.0112 20.7693 10.0112C20.9351 10.0112 21.0941 10.0771 21.2113 10.1943C21.3285 10.3115 21.3943 10.4705 21.3943 10.6362V26.0456H25.8412C25.9652 26.0452 26.0865 26.0818 26.1897 26.1506C26.2929 26.2194 26.3732 26.3174 26.4205 26.432C26.4677 26.5467 26.4798 26.6728 26.4551 26.7943C26.4304 26.9158 26.3701 27.0273 26.2818 27.1144L14.7399 38.5694C14.6228 38.6858 14.4644 38.7511 14.2993 38.7511C14.1342 38.7511 13.9758 38.6858 13.8587 38.5694L2.31682 27.1144Z"/>
<path d="M3.50745 10.7094V1.875C3.50745 1.70924 3.5733 1.55027 3.69051 1.43306C3.80772 1.31585 3.96669 1.25 4.13245 1.25C4.29821 1.25 4.45718 1.31585 4.57439 1.43306C4.6916 1.55027 4.75745 1.70924 4.75745 1.875V10.7094C4.75745 10.8751 4.6916 11.0341 4.57439 11.1513C4.45718 11.2685 4.29821 11.3344 4.13245 11.3344C3.96669 11.3344 3.80772 11.2685 3.69051 11.1513C3.5733 11.0341 3.50745 10.8751 3.50745 10.7094Z"/>
<path d="M16.1986 17.51V8.675C16.1986 8.50924 16.2645 8.35027 16.3817 8.23306C16.4989 8.11585 16.6579 8.05 16.8236 8.05C16.9894 8.05 17.1484 8.11585 17.2656 8.23306C17.3828 8.35027 17.4486 8.50924 17.4486 8.675V17.51C17.4486 17.6758 17.3828 17.8347 17.2656 17.9519C17.1484 18.0692 16.9894 18.135 16.8236 18.135C16.6579 18.135 16.4989 18.0692 16.3817 17.9519C16.2645 17.8347 16.1986 17.6758 16.1986 17.51Z"/>
</mask>
<path fill-rule="evenodd" clip-rule="evenodd" d="M25.2162 5.63188C25.2162 4.88937 25.5056 4.19125 26.0306 3.66625C27.1137 2.58313 28.8781 2.5825 29.9618 3.66625C31.0456 4.75 31.0456 6.51375 29.9618 7.5975C29.4368 8.1225 28.7387 8.41187 27.9962 8.41187C27.2537 8.41187 26.5556 8.1225 26.0306 7.5975C25.5056 7.0725 25.2162 6.37437 25.2162 5.63188ZM29.5257 5.63188C29.5257 5.22619 29.3647 4.83709 29.0781 4.55C28.7793 4.25188 28.3881 4.1025 27.9962 4.1025C27.6043 4.1025 27.2125 4.25188 26.9143 4.55C26.6256 4.83875 26.4662 5.22312 26.4662 5.63188C26.4662 6.04062 26.6256 6.425 26.9143 6.71375C27.4924 7.29187 28.5 7.29187 29.0781 6.71375C29.3647 6.42666 29.5257 6.03756 29.5257 5.63188Z" fill="white"/>
<path fill-rule="evenodd" clip-rule="evenodd" d="M36.1514 15.2919C35.8141 15.4313 35.4525 15.5027 35.0874 15.5019C34.7224 15.5027 34.3608 15.4313 34.0235 15.2919C33.6862 15.1525 33.3797 14.9477 33.1218 14.6894C32.6013 14.1676 32.309 13.4607 32.309 12.7238C32.309 11.9868 32.6013 11.2799 33.1218 10.7581C33.6468 10.2331 34.3449 9.94375 35.0874 9.94375C35.8299 9.94375 36.5281 10.2331 37.0531 10.7581C37.5781 11.2831 37.8675 11.9812 37.8675 12.7238C37.8675 13.4662 37.5781 14.1644 37.0531 14.6894C36.7952 14.9477 36.4887 15.1525 36.1514 15.2919ZM35.0874 11.1938C34.6787 11.1938 34.2943 11.3531 34.0056 11.6419C33.7189 11.929 33.558 12.3181 33.558 12.7238C33.558 13.1294 33.7189 13.5185 34.0056 13.8056C34.2927 14.0923 34.6818 14.2532 35.0874 14.2532C35.4931 14.2532 35.8822 14.0923 36.1693 13.8056C36.4581 13.5169 36.6175 13.1325 36.6175 12.7238C36.6175 12.315 36.4581 11.9306 36.1693 11.6419C35.8806 11.3531 35.4962 11.1938 35.0874 11.1938Z" fill="white"/>
<path d="M36.9356 4.66687L27.0312 14.5712C26.9732 14.6293 26.9043 14.6753 26.8285 14.7067C26.7526 14.7381 26.6714 14.7543 26.5893 14.7543C26.5073 14.7543 26.426 14.7381 26.3502 14.7067C26.2744 14.6753 26.2055 14.6293 26.1474 14.5712C26.0894 14.5132 26.0434 14.4443 26.012 14.3685C25.9806 14.2927 25.9644 14.2114 25.9644 14.1294C25.9644 14.0473 25.9806 13.9661 26.012 13.8902C26.0434 13.8144 26.0894 13.7455 26.1474 13.6875L36.0518 3.78312C36.1099 3.7251 36.1787 3.67907 36.2546 3.64766C36.3304 3.61626 36.4116 3.60009 36.4937 3.60009C36.5758 3.60009 36.657 3.61626 36.7328 3.64766C36.8087 3.67907 36.8775 3.7251 36.9356 3.78312C36.9936 3.84115 37.0396 3.91004 37.071 3.98586C37.1024 4.06168 37.1186 4.14294 37.1186 4.225C37.1186 4.30706 37.1024 4.38832 37.071 4.46414C37.0396 4.53996 36.9936 4.60885 36.9356 4.66687Z" fill="white"/>
<path d="M20.1443 7.20187V5.73125C20.1443 5.56549 20.2102 5.40652 20.3274 5.28931C20.4446 5.1721 20.6036 5.10625 20.7693 5.10625C20.9351 5.10625 21.0941 5.1721 21.2113 5.28931C21.3285 5.40652 21.3943 5.56549 21.3943 5.73125V7.20187C21.3943 7.36764 21.3285 7.52661 21.2113 7.64382C21.0941 7.76103 20.9351 7.82687 20.7693 7.82687C20.6036 7.82687 20.4446 7.76103 20.3274 7.64382C20.2102 7.52661 20.1443 7.36764 20.1443 7.20187Z" fill="white"/>
<path d="M2.31682 27.1144C2.13745 26.9356 2.08307 26.6669 2.17932 26.4325C2.27557 26.1987 2.50432 26.045 2.75745 26.045H7.20432V5.73125C7.20432 5.56549 7.27017 5.40652 7.38738 5.28931C7.50459 5.1721 7.66356 5.10625 7.82932 5.10625C7.99508 5.10625 8.15406 5.1721 8.27127 5.28931C8.38848 5.40652 8.45432 5.56549 8.45432 5.73125V26.67C8.45432 26.8358 8.38848 26.9947 8.27127 27.1119C8.15406 27.2292 7.99508 27.295 7.82932 27.295H4.27432L14.2993 37.2444L24.3243 27.295H20.7693C20.6036 27.295 20.4446 27.2292 20.3274 27.1119C20.2102 26.9947 20.1443 26.8358 20.1443 26.67V10.6362C20.1443 10.4705 20.2102 10.3115 20.3274 10.1943C20.4446 10.0771 20.6036 10.0112 20.7693 10.0112C20.9351 10.0112 21.0941 10.0771 21.2113 10.1943C21.3285 10.3115 21.3943 10.4705 21.3943 10.6362V26.0456H25.8412C25.9652 26.0452 26.0865 26.0818 26.1897 26.1506C26.2929 26.2194 26.3732 26.3174 26.4205 26.432C26.4677 26.5467 26.4798 26.6728 26.4551 26.7943C26.4304 26.9158 26.3701 27.0273 26.2818 27.1144L14.7399 38.5694C14.6228 38.6858 14.4644 38.7511 14.2993 38.7511C14.1342 38.7511 13.9758 38.6858 13.8587 38.5694L2.31682 27.1144Z" fill="white"/>
<path d="M3.50745 10.7094V1.875C3.50745 1.70924 3.5733 1.55027 3.69051 1.43306C3.80772 1.31585 3.96669 1.25 4.13245 1.25C4.29821 1.25 4.45718 1.31585 4.57439 1.43306C4.6916 1.55027 4.75745 1.70924 4.75745 1.875V10.7094C4.75745 10.8751 4.6916 11.0341 4.57439 11.1513C4.45718 11.2685 4.29821 11.3344 4.13245 11.3344C3.96669 11.3344 3.80772 11.2685 3.69051 11.1513C3.5733 11.0341 3.50745 10.8751 3.50745 10.7094Z" fill="white"/>
<path d="M16.1986 17.51V8.675C16.1986 8.50924 16.2645 8.35027 16.3817 8.23306C16.4989 8.11585 16.6579 8.05 16.8236 8.05C16.9894 8.05 17.1484 8.11585 17.2656 8.23306C17.3828 8.35027 17.4486 8.50924 17.4486 8.675V17.51C17.4486 17.6758 17.3828 17.8347 17.2656 17.9519C17.1484 18.0692 16.9894 18.135 16.8236 18.135C16.6579 18.135 16.4989 18.0692 16.3817 17.9519C16.2645 17.8347 16.1986 17.6758 16.1986 17.51Z" fill="white"/>
<path fill-rule="evenodd" clip-rule="evenodd" d="M25.2162 5.63188C25.2162 4.88937 25.5056 4.19125 26.0306 3.66625C27.1137 2.58313 28.8781 2.5825 29.9618 3.66625C31.0456 4.75 31.0456 6.51375 29.9618 7.5975C29.4368 8.1225 28.7387 8.41187 27.9962 8.41187C27.2537 8.41187 26.5556 8.1225 26.0306 7.5975C25.5056 7.0725 25.2162 6.37437 25.2162 5.63188ZM29.5257 5.63188C29.5257 5.22619 29.3647 4.83709 29.0781 4.55C28.7793 4.25188 28.3881 4.1025 27.9962 4.1025C27.6043 4.1025 27.2125 4.25188 26.9143 4.55C26.6256 4.83875 26.4662 5.22312 26.4662 5.63188C26.4662 6.04062 26.6256 6.425 26.9143 6.71375C27.4924 7.29187 28.5 7.29187 29.0781 6.71375C29.3647 6.42666 29.5257 6.03756 29.5257 5.63188Z" stroke="white" stroke-width="0.4" mask="url(#path-1-outside-1_16147_8968)"/>
<path fill-rule="evenodd" clip-rule="evenodd" d="M36.1514 15.2919C35.8141 15.4313 35.4525 15.5027 35.0874 15.5019C34.7224 15.5027 34.3608 15.4313 34.0235 15.2919C33.6862 15.1525 33.3797 14.9477 33.1218 14.6894C32.6013 14.1676 32.309 13.4607 32.309 12.7238C32.309 11.9868 32.6013 11.2799 33.1218 10.7581C33.6468 10.2331 34.3449 9.94375 35.0874 9.94375C35.8299 9.94375 36.5281 10.2331 37.0531 10.7581C37.5781 11.2831 37.8675 11.9812 37.8675 12.7238C37.8675 13.4662 37.5781 14.1644 37.0531 14.6894C36.7952 14.9477 36.4887 15.1525 36.1514 15.2919ZM35.0874 11.1938C34.6787 11.1938 34.2943 11.3531 34.0056 11.6419C33.7189 11.929 33.558 12.3181 33.558 12.7238C33.558 13.1294 33.7189 13.5185 34.0056 13.8056C34.2927 14.0923 34.6818 14.2532 35.0874 14.2532C35.4931 14.2532 35.8822 14.0923 36.1693 13.8056C36.4581 13.5169 36.6175 13.1325 36.6175 12.7238C36.6175 12.315 36.4581 11.9306 36.1693 11.6419C35.8806 11.3531 35.4962 11.1938 35.0874 11.1938Z" stroke="white" stroke-width="0.4" mask="url(#path-1-outside-1_16147_8968)"/>
<path d="M36.9356 4.66687L27.0312 14.5712C26.9732 14.6293 26.9043 14.6753 26.8285 14.7067C26.7526 14.7381 26.6714 14.7543 26.5893 14.7543C26.5073 14.7543 26.426 14.7381 26.3502 14.7067C26.2744 14.6753 26.2055 14.6293 26.1474 14.5712C26.0894 14.5132 26.0434 14.4443 26.012 14.3685C25.9806 14.2927 25.9644 14.2114 25.9644 14.1294C25.9644 14.0473 25.9806 13.9661 26.012 13.8902C26.0434 13.8144 26.0894 13.7455 26.1474 13.6875L36.0518 3.78312C36.1099 3.7251 36.1787 3.67907 36.2546 3.64766C36.3304 3.61626 36.4116 3.60009 36.4937 3.60009C36.5758 3.60009 36.657 3.61626 36.7328 3.64766C36.8087 3.67907 36.8775 3.7251 36.9356 3.78312C36.9936 3.84115 37.0396 3.91004 37.071 3.98586C37.1024 4.06168 37.1186 4.14294 37.1186 4.225C37.1186 4.30706 37.1024 4.38832 37.071 4.46414C37.0396 4.53996 36.9936 4.60885 36.9356 4.66687Z" stroke="white" stroke-width="0.4" mask="url(#path-1-outside-1_16147_8968)"/>
<path d="M20.1443 7.20187V5.73125C20.1443 5.56549 20.2102 5.40652 20.3274 5.28931C20.4446 5.1721 20.6036 5.10625 20.7693 5.10625C20.9351 5.10625 21.0941 5.1721 21.2113 5.28931C21.3285 5.40652 21.3943 5.56549 21.3943 5.73125V7.20187C21.3943 7.36764 21.3285 7.52661 21.2113 7.64382C21.0941 7.76103 20.9351 7.82687 20.7693 7.82687C20.6036 7.82687 20.4446 7.76103 20.3274 7.64382C20.2102 7.52661 20.1443 7.36764 20.1443 7.20187Z" stroke="white" stroke-width="0.4" mask="url(#path-1-outside-1_16147_8968)"/>
<path d="M2.31682 27.1144C2.13745 26.9356 2.08307 26.6669 2.17932 26.4325C2.27557 26.1987 2.50432 26.045 2.75745 26.045H7.20432V5.73125C7.20432 5.56549 7.27017 5.40652 7.38738 5.28931C7.50459 5.1721 7.66356 5.10625 7.82932 5.10625C7.99508 5.10625 8.15406 5.1721 8.27127 5.28931C8.38848 5.40652 8.45432 5.56549 8.45432 5.73125V26.67C8.45432 26.8358 8.38848 26.9947 8.27127 27.1119C8.15406 27.2292 7.99508 27.295 7.82932 27.295H4.27432L14.2993 37.2444L24.3243 27.295H20.7693C20.6036 27.295 20.4446 27.2292 20.3274 27.1119C20.2102 26.9947 20.1443 26.8358 20.1443 26.67V10.6362C20.1443 10.4705 20.2102 10.3115 20.3274 10.1943C20.4446 10.0771 20.6036 10.0112 20.7693 10.0112C20.9351 10.0112 21.0941 10.0771 21.2113 10.1943C21.3285 10.3115 21.3943 10.4705 21.3943 10.6362V26.0456H25.8412C25.9652 26.0452 26.0865 26.0818 26.1897 26.1506C26.2929 26.2194 26.3732 26.3174 26.4205 26.432C26.4677 26.5467 26.4798 26.6728 26.4551 26.7943C26.4304 26.9158 26.3701 27.0273 26.2818 27.1144L14.7399 38.5694C14.6228 38.6858 14.4644 38.7511 14.2993 38.7511C14.1342 38.7511 13.9758 38.6858 13.8587 38.5694L2.31682 27.1144Z" stroke="white" stroke-width="0.4" mask="url(#path-1-outside-1_16147_8968)"/>
<path d="M3.50745 10.7094V1.875C3.50745 1.70924 3.5733 1.55027 3.69051 1.43306C3.80772 1.31585 3.96669 1.25 4.13245 1.25C4.29821 1.25 4.45718 1.31585 4.57439 1.43306C4.6916 1.55027 4.75745 1.70924 4.75745 1.875V10.7094C4.75745 10.8751 4.6916 11.0341 4.57439 11.1513C4.45718 11.2685 4.29821 11.3344 4.13245 11.3344C3.96669 11.3344 3.80772 11.2685 3.69051 11.1513C3.5733 11.0341 3.50745 10.8751 3.50745 10.7094Z" stroke="white" stroke-width="0.4" mask="url(#path-1-outside-1_16147_8968)"/>
<path d="M16.1986 17.51V8.675C16.1986 8.50924 16.2645 8.35027 16.3817 8.23306C16.4989 8.11585 16.6579 8.05 16.8236 8.05C16.9894 8.05 17.1484 8.11585 17.2656 8.23306C17.3828 8.35027 17.4486 8.50924 17.4486 8.675V17.51C17.4486 17.6758 17.3828 17.8347 17.2656 17.9519C17.1484 18.0692 16.9894 18.135 16.8236 18.135C16.6579 18.135 16.4989 18.0692 16.3817 17.9519C16.2645 17.8347 16.1986 17.6758 16.1986 17.51Z" stroke="white" stroke-width="0.4" mask="url(#path-1-outside-1_16147_8968)"/>
</svg>
