<svg width="28" height="28" viewBox="0 0 28 28" fill="none" xmlns="http://www.w3.org/2000/svg">
<path d="M13.9333 6.5332C13.6858 6.5332 13.4484 6.63154 13.2734 6.80657C13.0983 6.9816 13 7.219 13 7.46654V16.7999C13 17.0474 13.0983 17.2848 13.2734 17.4598C13.4484 17.6349 13.6858 17.7332 13.9333 17.7332C14.1809 17.7332 14.4183 17.6349 14.5933 17.4598C14.7683 17.2848 14.8667 17.0474 14.8667 16.7999V7.46654C14.8667 7.219 14.7683 6.9816 14.5933 6.80657C14.4183 6.63154 14.1809 6.5332 13.9333 6.5332Z" fill="url(#paint0_linear_16266_310)"/>
<path d="M14.8667 20.5329C14.8667 21.0484 14.4488 21.4663 13.9333 21.4663C13.4179 21.4663 13 21.0484 13 20.5329C13 20.0175 13.4179 19.5996 13.9333 19.5996C14.4488 19.5996 14.8667 20.0175 14.8667 20.5329Z" fill="url(#paint1_linear_16266_310)"/>
<path fill-rule="evenodd" clip-rule="evenodd" d="M14 0C11.2311 0 8.52431 0.821086 6.22202 2.35943C3.91973 3.89777 2.12532 6.08427 1.06569 8.64243C0.00606608 11.2006 -0.271181 14.0155 0.269012 16.7313C0.809205 19.447 2.14258 21.9416 4.10051 23.8995C6.05845 25.8574 8.55301 27.1908 11.2687 27.731C13.9845 28.2712 16.7994 27.9939 19.3576 26.9343C21.9157 25.8747 24.1022 24.0803 25.6406 21.778C27.1789 19.4757 28 16.7689 28 14C27.9958 10.2883 26.5195 6.72974 23.8949 4.10514C21.2703 1.48054 17.7117 0.00419951 14 0ZM14 26.1333C11.6003 26.1333 9.2544 25.4217 7.25909 24.0885C5.26377 22.7553 3.70861 20.8603 2.79027 18.6432C1.87192 16.4261 1.63164 13.9865 2.09981 11.6329C2.56798 9.27927 3.72357 7.11732 5.42044 5.42044C7.11732 3.72356 9.27927 2.56797 11.6329 2.09981C13.9865 1.63164 16.4262 1.87192 18.6432 2.79026C20.8603 3.70861 22.7553 5.26376 24.0885 7.25908C25.4217 9.2544 26.1333 11.6003 26.1333 14C26.1296 17.2168 24.8501 20.3008 22.5755 22.5755C20.3008 24.8501 17.2168 26.1296 14 26.1333Z" fill="url(#paint2_linear_16266_310)"/>
<defs>
<linearGradient id="paint0_linear_16266_310" x1="31.281" y1="30.5978" x2="-7.26217" y2="17.8619" gradientUnits="userSpaceOnUse">
<stop stop-color="#2BC016"/>
<stop offset="0.288293" stop-color="#26A96C"/>
<stop offset="0.994275" stop-color="#387D7A"/>
</linearGradient>
<linearGradient id="paint1_linear_16266_310" x1="31.281" y1="30.5978" x2="-7.26217" y2="17.8619" gradientUnits="userSpaceOnUse">
<stop stop-color="#2BC016"/>
<stop offset="0.288293" stop-color="#26A96C"/>
<stop offset="0.994275" stop-color="#387D7A"/>
</linearGradient>
<linearGradient id="paint2_linear_16266_310" x1="31.281" y1="30.5978" x2="-7.26217" y2="17.8619" gradientUnits="userSpaceOnUse">
<stop stop-color="#2BC016"/>
<stop offset="0.288293" stop-color="#26A96C"/>
<stop offset="0.994275" stop-color="#387D7A"/>
</linearGradient>
</defs>
</svg>
