<svg width="28" height="28" viewBox="0 0 28 28" fill="none" xmlns="http://www.w3.org/2000/svg">
<g clip-path="url(#clip0_16190_423)">
<path d="M13.6132 4.19393C13.7158 4.29649 13.8549 4.35411 13.9999 4.35411C14.1449 4.35411 14.284 4.29649 14.3866 4.19393C14.4892 4.09137 14.5468 3.95227 14.5468 3.80723V2.46323C14.5468 2.31819 14.4892 2.17909 14.3866 2.07653C14.284 1.97398 14.1449 1.91636 13.9999 1.91636C13.8549 1.91636 13.7158 1.97398 13.6132 2.07653C13.5106 2.17909 13.453 2.31819 13.453 2.46323V3.80723C13.453 3.95227 13.5106 4.09137 13.6132 4.19393Z" fill="url(#paint0_linear_16190_423)"/>
<path d="M2.46313 14.5469H3.80713C3.95217 14.5469 4.09127 14.4893 4.19383 14.3867C4.29639 14.2841 4.35401 14.145 4.35401 14C4.35401 13.855 4.29639 13.7159 4.19383 13.6133C4.09127 13.5107 3.95217 13.4531 3.80713 13.4531H2.46313C2.31809 13.4531 2.17899 13.5107 2.07644 13.6133C1.97388 13.7159 1.91626 13.855 1.91626 14C1.91626 14.145 1.97388 14.2841 2.07644 14.3867C2.17899 14.4893 2.31809 14.5469 2.46313 14.5469Z" fill="url(#paint1_linear_16190_423)"/>
<path d="M13.6132 25.9235C13.7158 26.026 13.8549 26.0836 13.9999 26.0836C14.1449 26.0836 14.284 26.026 14.3866 25.9235C14.4892 25.8209 14.5468 25.6818 14.5468 25.5368V24.1928C14.5468 24.0477 14.4892 23.9086 14.3866 23.8061C14.284 23.7035 14.1449 23.6459 13.9999 23.6459C13.8549 23.6459 13.7158 23.7035 13.6132 23.8061C13.5106 23.9086 13.453 24.0477 13.453 24.1928V25.5368C13.453 25.6818 13.5106 25.8209 13.6132 25.9235Z" fill="url(#paint2_linear_16190_423)"/>
<path d="M24.1927 14.5469H25.5367C25.6817 14.5469 25.8208 14.4893 25.9234 14.3867C26.0259 14.2841 26.0835 14.145 26.0835 14C26.0835 13.855 26.0259 13.7159 25.9234 13.6133C25.8208 13.5107 25.6817 13.4531 25.5367 13.4531H24.1927C24.0476 13.4531 23.9085 13.5107 23.806 13.6133C23.7034 13.7159 23.6458 13.855 23.6458 14C23.6458 14.145 23.7034 14.2841 23.806 14.3867C23.9085 14.4893 24.0476 14.5469 24.1927 14.5469Z" fill="url(#paint3_linear_16190_423)"/>
<path d="M16.952 16.3363C17.0352 16.3843 17.1295 16.4096 17.2255 16.4096C17.3459 16.4097 17.4639 16.37 17.5595 16.2967C17.655 16.2234 17.7237 16.1206 17.7549 16.0043C17.786 15.888 17.7779 15.7646 17.7318 15.6534C17.6857 15.5421 17.6042 15.4492 17.4999 15.3891L14.5468 13.684V6.3012C14.5468 6.15616 14.4892 6.01706 14.3866 5.9145C14.284 5.81194 14.1449 5.75433 13.9999 5.75433C13.8549 5.75433 13.7158 5.81194 13.6132 5.9145C13.5106 6.01706 13.453 6.15616 13.453 6.3012V14C13.4529 14.0959 13.478 14.1901 13.5259 14.2733C13.5737 14.3564 13.6425 14.4255 13.7255 14.4736L16.952 16.3363Z" fill="url(#paint4_linear_16190_423)"/>
<path fill-rule="evenodd" clip-rule="evenodd" d="M6.22202 25.6406C8.52431 27.1789 11.2311 28 14 28C17.7118 27.9958 21.2703 26.5195 23.8949 23.8949C26.5195 21.2703 27.9958 17.7118 28 14C28 11.2311 27.1789 8.52431 25.6406 6.22202C24.1022 3.91973 21.9157 2.12532 19.3576 1.06569C16.7994 0.00606596 13.9845 -0.271181 11.2687 0.269012C8.55301 0.809205 6.05845 2.14258 4.10051 4.10051C2.14258 6.05845 0.809205 8.55301 0.269012 11.2687C-0.271181 13.9845 0.00606596 16.7994 1.06569 19.3576C2.12532 21.9157 3.91973 24.1022 6.22202 25.6406ZM6.82968 3.26885C8.9521 1.85069 11.4474 1.09376 14 1.09376C17.4218 1.09764 20.7023 2.45864 23.1218 4.87819C25.5414 7.29774 26.9024 10.5782 26.9063 14C26.9063 16.5526 26.1493 19.0479 24.7312 21.1703C23.313 23.2928 21.2973 24.947 18.939 25.9238C16.5807 26.9007 13.9857 27.1563 11.4821 26.6583C8.97855 26.1603 6.67888 24.9311 4.87391 23.1261C3.06894 21.3211 1.83974 19.0215 1.34175 16.5179C0.843756 14.0143 1.09934 11.4193 2.07619 9.061C3.05303 6.70269 4.70726 4.68701 6.82968 3.26885Z" fill="url(#paint5_linear_16190_423)"/>
</g>
<defs>
<linearGradient id="paint0_linear_16190_423" x1="31.281" y1="30.5978" x2="-7.26217" y2="17.8619" gradientUnits="userSpaceOnUse">
<stop stop-color="#2BC016"/>
<stop offset="0.288293" stop-color="#26A96C"/>
<stop offset="0.994275" stop-color="#387D7A"/>
</linearGradient>
<linearGradient id="paint1_linear_16190_423" x1="31.281" y1="30.5978" x2="-7.26217" y2="17.8619" gradientUnits="userSpaceOnUse">
<stop stop-color="#2BC016"/>
<stop offset="0.288293" stop-color="#26A96C"/>
<stop offset="0.994275" stop-color="#387D7A"/>
</linearGradient>
<linearGradient id="paint2_linear_16190_423" x1="31.281" y1="30.5978" x2="-7.26217" y2="17.8619" gradientUnits="userSpaceOnUse">
<stop stop-color="#2BC016"/>
<stop offset="0.288293" stop-color="#26A96C"/>
<stop offset="0.994275" stop-color="#387D7A"/>
</linearGradient>
<linearGradient id="paint3_linear_16190_423" x1="31.281" y1="30.5978" x2="-7.26217" y2="17.8619" gradientUnits="userSpaceOnUse">
<stop stop-color="#2BC016"/>
<stop offset="0.288293" stop-color="#26A96C"/>
<stop offset="0.994275" stop-color="#387D7A"/>
</linearGradient>
<linearGradient id="paint4_linear_16190_423" x1="31.281" y1="30.5978" x2="-7.26217" y2="17.8619" gradientUnits="userSpaceOnUse">
<stop stop-color="#2BC016"/>
<stop offset="0.288293" stop-color="#26A96C"/>
<stop offset="0.994275" stop-color="#387D7A"/>
</linearGradient>
<linearGradient id="paint5_linear_16190_423" x1="31.281" y1="30.5978" x2="-7.26217" y2="17.8619" gradientUnits="userSpaceOnUse">
<stop stop-color="#2BC016"/>
<stop offset="0.288293" stop-color="#26A96C"/>
<stop offset="0.994275" stop-color="#387D7A"/>
</linearGradient>
<clipPath id="clip0_16190_423">
<rect width="28" height="28" fill="white"/>
</clipPath>
</defs>
</svg>
