<svg width="40" height="26" viewBox="0 0 40 26" fill="none" xmlns="http://www.w3.org/2000/svg">
<g clip-path="url(#clip0_16190_429)">
<path d="M2.52714 8.11251L2.006 11.2949C1.97074 11.5033 1.99527 11.7175 2.07675 11.9126C2.15823 12.1077 2.29332 12.2758 2.46642 12.3974C2.63359 12.5167 2.83117 12.5863 3.0363 12.5981C3.24143 12.6099 3.44571 12.5635 3.62548 12.4641L6.30661 10.9869L8.9864 12.4641C9.16625 12.5636 9.37065 12.6102 9.57592 12.5984C9.78118 12.5866 9.97889 12.5169 10.1461 12.3974C10.3191 12.2757 10.4541 12.1076 10.5354 11.9125C10.6168 11.7174 10.6412 11.5032 10.6059 11.2949L10.0854 8.11251L12.2914 5.85875C12.4368 5.70998 12.538 5.52395 12.5841 5.32124C12.6301 5.11854 12.6191 4.90705 12.5523 4.7102C12.4884 4.51667 12.3722 4.34454 12.2165 4.2128C12.0608 4.08107 11.8718 3.99483 11.6702 3.96361L8.65342 3.50432L7.30419 0.637948C7.21667 0.447091 7.076 0.285443 6.89898 0.172318C6.72196 0.0591923 6.51608 -0.000625061 6.30594 1.32288e-05C6.0961 -0.000427342 5.89055 0.0594112 5.7138 0.172398C5.53705 0.285385 5.39654 0.446756 5.30902 0.637281L3.95912 3.50365L0.943023 3.96294C0.741102 3.99399 0.551712 4.08022 0.395793 4.2121C0.239875 4.34398 0.123503 4.51637 0.0595461 4.7102C-0.00718292 4.90711 -0.0180668 5.11863 0.0280993 5.32134C0.0742653 5.52406 0.175681 5.71005 0.321119 5.85875L2.52714 8.11251ZM4.28275 4.80352C4.46248 4.77571 4.63259 4.70413 4.77806 4.59508C4.92353 4.48603 5.03989 4.34287 5.11685 4.17825L6.30594 1.65118L7.4957 4.17825C7.5726 4.34279 7.68885 4.48589 7.83419 4.59493C7.97954 4.70398 8.14952 4.77561 8.32913 4.80352L11.0516 5.21814L9.05713 7.25594C8.93388 7.38279 8.84206 7.53669 8.78899 7.70534C8.73593 7.87398 8.72309 8.05268 8.75151 8.22717L9.21861 11.0649L6.83242 9.75235C6.67077 9.66257 6.48888 9.61546 6.30394 9.61546C6.11899 9.61546 5.9371 9.66257 5.77545 9.75235L3.39594 11.0655L3.86303 8.22917C3.89176 8.05453 3.87914 7.8756 3.82618 7.70671C3.77323 7.53782 3.68141 7.38366 3.55809 7.2566L1.56092 5.21814L4.28275 4.80352ZM22.4888 12.4614C22.6687 12.5611 22.8732 12.6077 23.0786 12.5959C23.284 12.5841 23.4819 12.5143 23.6492 12.3947C23.8218 12.2729 23.9564 12.1048 24.0375 11.9099C24.1186 11.7149 24.1429 11.501 24.1076 11.2929L23.5871 8.11051L25.7938 5.85675C25.939 5.70791 26.0402 5.52185 26.0861 5.31914C26.132 5.11644 26.1209 4.90499 26.054 4.7082C25.9901 4.51467 25.8739 4.34254 25.7182 4.2108C25.5626 4.07907 25.3735 3.99283 25.1719 3.96161L22.1558 3.50232L20.8059 0.635948C20.7182 0.445673 20.5776 0.284579 20.4009 0.171838C20.2241 0.0590965 20.0187 -0.000544346 19.809 1.32288e-05C19.5986 -0.000374827 19.3926 0.0594375 19.2152 0.172373C19.0378 0.285309 18.8965 0.446642 18.8081 0.637281L17.4588 3.50365L14.4421 3.96294C14.2404 3.99422 14.0513 4.08055 13.8956 4.21242C13.7399 4.34428 13.6238 4.51654 13.5599 4.7102C13.4932 4.90696 13.4823 5.11831 13.5284 5.32089C13.5744 5.52346 13.6756 5.70938 13.8208 5.85808L16.0268 8.11185L15.5064 11.2942C15.471 11.5026 15.4955 11.7167 15.5768 11.9118C15.6582 12.1069 15.7932 12.275 15.9661 12.3967C16.1334 12.5162 16.3311 12.5859 16.5363 12.5977C16.7416 12.6095 16.946 12.5629 17.1259 12.4634L19.8063 10.9862L22.4888 12.4614ZM19.2798 9.75235L16.8983 11.0655L17.3621 8.22917C17.3908 8.05453 17.3782 7.8756 17.3252 7.70671C17.2723 7.53782 17.1804 7.38366 17.0571 7.2566L15.0626 5.21881L17.7858 4.80419C17.9653 4.77618 18.1351 4.70449 18.2803 4.59545C18.4256 4.48642 18.5417 4.34337 18.6186 4.17892L19.8076 1.65184L20.9987 4.18092C21.0758 4.34499 21.1921 4.48764 21.3373 4.59632C21.4825 4.705 21.6522 4.77638 21.8315 4.80419L24.5533 5.21881L22.5575 7.2586C22.4348 7.38537 22.3434 7.53899 22.2906 7.70725C22.2377 7.87551 22.225 8.05377 22.2532 8.22784L22.7203 11.0655L20.3361 9.75235C20.1746 9.66269 19.9928 9.61565 19.808 9.61565C19.6232 9.61565 19.4414 9.66269 19.2798 9.75235ZM33.6897 1.32288e-05C33.4799 -0.000427342 33.2743 0.0594112 33.0976 0.172398C32.9208 0.285385 32.7803 0.446756 32.6928 0.637281L31.3429 3.50365L28.3268 3.96294C28.1251 3.99405 27.9359 4.08023 27.7801 4.21198C27.6243 4.34373 27.508 4.51591 27.444 4.70953C27.3773 4.90645 27.3664 5.11796 27.4125 5.32068C27.4587 5.52339 27.5601 5.70939 27.7056 5.85808L29.9116 8.11185L29.3904 11.2942C29.3551 11.5032 29.3798 11.718 29.4618 11.9135C29.5438 12.109 29.6796 12.2773 29.8535 12.3987C30.0207 12.5181 30.2183 12.5877 30.4234 12.5995C30.6285 12.6113 30.8328 12.5648 31.0126 12.4654L33.693 10.9882L36.3735 12.4654C36.5534 12.5649 36.7578 12.6115 36.963 12.5997C37.1683 12.5879 37.366 12.5182 37.5332 12.3987C37.7062 12.277 37.8412 12.1089 37.9225 11.9138C38.0039 11.7187 38.0283 11.5046 37.993 11.2962L37.4725 8.11385L39.6792 5.86008C39.8244 5.71125 39.9256 5.52518 39.9715 5.32248C40.0174 5.11977 40.0063 4.90833 39.9394 4.71153C39.8755 4.518 39.7593 4.34588 39.6036 4.21414C39.4479 4.0824 39.2589 3.99616 39.0573 3.96494L36.0405 3.50565L34.6913 0.639281C34.6038 0.447761 34.4628 0.285555 34.2852 0.172153C34.1077 0.0587517 33.9004 -0.00102225 33.6897 1.32288e-05ZM34.8801 4.17825C34.957 4.34279 35.0733 4.48589 35.2186 4.59493C35.364 4.70398 35.534 4.77561 35.7136 4.80352L38.4361 5.21814L36.4416 7.25594C36.3183 7.38279 36.2265 7.53669 36.1734 7.70534C36.1204 7.87398 36.1075 8.05268 36.1359 8.22717L36.603 11.0649L34.2222 9.75301C34.0605 9.66312 33.8785 9.61594 33.6934 9.61594C33.5083 9.61594 33.3263 9.66312 33.1646 9.75301L30.7804 11.0655L31.2475 8.2265C31.2757 8.05223 31.2627 7.87378 31.2097 7.70539C31.1566 7.537 31.0649 7.38332 30.9419 7.2566L28.9467 5.21881L31.6692 4.80419C31.8489 4.77638 32.019 4.70479 32.1645 4.59574C32.31 4.48669 32.4263 4.34354 32.5033 4.17892L33.6924 1.65184L34.8801 4.17825ZM19.117 18.1102C19.0532 17.9163 18.937 17.7438 18.7812 17.6118C18.6254 17.4798 18.4361 17.3935 18.2342 17.3622L15.2174 16.9029L13.8682 14.0366C13.7808 13.8459 13.6403 13.6844 13.4636 13.5713C13.2868 13.4582 13.0812 13.3983 12.8713 13.3986C12.6607 13.3975 12.4542 13.4571 12.2767 13.5702C12.0992 13.6834 11.9581 13.8453 11.8704 14.0366L10.5205 16.9029L7.5037 17.3622C7.30183 17.3935 7.11252 17.4798 6.95672 17.6118C6.80092 17.7438 6.6847 17.9163 6.62089 18.1102C6.55452 18.3069 6.54388 18.5182 6.59016 18.7207C6.63643 18.9231 6.73783 19.1089 6.88313 19.2574L9.08916 21.5111L8.56734 24.6941C8.53215 24.9024 8.55665 25.1164 8.638 25.3114C8.71935 25.5064 8.85424 25.6744 9.0271 25.796C9.19434 25.9155 9.39205 25.9852 9.59731 25.997C9.80257 26.0088 10.007 25.9622 10.1868 25.8627L12.8673 24.3855L15.5477 25.8627C15.7277 25.9624 15.9322 26.009 16.1376 25.9972C16.343 25.9854 16.5408 25.9156 16.7081 25.796C16.8809 25.6743 17.0156 25.5062 17.0969 25.3113C17.1781 25.1163 17.2025 24.9024 17.1672 24.6941L16.6468 21.5111L18.8521 19.2574C18.9979 19.1092 19.0998 18.9235 19.1465 18.7211C19.1933 18.5186 19.1831 18.3072 19.117 18.1102ZM15.6211 20.6546C15.4979 20.7814 15.4061 20.9353 15.353 21.104C15.2999 21.2726 15.2871 21.4513 15.3155 21.6258L15.7826 24.4635L13.3984 23.151C13.2368 23.0612 13.0549 23.0141 12.87 23.0141C12.685 23.0141 12.5031 23.0612 12.3415 23.151L9.95996 24.4642L10.4271 21.6278C10.4558 21.4532 10.4432 21.2742 10.3902 21.1053C10.3372 20.9364 10.2454 20.7823 10.1221 20.6552L8.12694 18.6174L10.8501 18.2028C11.0298 18.1754 11.1999 18.1039 11.3452 17.9948C11.4905 17.8857 11.6065 17.7423 11.6829 17.5775L12.8726 15.0505L14.0624 17.5769C14.1388 17.742 14.2549 17.8856 14.4005 17.9948C14.5461 18.104 14.7165 18.1755 14.8965 18.2028L17.6183 18.6174L15.6211 20.6546ZM32.9997 18.1108C32.936 17.9167 32.8197 17.7441 32.6638 17.6119C32.5078 17.4798 32.3183 17.3934 32.1163 17.3622L29.1002 16.9029L27.7503 14.0366C27.6627 13.8459 27.5221 13.6845 27.3452 13.5715C27.1683 13.4585 26.9626 13.3987 26.7527 13.3993C26.5428 13.3989 26.3372 13.4589 26.1604 13.572C25.9837 13.6851 25.8432 13.8466 25.7558 14.0372L24.4065 16.9036L21.3884 17.3629C21.1868 17.3943 20.9978 17.4808 20.8422 17.6128C20.6867 17.7448 20.5707 17.9171 20.507 18.1108C20.4406 18.3076 20.4299 18.5189 20.4762 18.7214C20.5225 18.9238 20.6239 19.1095 20.7692 19.258L22.9712 21.5118L22.4514 24.6935C22.4161 24.9023 22.4408 25.1169 22.5226 25.3123C22.6045 25.5077 22.7401 25.6759 22.9138 25.7974C23.0811 25.917 23.279 25.9867 23.4844 25.9985C23.6898 26.0103 23.8943 25.9637 24.0742 25.864L26.7547 24.3868L29.4358 25.864C29.6157 25.9636 29.8201 26.0101 30.0253 25.9983C30.2306 25.9865 30.4283 25.9168 30.5955 25.7974C30.7684 25.6757 30.9033 25.5077 30.9846 25.3127C31.066 25.1177 31.0905 24.9038 31.0553 24.6955L30.5341 21.5125L32.7362 19.2594C32.8819 19.1109 32.9837 18.925 33.0303 18.7223C33.0768 18.5195 33.0662 18.3079 32.9997 18.1108ZM29.5032 20.6546C29.38 20.7814 29.2881 20.9353 29.2351 21.104C29.182 21.2726 29.1692 21.4513 29.1976 21.6258L29.6647 24.4635L27.2832 23.1516C27.1215 23.062 26.9396 23.0147 26.7547 23.0143C26.5699 23.0137 26.3879 23.0595 26.2255 23.1476L23.8427 24.4642L24.3098 21.6251C24.338 21.4509 24.325 21.2724 24.272 21.104C24.2189 20.9356 24.1272 20.7819 24.0042 20.6552L22.0097 18.6174L24.7315 18.2028C24.9112 18.175 25.0813 18.1034 25.2268 17.9944C25.3723 17.8853 25.4886 17.7422 25.5656 17.5775L26.7554 15.0505L27.9451 17.5769C28.0214 17.7419 28.1375 17.8854 28.2829 17.9947C28.4284 18.1039 28.5987 18.1754 28.7785 18.2028L31.5004 18.6174L29.5032 20.6546Z" fill="url(#paint0_linear_16190_429)"/>
</g>
<defs>
<linearGradient id="paint0_linear_16190_429" x1="44.6863" y1="28.4126" x2="-3.84511" y2="3.74205" gradientUnits="userSpaceOnUse">
<stop stop-color="#2BC016"/>
<stop offset="0.288293" stop-color="#26A96C"/>
<stop offset="0.994275" stop-color="#387D7A"/>
</linearGradient>
<clipPath id="clip0_16190_429">
<rect width="40" height="26" fill="white"/>
</clipPath>
</defs>
</svg>
