<svg width="44" height="40" viewBox="0 0 44 40" fill="none" xmlns="http://www.w3.org/2000/svg">
<g clip-path="url(#clip0_16147_8978)">
<path d="M36.8941 32.8295C33.4706 36.2854 28.9973 38.0525 24.5 38.1309V38.1246H24.4H23.6188C19.2077 37.9851 14.8384 36.2201 11.4796 32.8295L11.4086 32.7578L11.3375 32.8295L10.0991 34.0797L10.0294 34.15L10.0991 34.2204C11.7309 35.8677 13.5789 37.1693 15.5521 38.1246H2.60531H2.50531V38.2246V39.9937V40.0937H2.60531H23.6938C23.8572 40.0977 24.0206 40.0997 24.1839 40.0997C29.2859 40.0997 34.388 38.1379 38.2746 34.2205L38.2746 34.2204C46.0415 26.3799 46.0415 13.6212 38.2746 5.78076C30.5072 -2.06023 17.8666 -2.06025 10.0992 5.7807C7.56879 8.33126 5.76597 11.5228 4.88011 15.0197L4.85563 15.1164L4.95219 15.1412L6.65207 15.5775L6.74919 15.6025L6.77386 15.5053C7.57407 12.3517 9.19941 9.47336 11.4796 7.17164C18.4853 0.0995538 29.8884 0.0995538 36.8941 7.17164C43.9004 14.2442 43.9004 25.7569 36.8941 32.8295ZM13.6056 29.0904V28.9904H13.5056H2.60531H2.50531V29.0904V30.8595V30.9595H2.60531H13.5056H13.6056V30.8595V29.0904ZM16.6256 24.4319V24.3319H16.5256H4.87766H4.77766V24.4319V26.201V26.301H4.87766H16.5256H16.6256V26.201V24.4319ZM11.748 20.0565V19.9565H11.648H0H-0.1V20.0565V21.8255V21.9255H0H11.648H11.748V21.8255V20.0565ZM15.3739 12.3556L15.3042 12.426L15.3739 12.4963L24.2588 21.4654L24.3299 21.5371L24.4009 21.4654L35.9262 9.83688L35.9961 9.76634L35.9261 9.69594L34.6818 8.44581L34.6108 8.37443L34.5399 8.44598L24.3299 18.7527L16.7544 11.1055L16.6833 11.0337L16.6123 11.1055L15.3739 12.3556Z" fill="url(#paint0_linear_16147_8978)" stroke="url(#paint1_linear_16147_8978)" stroke-width="0.2"/>
</g>
<defs>
<linearGradient id="paint0_linear_16147_8978" x1="49.1555" y1="43.7108" x2="-10.1852" y2="22.1419" gradientUnits="userSpaceOnUse">
<stop stop-color="#2BC016"/>
<stop offset="0.288293" stop-color="#26A96C"/>
<stop offset="0.994275" stop-color="#387D7A"/>
</linearGradient>
<linearGradient id="paint1_linear_16147_8978" x1="49.1555" y1="43.7108" x2="-10.1852" y2="22.1419" gradientUnits="userSpaceOnUse">
<stop stop-color="#2BC016"/>
<stop offset="0.288293" stop-color="#26A96C"/>
<stop offset="0.994275" stop-color="#387D7A"/>
</linearGradient>
<clipPath id="clip0_16147_8978">
<rect width="44" height="40" fill="white"/>
</clipPath>
</defs>
</svg>
