<svg width="40" height="40" viewBox="0 0 40 40" fill="none" xmlns="http://www.w3.org/2000/svg">
<path fill-rule="evenodd" clip-rule="evenodd" d="M35 2.5H5C2.93125 2.5 1.25 4.18125 1.25 6.25V25C1.25 27.0688 2.93125 28.75 5 28.75H9.375C9.71875 28.75 10 28.4688 10 28.125C10 27.7812 9.71875 27.5 9.375 27.5H5C3.61875 27.5 2.5 26.3813 2.5 25V15H37.5V25C37.5 26.3813 36.3812 27.5 35 27.5H30.625C30.2812 27.5 30 27.7812 30 28.125C30 28.4688 30.2812 28.75 30.625 28.75H35C37.0687 28.75 38.75 27.0688 38.75 25V6.25C38.75 4.18125 37.0687 2.5 35 2.5ZM5 3.75H35C36.3812 3.75 37.5 4.86875 37.5 6.25V7.5H2.5V6.25C2.5 4.86875 3.61875 3.75 5 3.75ZM2.5 13.75V8.75H37.5V13.75H2.5Z" fill="url(#paint0_linear_16147_8973)"/>
<path fill-rule="evenodd" clip-rule="evenodd" d="M20 28.125C21.0312 28.125 21.875 28.9688 21.875 30C21.875 30.8188 21.35 31.5062 20.625 31.7625V33.75C20.625 34.0938 20.3438 34.375 20 34.375C19.6562 34.375 19.375 34.0938 19.375 33.75V31.7625C18.65 31.5 18.125 30.8125 18.125 30C18.125 28.9688 18.9688 28.125 20 28.125ZM20.625 30C20.625 29.6562 20.3438 29.375 20 29.375C19.6562 29.375 19.375 29.6562 19.375 30C19.375 30.3438 19.6562 30.625 20 30.625C20.3438 30.625 20.625 30.3438 20.625 30Z" fill="url(#paint1_linear_16147_8973)"/>
<path fill-rule="evenodd" clip-rule="evenodd" d="M25.625 25H25V22.5C25 19.7437 22.7563 17.5 20 17.5C17.2437 17.5 15 19.7437 15 22.5V25H14.375C12.65 25 11.25 26.4 11.25 28.125V34.375C11.25 36.1 12.65 37.5 14.375 37.5H25.625C27.35 37.5 28.75 36.1 28.75 34.375V28.125C28.75 26.4 27.35 25 25.625 25ZM16.25 22.5C16.25 20.4312 17.9312 18.75 20 18.75C22.0688 18.75 23.75 20.4312 23.75 22.5V25H16.25V22.5ZM27.5 34.375C27.5 35.4062 26.6562 36.25 25.625 36.25H14.375C13.3438 36.25 12.5 35.4062 12.5 34.375V28.125C12.5 27.0938 13.3438 26.25 14.375 26.25H25.625C26.6562 26.25 27.5 27.0938 27.5 28.125V34.375Z" fill="url(#paint2_linear_16147_8973)"/>
<path d="M5.625 23.75H9.375C9.71875 23.75 10 23.4688 10 23.125C10 22.7812 9.71875 22.5 9.375 22.5H5.625C5.28125 22.5 5 22.7812 5 23.125C5 23.4688 5.28125 23.75 5.625 23.75Z" fill="url(#paint3_linear_16147_8973)"/>
<path d="M5.625 20.625H11.875C12.2188 20.625 12.5 20.3438 12.5 20C12.5 19.6562 12.2188 19.375 11.875 19.375H5.625C5.28125 19.375 5 19.6562 5 20C5 20.3438 5.28125 20.625 5.625 20.625Z" fill="url(#paint4_linear_16147_8973)"/>
<path fill-rule="evenodd" clip-rule="evenodd" d="M30 21.875C30 23.2563 31.1187 24.375 32.5 24.375C33.8812 24.375 35 23.2563 35 21.875C35 20.4937 33.8812 19.375 32.5 19.375C31.1187 19.375 30 20.4937 30 21.875ZM31.25 21.875C31.25 21.1875 31.8125 20.625 32.5 20.625C33.1875 20.625 33.75 21.1875 33.75 21.875C33.75 22.5625 33.1875 23.125 32.5 23.125C31.8125 23.125 31.25 22.5625 31.25 21.875Z" fill="url(#paint5_linear_16147_8973)"/>
<defs>
<linearGradient id="paint0_linear_16147_8973" x1="43.1441" y1="40.7472" x2="-7.73508" y2="22.7343" gradientUnits="userSpaceOnUse">
<stop stop-color="#2BC016"/>
<stop offset="0.288293" stop-color="#26A96C"/>
<stop offset="0.994275" stop-color="#387D7A"/>
</linearGradient>
<linearGradient id="paint1_linear_16147_8973" x1="43.1441" y1="40.7472" x2="-7.73508" y2="22.7343" gradientUnits="userSpaceOnUse">
<stop stop-color="#2BC016"/>
<stop offset="0.288293" stop-color="#26A96C"/>
<stop offset="0.994275" stop-color="#387D7A"/>
</linearGradient>
<linearGradient id="paint2_linear_16147_8973" x1="43.1441" y1="40.7472" x2="-7.73508" y2="22.7343" gradientUnits="userSpaceOnUse">
<stop stop-color="#2BC016"/>
<stop offset="0.288293" stop-color="#26A96C"/>
<stop offset="0.994275" stop-color="#387D7A"/>
</linearGradient>
<linearGradient id="paint3_linear_16147_8973" x1="43.1441" y1="40.7472" x2="-7.73508" y2="22.7343" gradientUnits="userSpaceOnUse">
<stop stop-color="#2BC016"/>
<stop offset="0.288293" stop-color="#26A96C"/>
<stop offset="0.994275" stop-color="#387D7A"/>
</linearGradient>
<linearGradient id="paint4_linear_16147_8973" x1="43.1441" y1="40.7472" x2="-7.73508" y2="22.7343" gradientUnits="userSpaceOnUse">
<stop stop-color="#2BC016"/>
<stop offset="0.288293" stop-color="#26A96C"/>
<stop offset="0.994275" stop-color="#387D7A"/>
</linearGradient>
<linearGradient id="paint5_linear_16147_8973" x1="43.1441" y1="40.7472" x2="-7.73508" y2="22.7343" gradientUnits="userSpaceOnUse">
<stop stop-color="#2BC016"/>
<stop offset="0.288293" stop-color="#26A96C"/>
<stop offset="0.994275" stop-color="#387D7A"/>
</linearGradient>
</defs>
</svg>
