<svg width="64" height="64" viewBox="0 0 64 64" fill="none" xmlns="http://www.w3.org/2000/svg">
<g clip-path="url(#clip0_16147_9382)">
<path d="M2.84263 32.0001C2.84583 24.972 5.38747 18.1816 9.99973 12.8786C14.612 7.57569 20.9845 4.11716 27.9443 3.13961C34.904 2.16206 41.9827 3.73128 47.8774 7.55845C53.772 11.3856 58.0859 17.2131 60.0251 23.9684C61.9642 30.7237 61.3981 37.9521 58.431 44.3231C55.4638 50.6941 50.2953 55.779 43.8767 58.6419C37.4581 61.5047 30.2214 61.9528 23.4987 59.9037C17.3739 58.0368 12.0512 54.2116 8.3318 49.0418H14.0979C14.3669 49.0418 14.6249 48.9349 14.8151 48.7447C15.0053 48.5545 15.1122 48.2965 15.1122 48.0275C15.1122 47.7585 15.0053 47.5005 14.8151 47.3103C14.6249 47.1201 14.3669 47.0132 14.0979 47.0132H6.39964C6.13063 47.0132 5.87264 47.1201 5.68243 47.3103C5.49221 47.5005 5.38535 47.7585 5.38535 48.0275V55.7715C5.38535 56.0405 5.49221 56.2985 5.68243 56.4887C5.87264 56.6789 6.13063 56.7858 6.39964 56.7858C6.66864 56.7858 6.92663 56.6789 7.11685 56.4887C7.30706 56.2985 7.41392 56.0405 7.41392 55.7715V51.2008C9.98523 54.5063 13.206 57.2667 16.8897 59.3048C21.5141 61.8634 26.7151 63.1992 32 63.1857C38.1679 63.1857 44.1972 61.3567 49.3256 57.93C54.4541 54.5033 58.4512 49.6327 60.8116 43.9343C63.172 38.2358 63.7896 31.9654 62.5863 25.916C61.383 19.8666 58.4128 14.3098 54.0514 9.94841C49.69 5.587 44.1332 2.61685 38.0838 1.41355C32.0344 0.210238 25.764 0.827819 20.0655 3.18819C14.3671 5.54856 9.49653 9.54572 6.0698 14.6742C2.64307 19.8026 0.814062 25.8321 0.814062 32C0.814062 32.269 0.920924 32.527 1.11114 32.7172C1.30136 32.9075 1.55934 33.0143 1.82835 33.0143C2.09735 33.0143 2.35534 32.9075 2.54556 32.7172C2.73577 32.527 2.84263 32.2691 2.84263 32.0001ZM2.84263 32.0001L2.74263 32L2.84263 32.0001ZM26.8438 36.1418V36.142C26.8463 37.5086 27.3903 38.8186 28.3567 39.785C29.0804 40.5087 29.9968 40.9955 30.9854 41.1954V42.0572C30.9854 42.3262 31.0923 42.5842 31.2825 42.7744C31.4727 42.9646 31.7307 43.0715 31.9997 43.0715C32.2687 43.0715 32.5267 42.9646 32.7169 42.7744C32.9072 42.5842 33.014 42.3262 33.014 42.0572V41.1954C34.0027 40.9956 34.9192 40.5087 35.643 39.785C36.6094 38.8186 37.1534 37.5086 37.1558 36.142V36.1418C37.1558 34.9237 36.7419 33.8725 35.9214 33.0111C35.103 32.1519 33.8851 31.4866 32.2839 31.0264C30.5557 30.5137 29.7077 29.8471 29.2896 29.2544C28.8725 28.6633 28.8724 28.1317 28.8724 27.8584C28.8724 27.0289 29.2019 26.2334 29.7884 25.6469C30.3749 25.0604 31.1704 24.7309 31.9998 24.7309C32.8293 24.7309 33.6248 25.0604 34.2113 25.6469C34.7978 26.2334 35.1273 27.0289 35.1273 27.8584C35.1273 28.1274 35.2341 28.3854 35.4244 28.5756C35.6146 28.7658 35.8726 28.8727 36.1416 28.8727C36.4106 28.8727 36.6686 28.7658 36.8588 28.5756C37.049 28.3854 37.1558 28.1274 37.1558 27.8584C37.1558 26.4909 36.6126 25.1795 35.6457 24.2125C34.9214 23.4882 34.0037 23.0016 33.014 22.8031V21.9429C33.014 21.6739 32.9072 21.4159 32.7169 21.2257C32.5267 21.0355 32.2687 20.9286 31.9997 20.9286C31.7307 20.9286 31.4727 21.0355 31.2825 21.2257C31.0923 21.4159 30.9854 21.6739 30.9854 21.9429V22.8031C29.9958 23.0017 29.0783 23.4883 28.354 24.2125C27.3871 25.1795 26.8438 26.4909 26.8438 27.8584C26.8438 28.6986 27.0565 29.6839 27.777 30.6079C28.497 31.5313 29.7172 32.3843 31.7156 32.9737C33.2637 33.4323 34.1139 34.0002 34.5777 34.5599C35.0393 35.1168 35.1273 35.6764 35.1273 36.1418C35.1273 36.9712 34.7978 37.7667 34.2113 38.3532C33.6262 38.9383 32.8331 39.2677 32.0058 39.2692L31.9997 39.2692L31.9938 39.2692C31.9936 39.2692 31.9934 39.2692 31.9932 39.2692C31.1662 39.2675 30.3734 38.9382 29.7884 38.3532C29.2019 37.7667 28.8724 36.9712 28.8724 36.1418C28.8724 35.8728 28.7656 35.6148 28.5753 35.4246C28.3851 35.2344 28.1271 35.1275 27.8581 35.1275C27.5891 35.1275 27.3311 35.2344 27.1409 35.4246C26.9507 35.6148 26.8438 35.8728 26.8438 36.1418ZM31.9996 49.3161H31.9998C36.59 49.3088 40.9901 47.4821 44.2359 44.2363C47.4817 40.9905 49.3083 36.5904 49.3156 32.0002V32.0001C49.3156 28.5753 48.3001 25.2274 46.3974 22.3798C44.4947 19.5322 41.7903 17.3128 38.6262 16.0022C35.4621 14.6916 31.9804 14.3486 28.6215 15.0168C25.2625 15.6849 22.1771 17.3341 19.7554 19.7558C17.3337 22.1775 15.6845 25.2629 15.0164 28.6219C14.3482 31.9809 14.6911 35.4625 16.0017 38.6266C17.3123 41.7907 19.5318 44.4951 22.3794 46.3978C25.227 48.3005 28.5749 49.3161 31.9996 49.3161ZM23.5064 19.289C26.0204 17.6093 28.976 16.7127 31.9995 16.7126C36.0526 16.7174 39.9382 18.3296 42.8041 21.1956C45.6701 24.0615 47.2823 27.9472 47.2871 32.0002C47.287 35.0237 46.3905 37.9793 44.7107 40.4933C43.0309 43.0073 40.6433 44.9667 37.8499 46.1238C35.0565 47.2809 31.9827 47.5836 29.0172 46.9937C26.0517 46.4039 23.3278 44.9479 21.1898 42.8099C19.0518 40.6719 17.5958 37.948 17.006 34.9825C16.4161 32.017 16.7188 28.9432 17.8759 26.1498C19.033 23.3564 20.9924 20.9688 23.5064 19.289Z" fill="url(#paint0_linear_16147_9382)" stroke="url(#paint1_linear_16147_9382)" stroke-width="0.2"/>
</g>
<defs>
<linearGradient id="paint0_linear_16147_9382" x1="70.3705" y1="68.854" x2="-15.211" y2="40.5752" gradientUnits="userSpaceOnUse">
<stop stop-color="#2BC016"/>
<stop offset="0.288293" stop-color="#26A96C"/>
<stop offset="0.994275" stop-color="#387D7A"/>
</linearGradient>
<linearGradient id="paint1_linear_16147_9382" x1="70.3705" y1="68.854" x2="-15.211" y2="40.5752" gradientUnits="userSpaceOnUse">
<stop stop-color="#2BC016"/>
<stop offset="0.288293" stop-color="#26A96C"/>
<stop offset="0.994275" stop-color="#387D7A"/>
</linearGradient>
<clipPath id="clip0_16147_9382">
<rect width="64" height="64" fill="white"/>
</clipPath>
</defs>
</svg>
