<svg width="64" height="64" viewBox="0 0 64 64" fill="none" xmlns="http://www.w3.org/2000/svg">
<mask id="path-1-outside-1_16147_9390" maskUnits="userSpaceOnUse" x="2.41211" y="1" width="59" height="62" fill="black">
<rect fill="white" x="2.41211" y="1" width="59" height="62"/>
<path fill-rule="evenodd" clip-rule="evenodd" d="M40.3463 9.011C40.3463 7.823 40.8093 6.706 41.6493 5.866C43.3823 4.133 46.2053 4.132 47.9393 5.866C49.6733 7.6 49.6733 10.422 47.9393 12.156C47.0993 12.996 45.9823 13.459 44.7943 13.459C43.6063 13.459 42.4893 12.996 41.6493 12.156C40.8093 11.316 40.3463 10.199 40.3463 9.011ZM47.2415 9.011C47.2415 8.36191 46.9839 7.73935 46.5253 7.28C46.0473 6.803 45.4213 6.564 44.7943 6.564C44.1673 6.564 43.5403 6.803 43.0633 7.28C42.6013 7.742 42.3463 8.357 42.3463 9.011C42.3463 9.665 42.6013 10.28 43.0633 10.742C43.9883 11.667 45.6003 11.667 46.5253 10.742C46.9839 10.2827 47.2415 9.66009 47.2415 9.011Z"/>
<path fill-rule="evenodd" clip-rule="evenodd" d="M57.8426 24.467C57.3029 24.6901 56.7243 24.8043 56.1403 24.803C55.5563 24.8043 54.9777 24.6901 54.438 24.467C53.8983 24.2439 53.408 23.9163 52.9953 23.503C52.1625 22.6682 51.6948 21.5372 51.6948 20.358C51.6948 19.1788 52.1625 18.0478 52.9953 17.213C53.8353 16.373 54.9523 15.91 56.1403 15.91C57.3283 15.91 58.4453 16.373 59.2853 17.213C60.1253 18.053 60.5883 19.17 60.5883 20.358C60.5883 21.546 60.1253 22.663 59.2853 23.503C58.8727 23.9163 58.3824 24.2439 57.8426 24.467ZM56.1403 17.91C55.4863 17.91 54.8713 18.165 54.4093 18.627C53.9507 19.0863 53.6931 19.7089 53.6931 20.358C53.6931 21.0071 53.9507 21.6297 54.4093 22.089C54.8687 22.5476 55.4912 22.8052 56.1403 22.8052C56.7894 22.8052 57.412 22.5476 57.8713 22.089C58.3333 21.627 58.5883 21.012 58.5883 20.358C58.5883 19.704 58.3333 19.089 57.8713 18.627C57.4093 18.165 56.7943 17.91 56.1403 17.91Z"/>
<path d="M59.0973 7.467L43.2503 23.314C43.1575 23.4068 43.0472 23.4805 42.9259 23.5307C42.8046 23.581 42.6746 23.6068 42.5433 23.6068C42.412 23.6068 42.282 23.581 42.1607 23.5307C42.0394 23.4805 41.9292 23.4068 41.8363 23.314C41.7435 23.2212 41.6698 23.1109 41.6196 22.9896C41.5693 22.8683 41.5435 22.7383 41.5435 22.607C41.5435 22.4757 41.5693 22.3457 41.6196 22.2244C41.6698 22.1031 41.7435 21.9928 41.8363 21.9L57.6833 6.053C57.7762 5.96016 57.8864 5.88651 58.0077 5.83626C58.129 5.78601 58.259 5.76015 58.3903 5.76015C58.5216 5.76015 58.6516 5.78601 58.7729 5.83626C58.8942 5.88651 59.0045 5.96016 59.0973 6.053C59.1902 6.14584 59.2638 6.25607 59.314 6.37737C59.3643 6.49868 59.3902 6.6287 59.3902 6.76C59.3902 6.8913 59.3643 7.02132 59.314 7.14263C59.2638 7.26393 59.1902 7.37416 59.0973 7.467Z"/>
<path d="M32.2313 11.523V9.17C32.2313 8.90478 32.3367 8.65043 32.5242 8.46289C32.7117 8.27536 32.9661 8.17 33.2313 8.17C33.4965 8.17 33.7509 8.27536 33.9384 8.46289C34.126 8.65043 34.2313 8.90478 34.2313 9.17V11.523C34.2313 11.7882 34.126 12.0426 33.9384 12.2301C33.7509 12.4176 33.4965 12.523 33.2313 12.523C32.9661 12.523 32.7117 12.4176 32.5242 12.2301C32.3367 12.0426 32.2313 11.7882 32.2313 11.523Z"/>
<path d="M3.70731 43.383C3.42031 43.097 3.33331 42.667 3.48731 42.292C3.64131 41.918 4.00731 41.672 4.41231 41.672H11.5273V9.17C11.5273 8.90478 11.6327 8.65043 11.8202 8.46289C12.0077 8.27536 12.2621 8.17 12.5273 8.17C12.7925 8.17 13.0469 8.27536 13.2344 8.46289C13.422 8.65043 13.5273 8.90478 13.5273 9.17V42.672C13.5273 42.9372 13.422 43.1916 13.2344 43.3791C13.0469 43.5666 12.7925 43.672 12.5273 43.672H6.83931L22.8793 59.591L38.9193 43.672H33.2313C32.9661 43.672 32.7117 43.5666 32.5242 43.3791C32.3367 43.1916 32.2313 42.9372 32.2313 42.672V17.018C32.2313 16.7528 32.3367 16.4984 32.5242 16.3109C32.7117 16.1234 32.9661 16.018 33.2313 16.018C33.4965 16.018 33.7509 16.1234 33.9384 16.3109C34.126 16.4984 34.2313 16.7528 34.2313 17.018V41.673H41.3463C41.5447 41.6724 41.7388 41.7308 41.9039 41.8409C42.069 41.951 42.1975 42.1078 42.2731 42.2912C42.3488 42.4747 42.368 42.6765 42.3285 42.8709C42.289 43.0653 42.1925 43.2436 42.0513 43.383L23.5843 61.711C23.3969 61.8973 23.1435 62.0018 22.8793 62.0018C22.6151 62.0018 22.3617 61.8973 22.1743 61.711L3.70731 43.383Z"/>
<path d="M5.61231 17.135V3C5.61231 2.73478 5.71767 2.48043 5.9052 2.29289C6.09274 2.10536 6.34709 2 6.61231 2C6.87753 2 7.13188 2.10536 7.31942 2.29289C7.50695 2.48043 7.61231 2.73478 7.61231 3V17.135C7.61231 17.4002 7.50695 17.6546 7.31942 17.8421C7.13188 18.0296 6.87753 18.135 6.61231 18.135C6.34709 18.135 6.09274 18.0296 5.9052 17.8421C5.71767 17.6546 5.61231 17.4002 5.61231 17.135Z"/>
<path d="M25.9182 28.016V13.88C25.9182 13.6148 26.0236 13.3604 26.2111 13.1729C26.3986 12.9854 26.653 12.88 26.9182 12.88C27.1834 12.88 27.4378 12.9854 27.6253 13.1729C27.8129 13.3604 27.9182 13.6148 27.9182 13.88V28.016C27.9182 28.2812 27.8129 28.5356 27.6253 28.7231C27.4378 28.9106 27.1834 29.016 26.9182 29.016C26.653 29.016 26.3986 28.9106 26.2111 28.7231C26.0236 28.5356 25.9182 28.2812 25.9182 28.016Z"/>
</mask>
<path fill-rule="evenodd" clip-rule="evenodd" d="M40.3463 9.011C40.3463 7.823 40.8093 6.706 41.6493 5.866C43.3823 4.133 46.2053 4.132 47.9393 5.866C49.6733 7.6 49.6733 10.422 47.9393 12.156C47.0993 12.996 45.9823 13.459 44.7943 13.459C43.6063 13.459 42.4893 12.996 41.6493 12.156C40.8093 11.316 40.3463 10.199 40.3463 9.011ZM47.2415 9.011C47.2415 8.36191 46.9839 7.73935 46.5253 7.28C46.0473 6.803 45.4213 6.564 44.7943 6.564C44.1673 6.564 43.5403 6.803 43.0633 7.28C42.6013 7.742 42.3463 8.357 42.3463 9.011C42.3463 9.665 42.6013 10.28 43.0633 10.742C43.9883 11.667 45.6003 11.667 46.5253 10.742C46.9839 10.2827 47.2415 9.66009 47.2415 9.011Z" fill="url(#paint0_linear_16147_9390)"/>
<path fill-rule="evenodd" clip-rule="evenodd" d="M57.8426 24.467C57.3029 24.6901 56.7243 24.8043 56.1403 24.803C55.5563 24.8043 54.9777 24.6901 54.438 24.467C53.8983 24.2439 53.408 23.9163 52.9953 23.503C52.1625 22.6682 51.6948 21.5372 51.6948 20.358C51.6948 19.1788 52.1625 18.0478 52.9953 17.213C53.8353 16.373 54.9523 15.91 56.1403 15.91C57.3283 15.91 58.4453 16.373 59.2853 17.213C60.1253 18.053 60.5883 19.17 60.5883 20.358C60.5883 21.546 60.1253 22.663 59.2853 23.503C58.8727 23.9163 58.3824 24.2439 57.8426 24.467ZM56.1403 17.91C55.4863 17.91 54.8713 18.165 54.4093 18.627C53.9507 19.0863 53.6931 19.7089 53.6931 20.358C53.6931 21.0071 53.9507 21.6297 54.4093 22.089C54.8687 22.5476 55.4912 22.8052 56.1403 22.8052C56.7894 22.8052 57.412 22.5476 57.8713 22.089C58.3333 21.627 58.5883 21.012 58.5883 20.358C58.5883 19.704 58.3333 19.089 57.8713 18.627C57.4093 18.165 56.7943 17.91 56.1403 17.91Z" fill="url(#paint1_linear_16147_9390)"/>
<path d="M59.0973 7.467L43.2503 23.314C43.1575 23.4068 43.0472 23.4805 42.9259 23.5307C42.8046 23.581 42.6746 23.6068 42.5433 23.6068C42.412 23.6068 42.282 23.581 42.1607 23.5307C42.0394 23.4805 41.9292 23.4068 41.8363 23.314C41.7435 23.2212 41.6698 23.1109 41.6196 22.9896C41.5693 22.8683 41.5435 22.7383 41.5435 22.607C41.5435 22.4757 41.5693 22.3457 41.6196 22.2244C41.6698 22.1031 41.7435 21.9928 41.8363 21.9L57.6833 6.053C57.7762 5.96016 57.8864 5.88651 58.0077 5.83626C58.129 5.78601 58.259 5.76015 58.3903 5.76015C58.5216 5.76015 58.6516 5.78601 58.7729 5.83626C58.8942 5.88651 59.0045 5.96016 59.0973 6.053C59.1902 6.14584 59.2638 6.25607 59.314 6.37737C59.3643 6.49868 59.3902 6.6287 59.3902 6.76C59.3902 6.8913 59.3643 7.02132 59.314 7.14263C59.2638 7.26393 59.1902 7.37416 59.0973 7.467Z" fill="url(#paint2_linear_16147_9390)"/>
<path d="M32.2313 11.523V9.17C32.2313 8.90478 32.3367 8.65043 32.5242 8.46289C32.7117 8.27536 32.9661 8.17 33.2313 8.17C33.4965 8.17 33.7509 8.27536 33.9384 8.46289C34.126 8.65043 34.2313 8.90478 34.2313 9.17V11.523C34.2313 11.7882 34.126 12.0426 33.9384 12.2301C33.7509 12.4176 33.4965 12.523 33.2313 12.523C32.9661 12.523 32.7117 12.4176 32.5242 12.2301C32.3367 12.0426 32.2313 11.7882 32.2313 11.523Z" fill="url(#paint3_linear_16147_9390)"/>
<path d="M3.70731 43.383C3.42031 43.097 3.33331 42.667 3.48731 42.292C3.64131 41.918 4.00731 41.672 4.41231 41.672H11.5273V9.17C11.5273 8.90478 11.6327 8.65043 11.8202 8.46289C12.0077 8.27536 12.2621 8.17 12.5273 8.17C12.7925 8.17 13.0469 8.27536 13.2344 8.46289C13.422 8.65043 13.5273 8.90478 13.5273 9.17V42.672C13.5273 42.9372 13.422 43.1916 13.2344 43.3791C13.0469 43.5666 12.7925 43.672 12.5273 43.672H6.83931L22.8793 59.591L38.9193 43.672H33.2313C32.9661 43.672 32.7117 43.5666 32.5242 43.3791C32.3367 43.1916 32.2313 42.9372 32.2313 42.672V17.018C32.2313 16.7528 32.3367 16.4984 32.5242 16.3109C32.7117 16.1234 32.9661 16.018 33.2313 16.018C33.4965 16.018 33.7509 16.1234 33.9384 16.3109C34.126 16.4984 34.2313 16.7528 34.2313 17.018V41.673H41.3463C41.5447 41.6724 41.7388 41.7308 41.9039 41.8409C42.069 41.951 42.1975 42.1078 42.2731 42.2912C42.3488 42.4747 42.368 42.6765 42.3285 42.8709C42.289 43.0653 42.1925 43.2436 42.0513 43.383L23.5843 61.711C23.3969 61.8973 23.1435 62.0018 22.8793 62.0018C22.6151 62.0018 22.3617 61.8973 22.1743 61.711L3.70731 43.383Z" fill="url(#paint4_linear_16147_9390)"/>
<path d="M5.61231 17.135V3C5.61231 2.73478 5.71767 2.48043 5.9052 2.29289C6.09274 2.10536 6.34709 2 6.61231 2C6.87753 2 7.13188 2.10536 7.31942 2.29289C7.50695 2.48043 7.61231 2.73478 7.61231 3V17.135C7.61231 17.4002 7.50695 17.6546 7.31942 17.8421C7.13188 18.0296 6.87753 18.135 6.61231 18.135C6.34709 18.135 6.09274 18.0296 5.9052 17.8421C5.71767 17.6546 5.61231 17.4002 5.61231 17.135Z" fill="url(#paint5_linear_16147_9390)"/>
<path d="M25.9182 28.016V13.88C25.9182 13.6148 26.0236 13.3604 26.2111 13.1729C26.3986 12.9854 26.653 12.88 26.9182 12.88C27.1834 12.88 27.4378 12.9854 27.6253 13.1729C27.8129 13.3604 27.9182 13.6148 27.9182 13.88V28.016C27.9182 28.2812 27.8129 28.5356 27.6253 28.7231C27.4378 28.9106 27.1834 29.016 26.9182 29.016C26.653 29.016 26.3986 28.9106 26.2111 28.7231C26.0236 28.5356 25.9182 28.2812 25.9182 28.016Z" fill="url(#paint6_linear_16147_9390)"/>
<path fill-rule="evenodd" clip-rule="evenodd" d="M40.3463 9.011C40.3463 7.823 40.8093 6.706 41.6493 5.866C43.3823 4.133 46.2053 4.132 47.9393 5.866C49.6733 7.6 49.6733 10.422 47.9393 12.156C47.0993 12.996 45.9823 13.459 44.7943 13.459C43.6063 13.459 42.4893 12.996 41.6493 12.156C40.8093 11.316 40.3463 10.199 40.3463 9.011ZM47.2415 9.011C47.2415 8.36191 46.9839 7.73935 46.5253 7.28C46.0473 6.803 45.4213 6.564 44.7943 6.564C44.1673 6.564 43.5403 6.803 43.0633 7.28C42.6013 7.742 42.3463 8.357 42.3463 9.011C42.3463 9.665 42.6013 10.28 43.0633 10.742C43.9883 11.667 45.6003 11.667 46.5253 10.742C46.9839 10.2827 47.2415 9.66009 47.2415 9.011Z" stroke="url(#paint7_linear_16147_9390)" stroke-width="0.4" mask="url(#path-1-outside-1_16147_9390)"/>
<path fill-rule="evenodd" clip-rule="evenodd" d="M57.8426 24.467C57.3029 24.6901 56.7243 24.8043 56.1403 24.803C55.5563 24.8043 54.9777 24.6901 54.438 24.467C53.8983 24.2439 53.408 23.9163 52.9953 23.503C52.1625 22.6682 51.6948 21.5372 51.6948 20.358C51.6948 19.1788 52.1625 18.0478 52.9953 17.213C53.8353 16.373 54.9523 15.91 56.1403 15.91C57.3283 15.91 58.4453 16.373 59.2853 17.213C60.1253 18.053 60.5883 19.17 60.5883 20.358C60.5883 21.546 60.1253 22.663 59.2853 23.503C58.8727 23.9163 58.3824 24.2439 57.8426 24.467ZM56.1403 17.91C55.4863 17.91 54.8713 18.165 54.4093 18.627C53.9507 19.0863 53.6931 19.7089 53.6931 20.358C53.6931 21.0071 53.9507 21.6297 54.4093 22.089C54.8687 22.5476 55.4912 22.8052 56.1403 22.8052C56.7894 22.8052 57.412 22.5476 57.8713 22.089C58.3333 21.627 58.5883 21.012 58.5883 20.358C58.5883 19.704 58.3333 19.089 57.8713 18.627C57.4093 18.165 56.7943 17.91 56.1403 17.91Z" stroke="url(#paint8_linear_16147_9390)" stroke-width="0.4" mask="url(#path-1-outside-1_16147_9390)"/>
<path d="M59.0973 7.467L43.2503 23.314C43.1575 23.4068 43.0472 23.4805 42.9259 23.5307C42.8046 23.581 42.6746 23.6068 42.5433 23.6068C42.412 23.6068 42.282 23.581 42.1607 23.5307C42.0394 23.4805 41.9292 23.4068 41.8363 23.314C41.7435 23.2212 41.6698 23.1109 41.6196 22.9896C41.5693 22.8683 41.5435 22.7383 41.5435 22.607C41.5435 22.4757 41.5693 22.3457 41.6196 22.2244C41.6698 22.1031 41.7435 21.9928 41.8363 21.9L57.6833 6.053C57.7762 5.96016 57.8864 5.88651 58.0077 5.83626C58.129 5.78601 58.259 5.76015 58.3903 5.76015C58.5216 5.76015 58.6516 5.78601 58.7729 5.83626C58.8942 5.88651 59.0045 5.96016 59.0973 6.053C59.1902 6.14584 59.2638 6.25607 59.314 6.37737C59.3643 6.49868 59.3902 6.6287 59.3902 6.76C59.3902 6.8913 59.3643 7.02132 59.314 7.14263C59.2638 7.26393 59.1902 7.37416 59.0973 7.467Z" stroke="url(#paint9_linear_16147_9390)" stroke-width="0.4" mask="url(#path-1-outside-1_16147_9390)"/>
<path d="M32.2313 11.523V9.17C32.2313 8.90478 32.3367 8.65043 32.5242 8.46289C32.7117 8.27536 32.9661 8.17 33.2313 8.17C33.4965 8.17 33.7509 8.27536 33.9384 8.46289C34.126 8.65043 34.2313 8.90478 34.2313 9.17V11.523C34.2313 11.7882 34.126 12.0426 33.9384 12.2301C33.7509 12.4176 33.4965 12.523 33.2313 12.523C32.9661 12.523 32.7117 12.4176 32.5242 12.2301C32.3367 12.0426 32.2313 11.7882 32.2313 11.523Z" stroke="url(#paint10_linear_16147_9390)" stroke-width="0.4" mask="url(#path-1-outside-1_16147_9390)"/>
<path d="M3.70731 43.383C3.42031 43.097 3.33331 42.667 3.48731 42.292C3.64131 41.918 4.00731 41.672 4.41231 41.672H11.5273V9.17C11.5273 8.90478 11.6327 8.65043 11.8202 8.46289C12.0077 8.27536 12.2621 8.17 12.5273 8.17C12.7925 8.17 13.0469 8.27536 13.2344 8.46289C13.422 8.65043 13.5273 8.90478 13.5273 9.17V42.672C13.5273 42.9372 13.422 43.1916 13.2344 43.3791C13.0469 43.5666 12.7925 43.672 12.5273 43.672H6.83931L22.8793 59.591L38.9193 43.672H33.2313C32.9661 43.672 32.7117 43.5666 32.5242 43.3791C32.3367 43.1916 32.2313 42.9372 32.2313 42.672V17.018C32.2313 16.7528 32.3367 16.4984 32.5242 16.3109C32.7117 16.1234 32.9661 16.018 33.2313 16.018C33.4965 16.018 33.7509 16.1234 33.9384 16.3109C34.126 16.4984 34.2313 16.7528 34.2313 17.018V41.673H41.3463C41.5447 41.6724 41.7388 41.7308 41.9039 41.8409C42.069 41.951 42.1975 42.1078 42.2731 42.2912C42.3488 42.4747 42.368 42.6765 42.3285 42.8709C42.289 43.0653 42.1925 43.2436 42.0513 43.383L23.5843 61.711C23.3969 61.8973 23.1435 62.0018 22.8793 62.0018C22.6151 62.0018 22.3617 61.8973 22.1743 61.711L3.70731 43.383Z" stroke="url(#paint11_linear_16147_9390)" stroke-width="0.4" mask="url(#path-1-outside-1_16147_9390)"/>
<path d="M5.61231 17.135V3C5.61231 2.73478 5.71767 2.48043 5.9052 2.29289C6.09274 2.10536 6.34709 2 6.61231 2C6.87753 2 7.13188 2.10536 7.31942 2.29289C7.50695 2.48043 7.61231 2.73478 7.61231 3V17.135C7.61231 17.4002 7.50695 17.6546 7.31942 17.8421C7.13188 18.0296 6.87753 18.135 6.61231 18.135C6.34709 18.135 6.09274 18.0296 5.9052 17.8421C5.71767 17.6546 5.61231 17.4002 5.61231 17.135Z" stroke="url(#paint12_linear_16147_9390)" stroke-width="0.4" mask="url(#path-1-outside-1_16147_9390)"/>
<path d="M25.9182 28.016V13.88C25.9182 13.6148 26.0236 13.3604 26.2111 13.1729C26.3986 12.9854 26.653 12.88 26.9182 12.88C27.1834 12.88 27.4378 12.9854 27.6253 13.1729C27.8129 13.3604 27.9182 13.6148 27.9182 13.88V28.016C27.9182 28.2812 27.8129 28.5356 27.6253 28.7231C27.4378 28.9106 27.1834 29.016 26.9182 29.016C26.653 29.016 26.3986 28.9106 26.2111 28.7231C26.0236 28.5356 25.9182 28.2812 25.9182 28.016Z" stroke="url(#paint13_linear_16147_9390)" stroke-width="0.4" mask="url(#path-1-outside-1_16147_9390)"/>
<defs>
<linearGradient id="paint0_linear_16147_9390" x1="67.288" y1="67.5686" x2="-12.1363" y2="42.5602" gradientUnits="userSpaceOnUse">
<stop stop-color="#2BC016"/>
<stop offset="0.288293" stop-color="#26A96C"/>
<stop offset="0.994275" stop-color="#387D7A"/>
</linearGradient>
<linearGradient id="paint1_linear_16147_9390" x1="67.288" y1="67.5686" x2="-12.1363" y2="42.5602" gradientUnits="userSpaceOnUse">
<stop stop-color="#2BC016"/>
<stop offset="0.288293" stop-color="#26A96C"/>
<stop offset="0.994275" stop-color="#387D7A"/>
</linearGradient>
<linearGradient id="paint2_linear_16147_9390" x1="67.288" y1="67.5686" x2="-12.1363" y2="42.5602" gradientUnits="userSpaceOnUse">
<stop stop-color="#2BC016"/>
<stop offset="0.288293" stop-color="#26A96C"/>
<stop offset="0.994275" stop-color="#387D7A"/>
</linearGradient>
<linearGradient id="paint3_linear_16147_9390" x1="67.288" y1="67.5686" x2="-12.1363" y2="42.5602" gradientUnits="userSpaceOnUse">
<stop stop-color="#2BC016"/>
<stop offset="0.288293" stop-color="#26A96C"/>
<stop offset="0.994275" stop-color="#387D7A"/>
</linearGradient>
<linearGradient id="paint4_linear_16147_9390" x1="67.288" y1="67.5686" x2="-12.1363" y2="42.5602" gradientUnits="userSpaceOnUse">
<stop stop-color="#2BC016"/>
<stop offset="0.288293" stop-color="#26A96C"/>
<stop offset="0.994275" stop-color="#387D7A"/>
</linearGradient>
<linearGradient id="paint5_linear_16147_9390" x1="67.288" y1="67.5686" x2="-12.1363" y2="42.5602" gradientUnits="userSpaceOnUse">
<stop stop-color="#2BC016"/>
<stop offset="0.288293" stop-color="#26A96C"/>
<stop offset="0.994275" stop-color="#387D7A"/>
</linearGradient>
<linearGradient id="paint6_linear_16147_9390" x1="67.288" y1="67.5686" x2="-12.1363" y2="42.5602" gradientUnits="userSpaceOnUse">
<stop stop-color="#2BC016"/>
<stop offset="0.288293" stop-color="#26A96C"/>
<stop offset="0.994275" stop-color="#387D7A"/>
</linearGradient>
<linearGradient id="paint7_linear_16147_9390" x1="67.288" y1="67.5686" x2="-12.1363" y2="42.5602" gradientUnits="userSpaceOnUse">
<stop stop-color="#2BC016"/>
<stop offset="0.288293" stop-color="#26A96C"/>
<stop offset="0.994275" stop-color="#387D7A"/>
</linearGradient>
<linearGradient id="paint8_linear_16147_9390" x1="67.288" y1="67.5686" x2="-12.1363" y2="42.5602" gradientUnits="userSpaceOnUse">
<stop stop-color="#2BC016"/>
<stop offset="0.288293" stop-color="#26A96C"/>
<stop offset="0.994275" stop-color="#387D7A"/>
</linearGradient>
<linearGradient id="paint9_linear_16147_9390" x1="67.288" y1="67.5686" x2="-12.1363" y2="42.5602" gradientUnits="userSpaceOnUse">
<stop stop-color="#2BC016"/>
<stop offset="0.288293" stop-color="#26A96C"/>
<stop offset="0.994275" stop-color="#387D7A"/>
</linearGradient>
<linearGradient id="paint10_linear_16147_9390" x1="67.288" y1="67.5686" x2="-12.1363" y2="42.5602" gradientUnits="userSpaceOnUse">
<stop stop-color="#2BC016"/>
<stop offset="0.288293" stop-color="#26A96C"/>
<stop offset="0.994275" stop-color="#387D7A"/>
</linearGradient>
<linearGradient id="paint11_linear_16147_9390" x1="67.288" y1="67.5686" x2="-12.1363" y2="42.5602" gradientUnits="userSpaceOnUse">
<stop stop-color="#2BC016"/>
<stop offset="0.288293" stop-color="#26A96C"/>
<stop offset="0.994275" stop-color="#387D7A"/>
</linearGradient>
<linearGradient id="paint12_linear_16147_9390" x1="67.288" y1="67.5686" x2="-12.1363" y2="42.5602" gradientUnits="userSpaceOnUse">
<stop stop-color="#2BC016"/>
<stop offset="0.288293" stop-color="#26A96C"/>
<stop offset="0.994275" stop-color="#387D7A"/>
</linearGradient>
<linearGradient id="paint13_linear_16147_9390" x1="67.288" y1="67.5686" x2="-12.1363" y2="42.5602" gradientUnits="userSpaceOnUse">
<stop stop-color="#2BC016"/>
<stop offset="0.288293" stop-color="#26A96C"/>
<stop offset="0.994275" stop-color="#387D7A"/>
</linearGradient>
</defs>
</svg>
