<svg width="285" height="343" viewBox="0 0 285 343" fill="none" xmlns="http://www.w3.org/2000/svg">
<path d="M190.684 -17.7153C206.533 -24.4495 221.759 -28.4304 233.554 -29.4334C239.454 -29.9352 244.467 -29.6891 248.26 -28.6888C252.061 -27.6864 254.548 -25.9538 255.568 -23.5534C256.588 -21.153 256.109 -18.1602 254.192 -14.7281C252.279 -11.3032 248.977 -7.52427 244.52 -3.62549C235.611 4.16831 222.176 12.3648 206.327 19.099C190.478 25.8333 175.252 29.8141 163.457 30.8171C157.557 31.3189 152.544 31.0728 148.751 30.0725C144.95 29.0701 142.463 27.3375 141.443 24.9371C140.423 22.5368 140.902 19.5439 142.819 16.1118C144.732 12.6869 148.034 8.90799 152.491 5.00921C161.4 -2.78459 174.834 -10.9811 190.684 -17.7153Z" fill="white" fill-opacity="0.1" stroke="url(#paint0_linear_16147_9309)"/>
<path d="M126.437 304.371C161.114 290.793 194.304 283.142 219.923 281.737C232.735 281.034 243.624 281.895 251.851 284.339C260.084 286.785 265.562 290.788 267.722 296.303C269.882 301.818 268.578 308.476 264.195 315.862C259.815 323.242 252.406 331.268 242.523 339.452C222.762 355.816 193.201 372.735 158.524 386.313C123.847 399.891 90.657 407.542 65.0384 408.948C52.2262 409.65 41.3368 408.789 33.1105 406.345C24.8766 403.899 19.3988 399.896 17.2392 394.381C15.0795 388.866 16.383 382.209 20.7664 374.822C25.1458 367.442 32.555 359.416 42.4378 351.232C62.1989 334.869 91.7596 317.95 126.437 304.371Z" fill="white" fill-opacity="0.1" stroke="url(#paint1_linear_16147_9309)"/>
<defs>
<linearGradient id="paint0_linear_16147_9309" x1="192.028" y1="-10.8902" x2="212.624" y2="13.8423" gradientUnits="userSpaceOnUse">
<stop stop-color="white" stop-opacity="0"/>
<stop offset="1" stop-color="white"/>
</linearGradient>
<linearGradient id="paint1_linear_16147_9309" x1="129.158" y1="319.804" x2="172.373" y2="374.664" gradientUnits="userSpaceOnUse">
<stop stop-color="white" stop-opacity="0"/>
<stop offset="1" stop-color="white"/>
</linearGradient>
</defs>
</svg>
