<svg width="320" height="295" viewBox="0 0 320 295" fill="none" xmlns="http://www.w3.org/2000/svg">
<path d="M-16.0255 -31.0166C-18.4266 -49.277 -18.1693 -66.1077 -15.8251 -78.5515C-14.6525 -84.7762 -12.963 -89.8745 -10.8436 -93.5012C-8.72 -97.1351 -6.21521 -99.2121 -3.4348 -99.5777C-0.654391 -99.9434 2.30215 -98.5847 5.29294 -95.6235C8.27781 -92.6681 11.2279 -88.18 13.9698 -82.4701C19.4512 -71.0555 24.0507 -54.8636 26.4518 -36.6032C28.8529 -18.3428 28.5956 -1.51208 26.2514 10.9317C25.0788 17.1564 23.3892 22.2548 21.2699 25.8815C19.1463 29.5153 16.6415 31.5923 13.8611 31.958C11.0807 32.3236 8.12413 30.965 5.13334 28.0037C2.14847 25.0483 -0.801635 20.5602 -3.54355 14.8503C-9.02491 3.43572 -13.6244 -12.7562 -16.0255 -31.0166Z" fill="white" fill-opacity="0.1" stroke="url(#paint0_linear_16147_10242)"/>
<path d="M297.429 127.387C293.366 87.7691 294.985 51.3791 300.873 24.5772C303.817 11.1735 307.823 0.196363 312.699 -7.58417C317.58 -15.3714 323.28 -19.8797 329.595 -20.5274C335.911 -21.1752 342.407 -17.9177 348.766 -11.2831C355.12 -4.65422 361.27 5.28137 366.873 17.8084C378.077 42.8575 387.047 78.1616 391.109 117.78C395.171 157.398 393.552 193.788 387.665 220.59C384.72 233.994 380.714 244.971 375.838 252.751C370.958 260.539 365.258 265.047 358.942 265.695C352.626 266.342 346.13 263.085 339.771 256.45C333.417 249.822 327.267 239.886 321.664 227.359C310.46 202.31 301.491 167.006 297.429 127.387Z" fill="white" fill-opacity="0.1" stroke="url(#paint1_linear_16147_10242)"/>
<defs>
<linearGradient id="paint0_linear_16147_10242" x1="-8.57443" y1="-30.4519" x2="22.8043" y2="-44.5919" gradientUnits="userSpaceOnUse">
<stop stop-color="white" stop-opacity="0"/>
<stop offset="1" stop-color="white"/>
</linearGradient>
<linearGradient id="paint1_linear_16147_10242" x1="314.142" y1="128.999" x2="383.038" y2="100.18" gradientUnits="userSpaceOnUse">
<stop stop-color="white" stop-opacity="0"/>
<stop offset="1" stop-color="white"/>
</linearGradient>
</defs>
</svg>
