<svg width="168" height="653" viewBox="0 0 168 653" fill="none" xmlns="http://www.w3.org/2000/svg">
<ellipse cx="111.29" cy="279.29" rx="39.0056" ry="118.382" transform="rotate(-135 111.29 279.29)" fill="white" fill-opacity="0.1"/>
<path d="M84.0623 252.062C107.151 228.974 131.123 211.17 151.203 201.042C161.246 195.977 170.29 192.846 177.746 191.92C185.211 190.992 190.994 192.283 194.645 195.935C198.297 199.586 199.588 205.369 198.66 212.833C197.734 220.29 194.602 229.334 189.537 239.376C179.41 259.457 161.606 283.429 138.518 306.518C115.429 329.606 91.4568 347.41 71.3764 357.538C61.3337 362.602 52.2903 365.734 44.8334 366.66C37.3686 367.588 31.5861 366.297 27.9345 362.645C24.2829 358.994 22.9922 353.211 23.9196 345.746C24.8459 338.29 27.9774 329.246 33.0424 319.203C43.1697 299.123 60.9738 275.151 84.0623 252.062Z" stroke="url(#paint0_linear_16147_9854)" stroke-opacity="0.5"/>
<ellipse cx="22.0571" cy="66.9436" rx="22.0571" ry="66.9436" transform="matrix(-0.707107 0.707107 0.707107 0.707107 142.193 495)" fill="white" fill-opacity="0.1"/>
<path d="M158.69 573.176C171.734 586.221 185.272 596.273 196.601 601.987C202.268 604.845 207.357 606.605 211.54 607.124C215.73 607.645 218.919 606.913 220.916 604.916C222.912 602.919 223.645 599.731 223.124 595.54C222.604 591.357 220.845 586.269 217.987 580.601C212.273 569.272 202.221 555.734 189.176 542.69C176.132 529.645 162.594 519.593 151.264 513.879C145.597 511.021 140.508 509.261 136.326 508.742C132.135 508.221 128.947 508.953 126.95 510.95C124.953 512.947 124.221 516.136 124.742 520.326C125.261 524.509 127.021 529.597 129.879 535.265C135.593 546.594 145.645 560.132 158.69 573.176Z" stroke="url(#paint1_linear_16147_9854)" stroke-opacity="0.5"/>
<defs>
<linearGradient id="paint0_linear_16147_9854" x1="91.6218" y1="263.458" x2="145.591" y2="292.35" gradientUnits="userSpaceOnUse">
<stop stop-color="white" stop-opacity="0"/>
<stop offset="1" stop-color="white"/>
</linearGradient>
<linearGradient id="paint1_linear_16147_9854" x1="162.811" y1="566.886" x2="193.33" y2="550.548" gradientUnits="userSpaceOnUse">
<stop stop-color="white" stop-opacity="0"/>
<stop offset="1" stop-color="white"/>
</linearGradient>
</defs>
</svg>
