<svg width="1750" height="801" viewBox="0 0 1750 801" fill="none" xmlns="http://www.w3.org/2000/svg">
<ellipse cx="877.513" cy="471.353" rx="20.5732" ry="62.4397" transform="rotate(-113.021 877.513 471.353)" fill="white" fill-opacity="0.1"/>
<path d="M869.663 452.878C885.497 446.15 900.711 442.183 912.501 441.196C918.398 440.702 923.41 440.957 927.204 441.967C931.005 442.978 933.495 444.72 934.52 447.13C935.544 449.541 935.069 452.543 933.158 455.981C931.251 459.413 927.956 463.197 923.507 467.1C914.613 474.901 901.196 483.1 885.362 489.827C869.529 496.555 854.314 500.523 842.524 501.51C836.627 502.003 831.615 501.748 827.822 500.739C824.02 499.728 821.53 497.986 820.506 495.575C819.481 493.165 819.956 490.163 821.867 486.724C823.774 483.293 827.069 479.509 831.518 475.606C840.412 467.804 853.829 459.606 869.663 452.878Z" stroke="url(#paint0_linear_16126_385)" stroke-opacity="0.5"/>
<ellipse cx="1422.41" cy="229.403" rx="72.8396" ry="221.069" transform="rotate(-111.375 1422.41 229.403)" fill="white" fill-opacity="0.1"/>
<path d="M1396.04 162.04C1452.86 139.804 1507.24 127.268 1549.23 124.966C1570.23 123.814 1588.1 125.223 1601.62 129.238C1615.14 133.256 1624.22 139.852 1627.81 149.011C1631.39 158.171 1629.2 169.177 1622 181.308C1614.8 193.432 1602.63 206.597 1586.43 220.006C1554.03 246.819 1505.59 274.531 1448.78 296.767C1391.96 319.003 1337.58 331.538 1295.59 333.841C1274.59 334.992 1256.72 333.583 1243.2 329.568C1229.68 325.551 1220.6 318.954 1217.01 309.795C1213.43 300.636 1215.62 289.629 1222.82 277.498C1230.02 265.374 1242.19 252.209 1258.39 238.8C1290.79 211.987 1339.23 184.275 1396.04 162.04Z" stroke="url(#paint1_linear_16126_385)" stroke-opacity="0.5"/>
<ellipse cx="111.29" cy="427.29" rx="39.0056" ry="118.382" transform="rotate(-135 111.29 427.29)" fill="white" fill-opacity="0.1"/>
<path d="M84.0626 400.062C107.151 376.974 131.123 359.17 151.204 349.043C161.246 343.978 170.29 340.846 177.747 339.92C185.211 338.992 190.994 340.283 194.646 343.935C198.297 347.586 199.588 353.369 198.66 360.834C197.734 368.29 194.603 377.334 189.538 387.377C179.41 407.457 161.606 431.429 138.518 454.518C115.429 477.606 91.4571 495.41 71.3767 505.538C61.3339 510.603 52.2906 513.734 44.8337 514.66C37.3688 515.588 31.5864 514.297 27.9348 510.645C24.2831 506.994 22.9925 501.211 23.9198 493.747C24.8462 486.29 27.9777 477.246 33.0426 467.204C43.1699 447.123 60.9741 423.151 84.0626 400.062Z" stroke="url(#paint2_linear_16126_385)" stroke-opacity="0.5"/>
<ellipse cx="136.679" cy="63.0077" rx="34.3334" ry="104.202" transform="rotate(-73.186 136.679 63.0077)" fill="white" fill-opacity="0.1"/>
<path d="M146.466 30.6208C173.973 38.9332 197.747 50.1271 213.946 61.4913C222.048 67.1749 228.231 72.8846 232.045 78.277C235.863 83.676 237.254 88.6793 235.947 93.0052C234.64 97.331 230.71 100.726 224.541 103.107C218.38 105.486 210.069 106.815 200.176 107.061C180.394 107.552 154.4 103.707 126.892 95.3946C99.3841 87.0822 75.6105 75.8883 59.4113 64.5241C51.3094 58.8405 45.126 53.1308 41.3126 47.7384C37.4945 42.3394 36.1029 37.3361 37.4101 33.0102C38.7173 28.6844 42.6469 25.289 48.8159 22.908C54.9776 20.5299 63.2881 19.2001 73.1818 18.9544C92.9635 18.4632 118.958 22.3083 146.466 30.6208Z" stroke="url(#paint3_linear_16126_385)" stroke-opacity="0.5"/>
<ellipse cx="22.0571" cy="66.9436" rx="22.0571" ry="66.9436" transform="matrix(-0.707107 0.707107 0.707107 0.707107 142.193 643)" fill="white" fill-opacity="0.1"/>
<path d="M158.69 721.176C171.734 734.221 185.272 744.273 196.601 749.987C202.268 752.845 207.357 754.605 211.54 755.124C215.73 755.645 218.919 754.913 220.916 752.916C222.912 750.919 223.645 747.731 223.124 743.54C222.604 739.357 220.845 734.269 217.987 728.601C212.273 717.272 202.221 703.734 189.176 690.69C176.132 677.645 162.594 667.593 151.264 661.879C145.597 659.021 140.508 657.261 136.326 656.742C132.135 656.221 128.947 656.953 126.95 658.95C124.953 660.947 124.221 664.136 124.742 668.326C125.261 672.509 127.021 677.597 129.879 683.265C135.593 694.594 145.645 708.132 158.69 721.176Z" stroke="url(#paint4_linear_16126_385)" stroke-opacity="0.5"/>
<ellipse cx="1362.29" cy="655.808" rx="70.3305" ry="213.454" transform="rotate(111.879 1362.29 655.808)" fill="white" fill-opacity="0.1"/>
<path d="M1336.27 720.609C1281.6 698.658 1235.07 671.492 1204.01 645.329C1188.49 632.246 1176.85 619.433 1170.01 607.668C1163.15 595.897 1161.14 585.257 1164.67 576.451C1168.21 567.645 1177.02 561.356 1190.11 557.592C1203.2 553.831 1220.46 552.622 1240.72 553.912C1281.25 556.492 1333.65 569.056 1388.31 591.007C1442.97 612.958 1489.51 640.124 1520.56 666.287C1536.09 679.37 1547.72 692.183 1554.57 703.948C1561.42 715.719 1563.44 726.359 1559.9 735.165C1556.37 743.971 1547.55 750.26 1534.46 754.024C1521.38 757.785 1504.11 758.994 1483.85 757.704C1443.33 755.124 1390.93 742.56 1336.27 720.609Z" stroke="url(#paint5_linear_16126_385)" stroke-opacity="0.5"/>
<ellipse cx="1655.42" cy="488.346" rx="29.8683" ry="90.6503" transform="rotate(116.642 1655.42 488.346)" fill="white" fill-opacity="0.1"/>
<path d="M1642.25 514.596C1619.91 503.388 1601.2 490.267 1589.01 478.126C1582.91 472.054 1578.46 466.248 1576 461.068C1573.53 455.882 1573.09 451.409 1574.84 447.921C1576.59 444.433 1580.44 442.113 1586.07 440.99C1591.7 439.869 1599.01 439.962 1607.52 441.22C1624.54 443.735 1646.25 450.888 1668.59 462.096C1690.93 473.304 1709.64 486.426 1721.83 498.566C1727.93 504.638 1732.38 510.445 1734.84 515.624C1737.31 520.811 1737.75 525.283 1736 528.771C1734.25 532.259 1730.4 534.579 1724.77 535.702C1719.14 536.824 1711.83 536.73 1703.32 535.472C1686.29 532.957 1664.59 525.804 1642.25 514.596Z" stroke="url(#paint6_linear_16126_385)" stroke-opacity="0.5"/>
<defs>
<linearGradient id="paint0_linear_16126_385" x1="871.018" y1="459.727" x2="891.711" y2="484.512" gradientUnits="userSpaceOnUse">
<stop stop-color="white" stop-opacity="0"/>
<stop offset="1" stop-color="white"/>
</linearGradient>
<linearGradient id="paint1_linear_16126_385" x1="1400.61" y1="187.598" x2="1471.32" y2="277.417" gradientUnits="userSpaceOnUse">
<stop stop-color="white" stop-opacity="0"/>
<stop offset="1" stop-color="white"/>
</linearGradient>
<linearGradient id="paint2_linear_16126_385" x1="91.6221" y1="411.458" x2="145.592" y2="440.35" gradientUnits="userSpaceOnUse">
<stop stop-color="white" stop-opacity="0"/>
<stop offset="1" stop-color="white"/>
</linearGradient>
<linearGradient id="paint3_linear_16126_385" x1="140.784" y1="41.1663" x2="140.807" y2="95.0499" gradientUnits="userSpaceOnUse">
<stop stop-color="white" stop-opacity="0"/>
<stop offset="1" stop-color="white"/>
</linearGradient>
<linearGradient id="paint4_linear_16126_385" x1="162.811" y1="714.886" x2="193.33" y2="698.548" gradientUnits="userSpaceOnUse">
<stop stop-color="white" stop-opacity="0"/>
<stop offset="1" stop-color="white"/>
</linearGradient>
<linearGradient id="paint5_linear_16126_385" x1="1349.96" y1="699.632" x2="1359.66" y2="589.68" gradientUnits="userSpaceOnUse">
<stop stop-color="white" stop-opacity="0"/>
<stop offset="1" stop-color="white"/>
</linearGradient>
<linearGradient id="paint6_linear_16126_385" x1="1648.66" y1="506.459" x2="1656.64" y2="460.267" gradientUnits="userSpaceOnUse">
<stop stop-color="white" stop-opacity="0"/>
<stop offset="1" stop-color="white"/>
</linearGradient>
</defs>
</svg>
