<svg width="338" height="332" viewBox="0 0 338 332" fill="none" xmlns="http://www.w3.org/2000/svg">
<path d="M126.661 208.973L145.271 228.436L32.5783 215.617L126.661 208.973Z" fill="white" fill-opacity="0.1"/>
<path d="M38.0262 215.733L143.955 227.783L126.462 209.488L38.0262 215.733Z" stroke="url(#paint0_linear_16446_49)" stroke-opacity="0.1"/>
<path d="M117.718 225.31L145.28 228.442L111.595 246.559L117.718 225.31Z" fill="white" fill-opacity="0.15"/>
<path d="M112.405 245.556L143.636 228.759L118.082 225.854L112.405 245.556Z" stroke="url(#paint1_linear_16446_49)" stroke-opacity="0.1"/>
<path d="M5.14658 211.811L143.898 172.36C144.759 172.11 145.676 172.134 146.523 172.428C147.37 172.722 148.105 173.271 148.626 174C149.148 174.729 149.43 175.602 149.435 176.499C149.44 177.395 149.166 178.271 148.652 179.005L127.829 209.122L33.7599 215.495L118.989 224.928L101.891 283.805C101.493 285.223 100.747 286.519 99.7201 287.575C98.6936 288.631 97.4195 289.414 96.0134 289.853C94.6074 290.292 93.1141 290.372 91.669 290.087C90.224 289.802 88.8731 289.161 87.7389 288.221L3.51448 219.356C2.90141 218.848 2.43963 218.181 2.17947 217.429C1.91931 216.676 1.87077 215.866 2.03913 215.088C2.2075 214.31 2.58629 213.593 3.13425 213.015C3.6822 212.437 4.37827 212.02 5.14658 211.811Z" fill="white" fill-opacity="0.2"/>
<path d="M5.28334 212.292L5.27809 212.293C4.5981 212.479 3.98204 212.847 3.49707 213.359L3.13431 213.015L3.49706 213.359C3.0121 213.87 2.67684 214.505 2.52784 215.194C2.37882 215.883 2.42179 216.599 2.65203 217.265C2.88203 217.931 3.29009 218.52 3.83179 218.97C3.83239 218.971 3.83299 218.971 3.83359 218.972L88.0554 287.834L88.0579 287.836C89.1279 288.723 90.4025 289.328 91.7658 289.597C93.1291 289.866 94.538 289.79 95.8645 289.376C97.191 288.962 98.3931 288.223 99.3615 287.227C100.33 286.23 101.034 285.007 101.41 283.67L101.411 283.665L118.343 225.36L33.7049 215.992L33.7261 214.996L127.555 208.64L148.241 178.721L148.242 178.718C148.697 178.069 148.939 177.294 148.935 176.501L149.434 176.499L148.935 176.501C148.931 175.708 148.681 174.936 148.22 174.291C147.758 173.646 147.108 173.16 146.359 172.901C145.61 172.641 144.799 172.619 144.037 172.84L144.035 172.841L5.28334 212.292Z" stroke="url(#paint2_linear_16446_49)" stroke-opacity="0.3"/>
<path d="M431.929 73.2816C431.948 73.0061 432.186 72.7977 432.461 72.8161C432.737 72.8346 432.945 73.0729 432.927 73.3484L431.929 73.2816ZM359.409 148.859L359.225 149.324L359.409 148.859ZM453.271 123.18L453.733 122.987L453.271 123.18ZM350.005 215.562L350.153 215.085L350.005 215.562ZM237.385 192.246L237.829 192.475L237.385 192.246ZM432.927 73.3484C432.894 73.834 432.859 74.3253 432.82 74.8221L431.823 74.7441C431.861 74.2509 431.897 73.7633 431.929 73.2816L432.927 73.3484ZM432.553 77.8094C432.455 78.787 432.345 79.7819 432.223 80.792L431.23 80.672C431.351 79.6686 431.461 78.6805 431.558 77.7098L432.553 77.8094ZM431.833 83.7694C431.695 84.7443 431.546 85.7307 431.386 86.7269L430.399 86.568C430.558 85.5782 430.706 84.5982 430.842 83.6297L431.833 83.7694ZM430.882 89.6745C430.706 90.6485 430.519 91.6298 430.321 92.6169L429.34 92.42C429.537 91.4393 429.723 90.4643 429.898 89.4966L430.882 89.6745ZM429.702 95.5512C429.487 96.5216 429.261 97.4959 429.024 98.4726L428.052 98.2369C428.288 97.2668 428.512 96.299 428.725 95.3351L429.702 95.5512ZM428.289 101.373C428.035 102.335 427.769 103.298 427.492 104.261L426.531 103.985C426.806 103.029 427.07 102.073 427.322 101.117L428.289 101.373ZM426.632 107.133C426.334 108.086 426.026 109.036 425.706 109.984L424.758 109.664C425.076 108.724 425.382 107.781 425.677 106.835L426.632 107.133ZM424.712 112.812C424.368 113.751 424.013 114.686 423.645 115.615L422.715 115.248C423.08 114.327 423.432 113.4 423.772 112.469L424.712 112.812ZM422.504 118.388C422.11 119.31 421.703 120.223 421.284 121.128L420.376 120.707C420.792 119.812 421.194 118.907 421.585 117.995L422.504 118.388ZM419.977 123.833C419.526 124.73 419.061 125.617 418.582 126.492L417.705 126.013C418.178 125.148 418.637 124.271 419.084 123.384L419.977 123.833ZM417.094 129.099C416.579 129.963 416.05 130.813 415.506 131.648L414.668 131.102C415.205 130.279 415.727 129.44 416.235 128.587L417.094 129.099ZM413.808 134.134C413.22 134.954 412.617 135.756 411.998 136.539L411.214 135.919C411.823 135.149 412.416 134.359 412.995 133.552L413.808 134.134ZM410.072 138.851C409.407 139.609 408.724 140.345 408.024 141.057L407.311 140.355C407.998 139.657 408.668 138.936 409.321 138.191L410.072 138.851ZM405.846 143.142C405.095 143.818 404.325 144.467 403.537 145.088L402.919 144.302C403.689 143.696 404.442 143.061 405.177 142.399L405.846 143.142ZM401.101 146.871C400.268 147.437 399.415 147.972 398.542 148.474L398.043 147.607C398.894 147.118 399.726 146.596 400.54 146.044L401.101 146.871ZM395.864 149.877C394.956 150.308 394.028 150.705 393.08 151.065L392.725 150.13C393.648 149.78 394.551 149.394 395.435 148.974L395.864 149.877ZM390.215 152.022C389.257 152.299 388.28 152.54 387.284 152.743L387.085 151.763C388.054 151.565 389.005 151.331 389.937 151.061L390.215 152.022ZM384.302 153.228C383.314 153.349 382.307 153.434 381.283 153.481L381.237 152.482C382.236 152.436 383.217 152.353 384.18 152.235L384.302 153.228ZM378.264 153.511C377.281 153.486 376.282 153.428 375.267 153.334L375.359 152.338C376.352 152.43 377.329 152.487 378.29 152.512L378.264 153.511ZM372.27 152.962C371.292 152.81 370.301 152.627 369.295 152.412L369.505 151.434C370.492 151.646 371.465 151.825 372.423 151.974L372.27 152.962ZM366.394 151.709C365.438 151.452 364.47 151.166 363.49 150.851L363.796 149.899C364.761 150.209 365.714 150.491 366.654 150.744L366.394 151.709ZM360.664 149.873C360.187 149.697 359.708 149.514 359.225 149.324L359.592 148.394C360.068 148.581 360.541 148.762 361.011 148.936L360.664 149.873ZM359.225 149.324C358.717 149.124 358.221 148.922 357.736 148.719L358.122 147.797C358.6 147.997 359.09 148.196 359.592 148.394L359.225 149.324ZM354.966 147.485C354.016 147.033 353.118 146.575 352.274 146.111L352.755 145.234C353.581 145.688 354.461 146.137 355.396 146.582L354.966 147.485ZM349.686 144.568C348.771 143.974 347.936 143.371 347.177 142.761L347.803 141.982C348.534 142.569 349.342 143.152 350.231 143.73L349.686 144.568ZM344.94 140.716C344.193 139.928 343.561 139.129 343.042 138.32L343.884 137.78C344.366 138.531 344.957 139.281 345.666 140.028L344.94 140.716ZM341.694 135.503C341.362 134.47 341.199 133.431 341.196 132.39L342.196 132.387C342.199 133.324 342.345 134.261 342.646 135.197L341.694 135.503ZM341.649 129.285C341.932 128.319 342.342 127.362 342.868 126.418L343.741 126.904C343.248 127.791 342.868 128.679 342.609 129.566L341.649 129.285ZM344.592 123.859C345.197 123.095 345.874 122.341 346.619 121.598L347.325 122.306C346.605 123.024 345.954 123.749 345.377 124.479L344.592 123.859ZM348.865 119.556C349.624 118.923 350.431 118.299 351.282 117.686L351.866 118.498C351.033 119.098 350.244 119.707 349.505 120.324L348.865 119.556ZM353.807 115.981C354.633 115.456 355.493 114.94 356.382 114.433L356.877 115.302C356.001 115.801 355.155 116.309 354.343 116.825L353.807 115.981ZM359.064 112.982C359.942 112.531 360.843 112.089 361.766 111.657L362.19 112.563C361.278 112.99 360.387 113.426 359.522 113.872L359.064 112.982ZM364.527 110.422C365.444 110.03 366.378 109.648 367.329 109.276L367.694 110.207C366.752 110.575 365.827 110.954 364.92 111.341L364.527 110.422ZM370.149 108.219C371.092 107.881 372.049 107.553 373.018 107.236L373.329 108.186C372.369 108.501 371.421 108.826 370.487 109.161L370.149 108.219ZM375.887 106.337C376.848 106.049 377.82 105.772 378.801 105.505L379.063 106.47C378.09 106.735 377.127 107.01 376.173 107.295L375.887 106.337ZM381.713 104.753C382.688 104.513 383.671 104.285 384.66 104.068L384.875 105.044C383.894 105.26 382.919 105.487 381.951 105.724L381.713 104.753ZM387.609 103.458C388.596 103.266 389.587 103.086 390.581 102.917L390.748 103.903C389.762 104.07 388.778 104.249 387.8 104.439L387.609 103.458ZM393.561 102.451C394.557 102.308 395.554 102.178 396.553 102.06L396.67 103.053C395.68 103.17 394.691 103.299 393.704 103.441L393.561 102.451ZM399.558 101.744C400.56 101.652 401.562 101.574 402.562 101.509L402.627 102.507C401.635 102.571 400.642 102.649 399.649 102.74L399.558 101.744ZM405.585 101.356C406.591 101.319 407.595 101.297 408.594 101.29L408.602 102.29C407.612 102.297 406.618 102.318 405.621 102.355L405.585 101.356ZM411.626 101.315C412.634 101.34 413.636 101.381 414.631 101.438L414.574 102.436C413.59 102.38 412.599 102.339 411.602 102.315L411.626 101.315ZM417.661 101.666C418.666 101.761 419.662 101.873 420.648 102.004L420.516 102.995C419.543 102.866 418.56 102.755 417.568 102.662L417.661 101.666ZM423.658 102.467C424.655 102.643 425.641 102.839 426.613 103.056L426.394 104.032C425.438 103.818 424.467 103.625 423.484 103.452L423.658 102.467ZM429.564 103.795C430.546 104.067 431.511 104.364 432.457 104.685L432.136 105.632C431.208 105.317 430.261 105.026 429.297 104.758L429.564 103.795ZM435.3 105.746C436.248 106.134 437.174 106.551 438.075 106.995L437.633 107.892C436.753 107.458 435.848 107.051 434.921 106.671L435.3 105.746ZM440.736 108.433C441.62 108.956 442.477 109.511 443.302 110.099L442.722 110.913C441.92 110.343 441.088 109.803 440.227 109.294L440.736 108.433ZM445.697 111.973C446.47 112.639 447.209 113.339 447.911 114.075L447.187 114.765C446.509 114.054 445.794 113.376 445.045 112.731L445.697 111.973ZM449.897 116.385C450.518 117.187 451.099 118.026 451.638 118.901L450.787 119.425C450.267 118.581 449.706 117.771 449.106 116.997L449.897 116.385ZM453.097 121.571C453.32 122.034 453.532 122.506 453.733 122.987L452.81 123.372C452.616 122.908 452.411 122.452 452.196 122.004L453.097 121.571ZM453.733 122.987C453.928 123.455 454.117 123.925 454.297 124.395L453.363 124.753C453.186 124.292 453.002 123.832 452.81 123.372L453.733 122.987ZM455.287 127.226C455.592 128.19 455.866 129.157 456.108 130.125L455.138 130.368C454.9 129.419 454.632 128.473 454.334 127.528L455.287 127.226ZM456.749 133.056C456.935 134.046 457.089 135.037 457.213 136.03L456.22 136.153C456.099 135.181 455.948 134.209 455.766 133.239L456.749 133.056ZM457.494 139.021C457.559 140.022 457.593 141.023 457.597 142.024L456.597 142.029C456.593 141.048 456.559 140.066 456.496 139.085L457.494 139.021ZM457.525 145.028C457.472 146.028 457.39 147.026 457.281 148.022L456.287 147.913C456.394 146.935 456.474 145.956 456.526 144.975L457.525 145.028ZM456.872 150.999C456.71 151.984 456.521 152.966 456.306 153.945L455.329 153.731C455.54 152.768 455.726 151.803 455.886 150.836L456.872 150.999ZM455.588 156.864C455.325 157.825 455.039 158.782 454.729 159.735L453.778 159.426C454.083 158.487 454.365 157.546 454.623 156.601L455.588 156.864ZM453.734 162.565C453.381 163.498 453.007 164.426 452.61 165.349L451.691 164.955C452.082 164.045 452.451 163.131 452.798 162.212L453.734 162.565ZM451.37 168.074C450.938 168.973 450.485 169.866 450.012 170.753L449.13 170.283C449.596 169.408 450.042 168.527 450.469 167.64L451.37 168.074ZM448.554 173.365C448.052 174.224 447.531 175.077 446.992 175.923L446.149 175.386C446.681 174.551 447.195 173.709 447.69 172.86L448.554 173.365ZM445.337 178.421C444.773 179.239 444.192 180.05 443.595 180.854L442.792 180.257C443.382 179.463 443.956 178.662 444.513 177.854L445.337 178.421ZM441.764 183.231C441.144 184.007 440.51 184.775 439.861 185.534L439.101 184.885C439.743 184.134 440.37 183.374 440.982 182.607L441.764 183.231ZM437.877 187.782C437.207 188.516 436.523 189.241 435.827 189.957L435.11 189.26C435.799 188.552 436.476 187.834 437.138 187.107L437.877 187.782ZM433.705 192.071C432.989 192.762 432.261 193.444 431.521 194.116L430.849 193.376C431.581 192.711 432.302 192.036 433.011 191.351L433.705 192.071ZM429.275 196.093C428.518 196.74 427.749 197.377 426.969 198.002L426.343 197.223C427.115 196.603 427.876 195.973 428.626 195.332L429.275 196.093ZM424.61 199.84C423.815 200.441 423.009 201.03 422.194 201.609L421.615 200.793C422.422 200.221 423.22 199.637 424.008 199.042L424.61 199.84ZM419.73 203.303C418.9 203.855 418.061 204.396 417.214 204.925L416.685 204.076C417.524 203.553 418.354 203.017 419.176 202.47L419.73 203.303ZM414.653 206.47C413.792 206.973 412.923 207.462 412.046 207.939L411.568 207.061C412.436 206.589 413.297 206.104 414.149 205.606L414.653 206.47ZM409.397 209.329C408.506 209.779 407.609 210.216 406.705 210.638L406.282 209.733C407.176 209.314 408.064 208.882 408.945 208.437L409.397 209.329ZM403.976 211.864C403.059 212.259 402.136 212.639 401.208 213.005L400.842 212.075C401.76 211.713 402.673 211.337 403.58 210.946L403.976 211.864ZM398.407 214.057C397.467 214.393 396.521 214.714 395.572 215.019L395.266 214.067C396.205 213.766 397.14 213.448 398.071 213.116L398.407 214.057ZM392.709 215.887C391.747 216.161 390.782 216.419 389.814 216.659L389.572 215.689C390.53 215.451 391.484 215.196 392.434 214.925L392.709 215.887ZM386.897 217.331C385.919 217.538 384.939 217.728 383.956 217.9L383.783 216.915C384.754 216.745 385.723 216.558 386.69 216.353L386.897 217.331ZM380.997 218.363C380.007 218.499 379.015 218.617 378.022 218.716L377.923 217.721C378.904 217.624 379.883 217.507 380.861 217.372L380.997 218.363ZM375.036 218.957C374.039 219.018 373.041 219.059 372.043 219.081L372.021 218.081C373.006 218.06 373.991 218.019 374.975 217.959L375.036 218.957ZM369.046 219.085C368.047 219.067 367.048 219.028 366.05 218.968L366.11 217.969C367.094 218.029 368.079 218.067 369.064 218.086L369.046 219.085ZM363.064 218.725C362.07 218.623 361.078 218.5 360.087 218.355L360.232 217.366C361.208 217.509 362.186 217.63 363.166 217.73L363.064 218.725ZM357.133 217.857C356.152 217.67 355.174 217.46 354.2 217.229L354.431 216.256C355.391 216.484 356.355 216.69 357.32 216.875L357.133 217.857ZM351.299 216.47C350.818 216.332 350.337 216.189 349.857 216.04L350.153 215.085C350.626 215.232 351.1 215.373 351.574 215.508L351.299 216.47ZM349.857 216.04C349.374 215.89 348.892 215.738 348.412 215.584L348.717 214.632C349.195 214.785 349.673 214.936 350.153 215.085L349.857 216.04ZM345.547 214.641C344.59 214.318 343.639 213.987 342.693 213.651L343.029 212.708C343.97 213.043 344.916 213.372 345.867 213.694L345.547 214.641ZM339.863 212.619C338.916 212.266 337.974 211.907 337.038 211.542L337.401 210.61C338.333 210.973 339.27 211.331 340.213 211.682L339.863 212.619ZM334.239 210.431C333.302 210.052 332.371 209.668 331.446 209.28L331.833 208.358C332.754 208.744 333.682 209.127 334.614 209.504L334.239 210.431ZM328.673 208.097C327.747 207.696 326.828 207.291 325.914 206.883L326.321 205.97C327.232 206.376 328.148 206.78 329.071 207.179L328.673 208.097ZM323.163 205.638C322.249 205.219 321.34 204.796 320.437 204.373L320.862 203.467C321.762 203.89 322.668 204.311 323.58 204.729L323.163 205.638ZM317.705 203.076C316.796 202.639 315.893 202.202 314.996 201.764L315.435 200.865C316.33 201.302 317.231 201.739 318.138 202.174L317.705 203.076ZM312.293 200.432C311.386 199.982 310.487 199.532 309.594 199.083L310.043 198.19C310.935 198.638 311.833 199.087 312.737 199.536L312.293 200.432ZM306.915 197.73C306.011 197.27 305.113 196.813 304.223 196.358L304.678 195.467C305.568 195.922 306.464 196.379 307.368 196.838L306.915 197.73ZM301.543 194.985C300.645 194.525 299.756 194.068 298.874 193.616L299.33 192.726C300.212 193.178 301.102 193.635 301.999 194.095L301.543 194.985ZM296.184 192.239C295.282 191.778 294.389 191.324 293.504 190.876L293.955 189.983C294.842 190.432 295.736 190.887 296.639 191.348L296.184 192.239ZM290.829 189.53C289.917 189.075 289.015 188.629 288.121 188.192L288.561 187.293C289.457 187.732 290.362 188.18 291.275 188.636L290.829 189.53ZM285.413 186.884C284.499 186.448 283.594 186.025 282.7 185.614L283.117 184.706C284.016 185.118 284.925 185.544 285.843 185.981L285.413 186.884ZM279.967 184.388C279.032 183.978 278.108 183.585 277.197 183.211L277.577 182.286C278.496 182.664 279.427 183.06 280.368 183.472L279.967 184.388ZM274.407 182.108C273.455 181.747 272.516 181.409 271.592 181.096L271.912 180.149C272.849 180.466 273.799 180.808 274.761 181.172L274.407 182.108ZM268.745 180.199C267.768 179.915 266.807 179.663 265.863 179.445L266.088 178.471C267.052 178.694 268.03 178.95 269.024 179.238L268.745 180.199ZM262.946 178.874C261.943 178.715 260.961 178.601 260 178.534L260.069 177.537C261.062 177.606 262.073 177.724 263.102 177.887L262.946 178.874ZM257.046 178.484C256.046 178.523 255.071 178.623 254.12 178.786L253.951 177.8C254.948 177.629 255.966 177.526 257.006 177.485L257.046 178.484ZM251.278 179.492C250.356 179.797 249.458 180.173 248.583 180.625L248.124 179.737C249.046 179.26 249.993 178.863 250.964 178.542L251.278 179.492ZM246.093 182.168C245.325 182.729 244.576 183.359 243.847 184.064L243.152 183.344C243.913 182.609 244.697 181.949 245.504 181.36L246.093 182.168ZM241.854 186.234C241.255 186.966 240.67 187.756 240.099 188.607L239.269 188.051C239.856 187.175 240.46 186.359 241.08 185.601L241.854 186.234ZM238.554 191.13C238.309 191.565 238.067 192.014 237.829 192.475L236.94 192.016C237.184 191.545 237.431 191.086 237.682 190.64L238.554 191.13ZM237.829 192.475C237.595 192.927 237.361 193.38 237.128 193.833L236.239 193.375C236.473 192.921 236.706 192.468 236.94 192.016L237.829 192.475ZM235.729 196.553C235.263 197.46 234.797 198.367 234.33 199.273L233.441 198.816C233.907 197.91 234.373 197.003 234.839 196.096L235.729 196.553ZM232.927 201.994C232.457 202.902 231.987 203.808 231.515 204.711L230.629 204.248C231.1 203.346 231.57 202.441 232.039 201.534L232.927 201.994ZM230.089 207.421C229.61 208.326 229.128 209.227 228.645 210.121L227.765 209.646C228.247 208.754 228.727 207.856 229.206 206.953L230.089 207.421ZM227.178 212.807C226.68 213.707 226.18 214.599 225.677 215.483L224.808 214.988C225.309 214.108 225.807 213.22 226.303 212.323L227.178 212.807ZM224.139 218.139C223.616 219.027 223.09 219.905 222.559 220.77L221.707 220.248C222.234 219.387 222.758 218.515 223.278 217.632L224.139 218.139ZM220.928 223.371C220.37 224.24 219.807 225.095 219.239 225.934L218.411 225.373C218.975 224.541 219.533 223.693 220.087 222.83L220.928 223.371ZM217.481 228.452C216.876 229.292 216.264 230.114 215.645 230.915L214.854 230.303C215.466 229.512 216.071 228.699 216.67 227.867L217.481 228.452ZM213.717 233.313C213.048 234.111 212.37 234.884 211.683 235.631L210.947 234.953C211.624 234.219 212.291 233.458 212.951 232.671L213.717 233.313ZM209.533 237.845C208.785 238.573 208.025 239.269 207.253 239.93L206.603 239.17C207.358 238.524 208.102 237.843 208.835 237.128L209.533 237.845ZM204.83 241.855C203.987 242.474 203.128 243.051 202.254 243.584L201.734 242.729C202.582 242.213 203.417 241.652 204.239 241.049L204.83 241.855ZM199.524 245.07C198.586 245.522 197.629 245.922 196.653 246.267L196.32 245.324C197.26 244.992 198.183 244.605 199.091 244.169L199.524 245.07ZM193.665 247.136C192.661 247.365 191.638 247.537 190.595 247.649L190.488 246.654C191.492 246.547 192.476 246.381 193.442 246.161L193.665 247.136ZM187.487 247.8C186.472 247.792 185.438 247.728 184.386 247.605L184.501 246.612C185.519 246.73 186.516 246.792 187.496 246.8L187.487 247.8ZM181.326 247.095C180.343 246.882 179.345 246.62 178.33 246.307L178.625 245.352C179.613 245.656 180.584 245.911 181.537 246.117L181.326 247.095ZM175.41 245.282C174.475 244.914 173.527 244.505 172.564 244.052L172.99 243.147C173.933 243.591 174.862 243.992 175.775 244.351L175.41 245.282ZM169.797 242.651C168.926 242.178 168.043 241.671 167.148 241.129L167.667 240.274C168.548 240.808 169.417 241.307 170.274 241.771L169.797 242.651ZM164.556 239.478C163.715 238.917 162.865 238.326 162.004 237.704L162.59 236.894C163.441 237.509 164.281 238.093 165.111 238.646L164.556 239.478ZM159.566 235.879C159.155 235.56 158.742 235.235 158.327 234.903L158.951 234.122C159.362 234.451 159.771 234.773 160.178 235.088L159.566 235.879Z" fill="url(#paint3_linear_16446_49)" fill-opacity="0.5"/>
<path d="M346.537 265.312L355.364 274.544L301.915 268.464L346.537 265.312Z" fill="white" fill-opacity="0.1"/>
<path d="M307.363 268.58L354.048 273.891L346.338 265.828L307.363 268.58Z" stroke="url(#paint4_linear_16446_49)" stroke-opacity="0.1"/>
<path d="M342.296 273.061L355.368 274.547L339.392 283.139L342.296 273.061Z" fill="white" fill-opacity="0.15"/>
<path d="M340.201 282.136L353.724 274.863L342.66 273.606L340.201 282.136Z" stroke="url(#paint5_linear_16446_49)" stroke-opacity="0.1"/>
<path d="M288.904 266.658L354.713 247.947C355.121 247.829 355.556 247.84 355.958 247.979C356.359 248.119 356.708 248.379 356.955 248.725C357.203 249.071 357.337 249.485 357.339 249.91C357.341 250.335 357.211 250.751 356.967 251.099L347.091 265.383L302.475 268.406L342.899 272.88L334.789 300.805C334.6 301.477 334.246 302.092 333.759 302.593C333.273 303.094 332.668 303.465 332.001 303.673C331.334 303.881 330.626 303.92 329.941 303.784C329.255 303.649 328.615 303.345 328.077 302.899L288.13 270.237C287.839 269.996 287.62 269.68 287.497 269.323C287.373 268.966 287.35 268.582 287.43 268.213C287.51 267.844 287.689 267.503 287.949 267.229C288.209 266.955 288.539 266.758 288.904 266.658Z" fill="white" fill-opacity="0.2"/>
<path d="M289.041 267.139L289.035 267.141C288.759 267.216 288.509 267.366 288.312 267.573C288.115 267.781 287.979 268.039 287.919 268.318C287.858 268.598 287.876 268.889 287.969 269.16C288.062 269.429 288.228 269.669 288.447 269.851C288.448 269.851 288.448 269.852 288.449 269.852L328.393 302.512L328.396 302.514C328.87 302.907 329.434 303.175 330.038 303.294C330.641 303.413 331.265 303.379 331.852 303.196C332.44 303.013 332.972 302.686 333.401 302.244C333.83 301.803 334.141 301.262 334.308 300.669L334.309 300.665L342.253 273.311L302.42 268.903L302.441 267.907L346.817 264.901L356.556 250.815L356.558 250.812C356.742 250.549 356.84 250.234 356.839 249.913C356.837 249.591 356.736 249.278 356.549 249.016C356.361 248.754 356.098 248.557 355.794 248.452L355.957 247.981L355.794 248.452C355.49 248.346 355.161 248.338 354.852 248.427L354.849 248.428L289.041 267.139Z" stroke="url(#paint6_linear_16446_49)" stroke-opacity="0.3"/>
<defs>
<linearGradient id="paint0_linear_16446_49" x1="67.0561" y1="237.215" x2="115.079" y2="243.696" gradientUnits="userSpaceOnUse">
<stop stop-color="white" stop-opacity="0"/>
<stop offset="1" stop-color="white"/>
</linearGradient>
<linearGradient id="paint1_linear_16446_49" x1="115" y1="239.41" x2="129.015" y2="245.853" gradientUnits="userSpaceOnUse">
<stop stop-color="white" stop-opacity="0"/>
<stop offset="1" stop-color="white"/>
</linearGradient>
<linearGradient id="paint2_linear_16446_49" x1="55.0753" y1="245.925" x2="131.857" y2="261.634" gradientUnits="userSpaceOnUse">
<stop stop-color="white"/>
<stop offset="1" stop-color="white" stop-opacity="0"/>
</linearGradient>
<linearGradient id="paint3_linear_16446_49" x1="248.185" y1="132.655" x2="314.994" y2="267.955" gradientUnits="userSpaceOnUse">
<stop stop-color="white" stop-opacity="0"/>
<stop offset="1" stop-color="white"/>
</linearGradient>
<linearGradient id="paint4_linear_16446_49" x1="318.267" y1="278.708" x2="341.044" y2="281.782" gradientUnits="userSpaceOnUse">
<stop stop-color="white" stop-opacity="0"/>
<stop offset="1" stop-color="white"/>
</linearGradient>
<linearGradient id="paint5_linear_16446_49" x1="341.007" y1="279.749" x2="347.654" y2="282.805" gradientUnits="userSpaceOnUse">
<stop stop-color="white" stop-opacity="0"/>
<stop offset="1" stop-color="white"/>
</linearGradient>
<linearGradient id="paint6_linear_16446_49" x1="312.585" y1="282.838" x2="349.002" y2="290.289" gradientUnits="userSpaceOnUse">
<stop stop-color="white"/>
<stop offset="1" stop-color="white" stop-opacity="0"/>
</linearGradient>
</defs>
</svg>
