<svg width="890" height="612" viewBox="0 0 890 612" fill="none" xmlns="http://www.w3.org/2000/svg">
<path d="M233.168 385.867L267.482 421.755L59.6922 398.118L233.168 385.867Z" fill="white" fill-opacity="0.1"/>
<path d="M65.1401 398.234L266.166 421.102L232.968 386.382L65.1401 398.234Z" stroke="url(#paint0_linear_16266_270)" stroke-opacity="0.1"/>
<path d="M216.679 415.99L267.499 421.766L205.389 455.171L216.679 415.99Z" fill="white" fill-opacity="0.15"/>
<path d="M206.199 454.168L265.855 422.082L217.043 416.535L206.199 454.168Z" stroke="url(#paint1_linear_16266_270)" stroke-opacity="0.1"/>
<path d="M9.11189 391.1L264.951 318.356C266.538 317.897 268.23 317.941 269.791 318.483C271.352 319.024 272.707 320.037 273.669 321.382C274.631 322.726 275.152 324.335 275.16 325.988C275.169 327.641 274.664 329.256 273.717 330.61L235.322 386.142L61.871 397.892L219.023 415.286L187.496 523.847C186.762 526.461 185.385 528.851 183.493 530.799C181.6 532.746 179.251 534.19 176.658 534.999C174.066 535.808 171.312 535.957 168.648 535.431C165.983 534.906 163.492 533.723 161.401 531.99L6.10253 405.012C4.9721 404.075 4.12064 402.846 3.64095 401.458C3.16126 400.07 3.07175 398.577 3.38217 397.142C3.69262 395.707 4.39107 394.384 5.40142 393.319C6.41175 392.253 7.69523 391.486 9.11189 391.1Z" fill="white" fill-opacity="0.2"/>
<path d="M9.24865 391.58L9.2434 391.582C7.91506 391.944 6.71159 392.664 5.76423 393.663C4.81688 394.662 4.16196 395.902 3.87086 397.248C3.57981 398.593 3.66372 399.993 4.11352 401.295C4.5633 402.596 5.36167 403.749 6.42165 404.627L161.717 531.603L161.72 531.605C163.747 533.285 166.162 534.431 168.744 534.941C171.327 535.45 173.996 535.306 176.509 534.522C179.022 533.738 181.299 532.338 183.134 530.45C184.969 528.562 186.303 526.246 187.015 523.712L187.016 523.708L218.377 415.717L61.816 398.389L61.8372 397.393L235.048 385.659L273.305 330.325L273.307 330.323C274.195 329.054 274.668 327.54 274.66 325.991C274.652 324.441 274.164 322.933 273.262 321.672C272.361 320.412 271.091 319.463 269.627 318.955C268.163 318.447 266.578 318.406 265.09 318.837L265.088 318.837L9.24865 391.58Z" stroke="url(#paint2_linear_16266_270)" stroke-opacity="0.3"/>
<path d="M796.463 135.699C796.482 135.424 796.72 135.215 796.996 135.234C797.271 135.252 797.48 135.49 797.461 135.766L796.463 135.699ZM662.324 275.026L662.141 275.491L662.324 275.026ZM835.394 227.676L834.933 227.869L835.394 227.676ZM644.985 398.018L644.837 398.496L644.985 398.018ZM437.328 355.026L437.772 355.255L437.328 355.026ZM797.461 135.766C797.429 136.247 797.395 136.731 797.359 137.219L796.362 137.146C796.397 136.661 796.431 136.178 796.463 135.699L797.461 135.766ZM797.125 140.178C797.042 141.155 796.952 142.143 796.855 143.141L795.86 143.045C795.956 142.05 796.046 141.066 796.128 140.093L797.125 140.178ZM796.552 146.089C796.446 147.068 796.334 148.056 796.215 149.052L795.222 148.934C795.341 147.941 795.453 146.957 795.558 145.982L796.552 146.089ZM795.849 151.986C795.721 152.967 795.587 153.955 795.446 154.95L794.456 154.81C794.596 153.819 794.73 152.834 794.857 151.857L795.849 151.986ZM795.019 157.868C794.871 158.846 794.716 159.83 794.555 160.819L793.568 160.658C793.728 159.673 793.882 158.692 794.03 157.718L795.019 157.868ZM794.066 163.734C793.898 164.705 793.724 165.681 793.544 166.661L792.56 166.481C792.74 165.504 792.913 164.531 793.081 163.563L794.066 163.734ZM792.991 169.581C792.803 170.547 792.609 171.516 792.41 172.487L791.43 172.286C791.629 171.318 791.822 170.352 792.01 169.39L792.991 169.581ZM791.794 175.407C791.586 176.367 791.372 177.329 791.152 178.293L790.177 178.071C790.396 177.11 790.609 176.151 790.816 175.195L791.794 175.407ZM790.476 181.191C790.246 182.151 790.011 183.112 789.769 184.074L788.799 183.83C789.04 182.872 789.274 181.914 789.503 180.958L790.476 181.191ZM789.031 186.948C788.779 187.906 788.522 188.864 788.258 189.823L787.294 189.557C787.557 188.603 787.813 187.648 788.064 186.694L789.031 186.948ZM787.456 192.676C787.182 193.628 786.902 194.578 786.617 195.529L785.659 195.241C785.944 194.295 786.222 193.347 786.494 192.4L787.456 192.676ZM785.745 198.368C785.449 199.312 785.146 200.254 784.838 201.196L783.888 200.884C784.195 199.947 784.496 199.008 784.791 198.068L785.745 198.368ZM783.894 204.014C783.574 204.951 783.247 205.886 782.915 206.818L781.973 206.482C782.304 205.554 782.629 204.623 782.948 203.691L783.894 204.014ZM781.897 209.609C781.552 210.538 781.199 211.464 780.841 212.388L779.909 212.026C780.265 211.107 780.616 210.185 780.96 209.26L781.897 209.609ZM779.745 215.15C779.373 216.068 778.994 216.982 778.609 217.893L777.688 217.504C778.071 216.598 778.448 215.688 778.818 214.774L779.745 215.15ZM777.429 220.625C777.029 221.532 776.622 222.434 776.208 223.332L775.3 222.913C775.711 222.021 776.116 221.123 776.514 220.221L777.429 220.625ZM774.941 226.023C774.51 226.918 774.073 227.807 773.628 228.691L772.734 228.242C773.177 227.363 773.612 226.479 774.04 225.589L774.941 226.023ZM772.271 231.33C771.807 232.211 771.336 233.087 770.858 233.955L769.982 233.473C770.457 232.61 770.925 231.74 771.386 230.864L772.271 231.33ZM769.401 236.541C768.904 237.404 768.4 238.259 767.888 239.107L767.032 238.589C767.54 237.748 768.041 236.898 768.535 236.042L769.401 236.541ZM766.322 241.636C765.791 242.475 765.251 243.305 764.704 244.127L763.872 243.572C764.415 242.757 764.95 241.933 765.478 241.101L766.322 241.636ZM763.022 246.59C762.453 247.402 761.876 248.205 761.29 248.999L760.486 248.405C761.066 247.619 761.638 246.822 762.203 246.016L763.022 246.59ZM759.487 251.378C758.877 252.163 758.257 252.937 757.629 253.701L756.857 253.065C757.479 252.309 758.093 251.542 758.698 250.764L759.487 251.378ZM755.706 255.973C755.051 256.725 754.387 257.465 753.714 258.193L752.98 257.514C753.646 256.793 754.303 256.061 754.952 255.317L755.706 255.973ZM751.664 260.343C750.964 261.055 750.255 261.754 749.536 262.44L748.846 261.716C749.557 261.038 750.259 260.347 750.951 259.642L751.664 260.343ZM747.35 264.455C746.605 265.118 745.851 265.768 745.086 266.402L744.447 265.633C745.203 265.006 745.949 264.364 746.685 263.708L747.35 264.455ZM742.759 268.263C741.971 268.871 741.172 269.463 740.363 270.038L739.783 269.223C740.582 268.655 741.37 268.071 742.149 267.471L742.759 268.263ZM737.9 271.721C737.068 272.265 736.225 272.793 735.373 273.303L734.859 272.445C735.7 271.941 736.531 271.421 737.352 270.884L737.9 271.721ZM732.782 274.782C731.908 275.257 731.023 275.714 730.129 276.153L729.688 275.255C730.571 274.822 731.442 274.372 732.304 273.903L732.782 274.782ZM727.426 277.406C726.515 277.805 725.593 278.185 724.661 278.546L724.3 277.614C725.219 277.258 726.127 276.883 727.025 276.49L727.426 277.406ZM721.863 279.559C720.923 279.876 719.972 280.175 719.011 280.453L718.733 279.492C719.68 279.218 720.617 278.924 721.544 278.612L721.863 279.559ZM716.129 281.218C715.17 281.451 714.199 281.665 713.219 281.858L713.026 280.877C713.992 280.686 714.948 280.476 715.894 280.247L716.129 281.218ZM710.264 282.375C709.295 282.523 708.317 282.652 707.329 282.761L707.219 281.767C708.193 281.66 709.158 281.532 710.113 281.386L710.264 282.375ZM704.336 283.03C703.359 283.097 702.373 283.146 701.377 283.175L701.347 282.176C702.33 282.147 703.303 282.099 704.267 282.032L704.336 283.03ZM698.396 283.205C697.403 283.196 696.401 283.168 695.391 283.121L695.437 282.122C696.436 282.169 697.425 282.196 698.405 282.205L698.396 283.205ZM692.453 282.931C691.465 282.85 690.469 282.751 689.465 282.633L689.581 281.64C690.574 281.756 691.559 281.855 692.535 281.935L692.453 282.931ZM686.517 282.238C685.553 282.093 684.581 281.931 683.602 281.752L683.782 280.768C684.751 280.946 685.712 281.106 686.666 281.249L686.517 282.238ZM680.642 281.164C679.69 280.96 678.732 280.74 677.766 280.504L678.003 279.533C678.96 279.766 679.909 279.984 680.851 280.186L680.642 281.164ZM674.902 279.763C673.941 279.5 672.973 279.221 671.998 278.927L672.287 277.969C673.253 278.261 674.213 278.537 675.166 278.798L674.902 279.763ZM669.187 278.04C668.263 277.736 667.333 277.418 666.396 277.085L666.731 276.143C667.66 276.473 668.583 276.788 669.5 277.09L669.187 278.04ZM663.569 276.044C663.094 275.863 662.618 275.679 662.141 275.491L662.508 274.561C662.981 274.747 663.454 274.93 663.925 275.11L663.569 276.044ZM662.141 275.491C661.635 275.292 661.135 275.092 660.642 274.891L661.019 273.965C661.508 274.164 662.005 274.363 662.508 274.561L662.141 275.491ZM657.757 273.677C656.821 273.269 655.911 272.859 655.025 272.445L655.447 271.539C656.325 271.949 657.228 272.355 658.157 272.76L657.757 273.677ZM652.442 271.198C651.493 270.723 650.576 270.245 649.691 269.763L650.168 268.885C651.044 269.36 651.95 269.833 652.889 270.303L652.442 271.198ZM647.012 268.242C646.153 267.732 645.328 267.218 644.535 266.701L645.081 265.863C645.862 266.372 646.675 266.879 647.523 267.383L647.012 268.242ZM642.03 264.978C641.169 264.352 640.355 263.722 639.585 263.088L640.221 262.317C640.974 262.937 641.773 263.555 642.618 264.169L642.03 264.978ZM637.411 261.174C636.62 260.428 635.889 259.676 635.216 258.92L635.963 258.255C636.616 258.989 637.326 259.719 638.098 260.447L637.411 261.174ZM633.336 256.586C632.714 255.728 632.164 254.865 631.685 253.996L632.56 253.513C633.019 254.344 633.547 255.173 634.145 256L633.336 256.586ZM630.402 251.237C630.03 250.258 629.743 249.274 629.54 248.288L630.52 248.086C630.712 249.019 630.983 249.951 631.337 250.882L630.402 251.237ZM629.175 245.245C629.139 244.224 629.189 243.205 629.32 242.186L630.312 242.315C630.187 243.28 630.14 244.245 630.175 245.209L629.175 245.245ZM629.951 239.162C630.224 238.209 630.567 237.26 630.975 236.316L631.893 236.713C631.501 237.62 631.173 238.529 630.912 239.438L629.951 239.162ZM632.359 233.559C632.845 232.709 633.383 231.864 633.97 231.024L634.79 231.597C634.219 232.413 633.697 233.233 633.228 234.055L632.359 233.559ZM635.844 228.561C636.46 227.813 637.114 227.07 637.806 226.331L638.536 227.015C637.858 227.739 637.218 228.466 636.616 229.197L635.844 228.561ZM639.99 224.132C640.692 223.464 641.424 222.8 642.185 222.141L642.839 222.897C642.09 223.546 641.37 224.199 640.68 224.856L639.99 224.132ZM644.521 220.206C645.305 219.584 646.114 218.967 646.947 218.355L647.539 219.161C646.715 219.766 645.916 220.375 645.143 220.989L644.521 220.206ZM649.37 216.638C650.199 216.071 651.049 215.509 651.919 214.952L652.458 215.794C651.597 216.346 650.755 216.902 649.935 217.464L649.37 216.638ZM654.476 213.366C655.319 212.858 656.178 212.356 657.053 211.859L657.547 212.728C656.679 213.222 655.827 213.72 654.992 214.222L654.476 213.366ZM659.725 210.383C660.599 209.914 661.486 209.45 662.388 208.991L662.841 209.882C661.947 210.338 661.065 210.798 660.199 211.264L659.725 210.383ZM665.061 207.664C665.965 207.226 666.881 206.794 667.809 206.367L668.227 207.276C667.305 207.7 666.395 208.129 665.497 208.564L665.061 207.664ZM670.566 205.13C671.469 204.735 672.382 204.344 673.305 203.959L673.69 204.882C672.772 205.265 671.865 205.653 670.967 206.046L670.566 205.13ZM676.102 202.819C677.039 202.446 677.986 202.078 678.942 201.716L679.296 202.651C678.346 203.011 677.404 203.377 676.471 203.748L676.102 202.819ZM681.729 200.684C682.666 200.345 683.611 200.011 684.562 199.683L684.888 200.629C683.941 200.955 683.001 201.287 682.069 201.624L681.729 200.684ZM687.437 198.716C688.384 198.405 689.338 198.099 690.297 197.799L690.596 198.754C689.641 199.052 688.692 199.356 687.749 199.666L687.437 198.716ZM693.16 196.926C694.12 196.64 695.085 196.361 696.056 196.087L696.328 197.049C695.362 197.322 694.401 197.6 693.445 197.884L693.16 196.926ZM698.979 195.282C699.938 195.026 700.902 194.774 701.87 194.529L702.116 195.498C701.152 195.743 700.193 195.993 699.237 196.248L698.979 195.282ZM704.787 193.81C705.763 193.576 706.742 193.349 707.725 193.127L707.945 194.102C706.967 194.323 705.991 194.55 705.02 194.783L704.787 193.81ZM710.669 192.483C711.646 192.277 712.626 192.076 713.608 191.881L713.802 192.862C712.824 193.056 711.849 193.256 710.876 193.462L710.669 192.483ZM716.562 191.317C717.549 191.135 718.539 190.959 719.53 190.79L719.698 191.776C718.711 191.944 717.726 192.119 716.744 192.3L716.562 191.317ZM722.499 190.304C723.488 190.148 724.48 190 725.472 189.857L725.614 190.847C724.626 190.989 723.639 191.137 722.654 191.292L722.499 190.304ZM728.452 189.451C729.446 189.323 730.441 189.201 731.437 189.086L731.552 190.079C730.561 190.194 729.57 190.315 728.58 190.443L728.452 189.451ZM734.433 188.762C735.432 188.661 736.431 188.567 737.43 188.48L737.516 189.476C736.522 189.562 735.528 189.656 734.534 189.756L734.433 188.762ZM740.424 188.242C741.425 188.17 742.425 188.105 743.424 188.048L743.481 189.046C742.487 189.103 741.492 189.167 740.496 189.239L740.424 188.242ZM746.44 187.898C747.444 187.856 748.446 187.822 749.447 187.796L749.473 188.795C748.478 188.821 747.48 188.855 746.482 188.897L746.44 187.898ZM752.444 187.741C753.452 187.731 754.457 187.729 755.46 187.735L755.453 188.735C754.456 188.729 753.456 188.731 752.454 188.741L752.444 187.741ZM758.48 187.781C759.484 187.804 760.485 187.837 761.483 187.878L761.442 188.877C760.45 188.836 759.455 188.804 758.457 188.78L758.48 187.781ZM764.466 188.029C765.48 188.089 766.49 188.159 767.496 188.239L767.418 189.236C766.418 189.157 765.414 189.087 764.406 189.027L764.466 188.029ZM770.501 188.507C771.498 188.606 772.49 188.715 773.478 188.833L773.358 189.826C772.378 189.708 771.393 189.6 770.402 189.502L770.501 188.507ZM776.464 189.225C777.469 189.368 778.468 189.522 779.461 189.686L779.297 190.673C778.312 190.509 777.321 190.357 776.323 190.215L776.464 189.225ZM782.42 190.213C783.401 190.4 784.376 190.598 785.343 190.807L785.131 191.784C784.172 191.577 783.206 191.38 782.233 191.195L782.42 190.213ZM788.314 191.491C789.296 191.731 790.27 191.983 791.235 192.248L790.971 193.212C790.015 192.95 789.05 192.7 788.076 192.462L788.314 191.491ZM794.104 193.079C795.077 193.377 796.039 193.687 796.992 194.011L796.669 194.958C795.727 194.637 794.774 194.33 793.812 194.035L794.104 193.079ZM799.843 195.034C800.782 195.389 801.711 195.758 802.628 196.141L802.242 197.064C801.336 196.685 800.418 196.321 799.489 195.97L799.843 195.034ZM805.393 197.356C806.317 197.783 807.228 198.225 808.124 198.683L807.67 199.573C806.785 199.122 805.886 198.685 804.974 198.264L805.393 197.356ZM810.773 200.103C811.654 200.599 812.519 201.111 813.369 201.639L812.841 202.489C812.004 201.968 811.151 201.463 810.283 200.974L810.773 200.103ZM815.911 203.302C816.742 203.873 817.556 204.462 818.353 205.068L817.747 205.864C816.963 205.267 816.162 204.688 815.344 204.126L815.911 203.302ZM820.709 206.955C821.483 207.608 822.238 208.279 822.974 208.969L822.291 209.699C821.567 209.021 820.825 208.361 820.064 207.719L820.709 206.955ZM825.125 211.096C825.82 211.822 826.496 212.568 827.152 213.333L826.392 213.984C825.749 213.233 825.086 212.501 824.402 211.787L825.125 211.096ZM829.052 215.683C829.665 216.486 830.256 217.308 830.825 218.15L829.996 218.71C829.438 217.884 828.858 217.078 828.257 216.29L829.052 215.683ZM832.442 220.697C832.952 221.554 833.441 222.43 833.908 223.325L833.021 223.788C832.563 222.909 832.084 222.049 831.583 221.208L832.442 220.697ZM835.241 226.069C835.451 226.535 835.656 227.007 835.856 227.484L834.933 227.869C834.737 227.401 834.536 226.938 834.329 226.48L835.241 226.069ZM835.856 227.484C836.053 227.956 836.246 228.429 836.435 228.902L835.506 229.272C835.319 228.804 835.128 228.336 834.933 227.869L835.856 227.484ZM837.516 231.747C837.86 232.697 838.186 233.648 838.496 234.602L837.545 234.911C837.238 233.968 836.916 233.026 836.576 232.087L837.516 231.747ZM839.383 237.493C839.665 238.47 839.929 239.449 840.177 240.429L839.207 240.674C838.962 239.705 838.701 238.737 838.422 237.771L839.383 237.493ZM840.868 243.371C841.083 244.359 841.281 245.348 841.462 246.338L840.478 246.518C840.299 245.539 840.104 244.561 839.891 243.583L840.868 243.371ZM841.958 249.334C842.106 250.333 842.237 251.333 842.352 252.333L841.358 252.447C841.245 251.458 841.115 250.469 840.968 249.48L841.958 249.334ZM842.646 255.347C842.728 256.355 842.793 257.364 842.842 258.373L841.843 258.421C841.795 257.423 841.731 256.425 841.65 255.427L842.646 255.347ZM842.939 261.399C842.955 262.408 842.954 263.418 842.938 264.427L841.938 264.41C841.954 263.412 841.955 262.413 841.939 261.415L842.939 261.399ZM842.84 267.454C842.792 268.463 842.728 269.471 842.648 270.478L841.651 270.399C841.73 269.402 841.794 268.404 841.841 267.406L842.84 267.454ZM842.362 273.491C842.252 274.493 842.126 275.494 841.986 276.495L840.996 276.355C841.135 275.365 841.259 274.374 841.368 273.382L842.362 273.491ZM841.519 279.491C841.349 280.483 841.165 281.474 840.966 282.464L839.986 282.267C840.183 281.287 840.365 280.305 840.533 279.323L841.519 279.491ZM840.329 285.421C840.102 286.406 839.861 287.388 839.606 288.369L838.638 288.117C838.891 287.146 839.13 286.172 839.354 285.197L840.329 285.421ZM838.807 291.282C838.528 292.249 838.235 293.214 837.929 294.176L836.976 293.874C837.279 292.919 837.569 291.963 837.846 291.005L838.807 291.282ZM836.972 297.057C836.643 298.006 836.301 298.953 835.947 299.897L835.011 299.546C835.362 298.61 835.701 297.671 836.027 296.73L836.972 297.057ZM834.85 302.714C834.472 303.651 834.082 304.584 833.68 305.515L832.762 305.119C833.161 304.195 833.548 303.269 833.923 302.34L834.85 302.714ZM832.45 308.272C832.03 309.185 831.598 310.095 831.155 311.002L830.256 310.563C830.696 309.663 831.124 308.76 831.541 307.854L832.45 308.272ZM829.792 313.713C829.33 314.605 828.858 315.495 828.375 316.38L827.497 315.901C827.977 315.022 828.445 314.14 828.903 313.254L829.792 313.713ZM826.901 319.016C826.399 319.891 825.886 320.762 825.364 321.63L824.507 321.114C825.026 320.252 825.535 319.387 826.033 318.518L826.901 319.016ZM823.778 324.202C823.242 325.052 822.696 325.897 822.141 326.738L821.307 326.188C821.858 325.352 822.4 324.512 822.932 323.669L823.778 324.202ZM820.447 329.251C819.876 330.08 819.296 330.904 818.707 331.725L817.894 331.142C818.48 330.326 819.057 329.507 819.624 328.683L820.447 329.251ZM816.924 334.158C816.32 334.964 815.708 335.767 815.088 336.565L814.298 335.951C814.915 335.158 815.523 334.36 816.123 333.559L816.924 334.158ZM813.205 338.938C812.575 339.718 811.936 340.494 811.289 341.265L810.523 340.622C811.166 339.856 811.801 339.085 812.428 338.309L813.205 338.938ZM809.324 343.564C808.661 344.325 807.99 345.082 807.312 345.833L806.57 345.163C807.244 344.416 807.911 343.664 808.57 342.907L809.324 343.564ZM805.273 348.052C804.586 348.786 803.892 349.516 803.19 350.241L802.472 349.545C803.169 348.825 803.86 348.099 804.543 347.369L805.273 348.052ZM801.063 352.399C800.352 353.108 799.634 353.813 798.908 354.512L798.214 353.792C798.935 353.097 799.65 352.396 800.357 351.691L801.063 352.399ZM796.716 356.589C795.979 357.276 795.235 357.957 794.485 358.633L793.815 357.89C794.562 357.218 795.302 356.54 796.035 355.857L796.716 356.589ZM792.222 360.637C791.464 361.297 790.699 361.952 789.929 362.601L789.285 361.836C790.051 361.191 790.811 360.54 791.565 359.883L792.222 360.637ZM787.6 364.529C786.819 365.166 786.031 365.796 785.238 366.421L784.619 365.635C785.408 365.014 786.191 364.387 786.969 363.754L787.6 364.529ZM782.852 368.268C782.051 368.878 781.244 369.481 780.432 370.079L779.839 369.273C780.647 368.679 781.449 368.079 782.246 367.472L782.852 368.268ZM777.98 371.852C777.16 372.435 776.335 373.011 775.505 373.581L774.939 372.757C775.764 372.19 776.585 371.616 777.401 371.037L777.98 371.852ZM773 375.271C772.161 375.828 771.316 376.378 770.467 376.921L769.928 376.079C770.772 375.538 771.613 374.991 772.448 374.438L773 375.271ZM767.908 378.529C767.051 379.058 766.19 379.58 765.324 380.095L764.813 379.235C765.674 378.723 766.53 378.204 767.383 377.678L767.908 378.529ZM762.714 381.618C761.839 382.119 760.961 382.613 760.078 383.099L759.596 382.224C760.473 381.74 761.347 381.249 762.217 380.751L762.714 381.618ZM757.42 384.536C756.53 385.008 755.636 385.472 754.738 385.929L754.284 385.038C755.177 384.584 756.066 384.122 756.952 383.653L757.42 384.536ZM752.033 387.277C751.128 387.719 750.218 388.153 749.305 388.58L748.882 387.674C749.79 387.25 750.694 386.818 751.595 386.378L752.033 387.277ZM746.556 389.837C745.637 390.248 744.714 390.651 743.788 391.046L743.395 390.126C744.316 389.733 745.234 389.332 746.148 388.924L746.556 389.837ZM740.997 392.208C740.063 392.588 739.126 392.959 738.186 393.323L737.826 392.39C738.76 392.029 739.692 391.659 740.621 391.282L740.997 392.208ZM735.358 394.387C734.412 394.734 733.464 395.072 732.512 395.401L732.185 394.456C733.131 394.129 734.074 393.793 735.014 393.448L735.358 394.387ZM729.645 396.366C728.687 396.679 727.726 396.983 726.763 397.279L726.47 396.322C727.427 396.029 728.382 395.727 729.335 395.416L729.645 396.366ZM723.868 398.138C722.898 398.416 721.926 398.685 720.952 398.945L720.694 397.978C721.662 397.72 722.628 397.453 723.592 397.176L723.868 398.138ZM718.023 399.697C717.045 399.938 716.065 400.17 715.083 400.393L714.862 399.418C715.838 399.196 716.811 398.966 717.783 398.726L718.023 399.697ZM712.128 401.033C711.14 401.237 710.151 401.432 709.16 401.616L708.976 400.633C709.961 400.45 710.944 400.257 711.926 400.054L712.128 401.033ZM706.183 402.141C705.189 402.306 704.193 402.461 703.197 402.606L703.053 401.616C704.043 401.472 705.032 401.318 706.019 401.154L706.183 402.141ZM700.198 403.011C699.197 403.136 698.196 403.25 697.194 403.354L697.091 402.36C698.086 402.256 699.08 402.143 700.074 402.019L700.198 403.011ZM694.186 403.635C693.18 403.718 692.174 403.791 691.167 403.853L691.106 402.855C692.105 402.793 693.104 402.721 694.103 402.638L694.186 403.635ZM688.146 404.006C687.139 404.046 686.132 404.075 685.124 404.094L685.106 403.094C686.106 403.076 687.106 403.047 688.106 403.007L688.146 404.006ZM682.1 404.115C681.092 404.111 680.083 404.096 679.075 404.069L679.102 403.07C680.102 403.096 681.103 403.111 682.104 403.115L682.1 404.115ZM676.052 403.956C675.046 403.906 674.039 403.846 673.033 403.773L673.105 402.776C674.103 402.848 675.102 402.908 676.101 402.957L676.052 403.956ZM670.02 403.521C669.016 403.425 668.013 403.318 667.011 403.199L667.13 402.206C668.124 402.324 669.119 402.431 670.115 402.526L670.02 403.521ZM664.01 402.805C663.013 402.662 662.018 402.508 661.024 402.341L661.19 401.355C662.176 401.52 663.163 401.674 664.151 401.815L664.01 402.805ZM658.047 401.805C657.056 401.614 656.066 401.411 655.078 401.196L655.291 400.218C656.271 400.432 657.253 400.634 658.236 400.823L658.047 401.805ZM652.136 400.516C651.158 400.278 650.182 400.027 649.207 399.764L649.468 398.799C650.434 399.06 651.403 399.308 652.372 399.545L652.136 400.516ZM646.291 398.937C645.806 398.793 645.321 398.646 644.837 398.496L645.134 397.541C645.614 397.69 646.094 397.836 646.575 397.979L646.291 398.937ZM644.837 398.496C644.358 398.347 643.88 398.198 643.403 398.047L643.704 397.093C644.18 397.244 644.656 397.393 645.134 397.541L644.837 398.496ZM640.547 397.131C639.598 396.822 638.652 396.509 637.708 396.193L638.026 395.244C638.967 395.56 639.911 395.872 640.857 396.18L640.547 397.131ZM634.882 395.231C633.934 394.904 632.99 394.573 632.048 394.239L632.382 393.297C633.321 393.63 634.263 393.959 635.208 394.285L634.882 395.231ZM629.232 393.227C628.296 392.887 627.363 392.543 626.432 392.196L626.782 391.259C627.71 391.605 628.64 391.948 629.574 392.288L629.232 393.227ZM623.625 391.137C622.691 390.78 621.76 390.42 620.831 390.058L621.195 389.126C622.121 389.488 623.05 389.847 623.982 390.202L623.625 391.137ZM618.054 388.962C617.126 388.591 616.2 388.218 615.278 387.843L615.655 386.917C616.575 387.291 617.499 387.664 618.425 388.033L618.054 388.962ZM612.505 386.703C611.583 386.32 610.665 385.936 609.75 385.549L610.139 384.628C611.052 385.014 611.969 385.398 612.888 385.779L612.505 386.703ZM607.002 384.377C606.081 383.98 605.163 383.582 604.248 383.182L604.649 382.266C605.562 382.665 606.478 383.063 607.397 383.458L607.002 384.377ZM601.514 381.976C600.604 381.571 599.697 381.165 598.794 380.757L599.205 379.846C600.107 380.253 601.012 380.658 601.92 381.062L601.514 381.976ZM596.058 379.514C595.15 379.098 594.244 378.681 593.342 378.263L593.763 377.356C594.663 377.773 595.567 378.19 596.474 378.605L596.058 379.514ZM590.645 377.004C589.736 376.577 588.83 376.149 587.927 375.72L588.356 374.817C589.258 375.245 590.162 375.672 591.07 376.099L590.645 377.004ZM585.227 374.43C584.331 373.999 583.437 373.567 582.547 373.135L582.984 372.236C583.873 372.667 584.765 373.098 585.66 373.528L585.227 374.43ZM579.848 371.819C578.949 371.379 578.054 370.938 577.162 370.497L577.605 369.601C578.496 370.041 579.39 370.481 580.288 370.921L579.848 371.819ZM574.497 369.175C573.598 368.728 572.703 368.28 571.811 367.833L572.259 366.939C573.15 367.386 574.045 367.833 574.943 368.28L574.497 369.175ZM569.136 366.488C568.248 366.04 567.364 365.593 566.483 365.146L566.936 364.254C567.816 364.7 568.7 365.148 569.587 365.595L569.136 366.488ZM563.806 363.785C562.914 363.331 562.025 362.877 561.14 362.425L561.595 361.535C562.479 361.987 563.368 362.44 564.26 362.894L563.806 363.785ZM558.496 361.073C557.6 360.614 556.708 360.157 555.82 359.701L556.277 358.811C557.165 359.267 558.057 359.724 558.952 360.183L558.496 361.073ZM553.16 358.336C552.277 357.883 551.397 357.432 550.522 356.983L550.979 356.093C551.854 356.542 552.733 356.993 553.616 357.446L553.16 358.336ZM547.839 355.609C546.949 355.153 546.064 354.701 545.182 354.251L545.636 353.36C546.518 353.81 547.405 354.263 548.295 354.719L547.839 355.609ZM542.532 352.902C541.633 352.445 540.738 351.992 539.848 351.543L540.298 350.65C541.189 351.1 542.085 351.553 542.985 352.01L542.532 352.902ZM537.191 350.207C536.294 349.757 535.403 349.312 534.516 348.872L534.96 347.976C535.849 348.417 536.741 348.863 537.639 349.312L537.191 350.207ZM531.828 347.545C530.937 347.108 530.051 346.675 529.17 346.248L529.606 345.348C530.489 345.776 531.376 346.209 532.269 346.647L531.828 347.545ZM526.454 344.942C525.551 344.511 524.654 344.087 523.762 343.668L524.186 342.763C525.081 343.182 525.98 343.608 526.885 344.039L526.454 344.942ZM521.06 342.415C520.144 341.994 519.233 341.581 518.328 341.175L518.737 340.263C519.645 340.67 520.558 341.084 521.478 341.506L521.06 342.415ZM515.63 339.982C514.7 339.577 513.776 339.18 512.858 338.793L513.247 337.871C514.168 338.26 515.096 338.659 516.03 339.066L515.63 339.982ZM510.118 337.657C509.185 337.278 508.258 336.909 507.338 336.551L507.701 335.619C508.626 335.979 509.557 336.35 510.495 336.731L510.118 337.657ZM504.553 335.492C503.614 335.145 502.681 334.809 501.756 334.487L502.085 333.542C503.017 333.867 503.955 334.205 504.9 334.555L504.553 335.492ZM498.924 333.532C497.974 333.224 497.032 332.93 496.098 332.651L496.384 331.693C497.326 331.974 498.276 332.27 499.233 332.581L498.924 333.532ZM493.219 331.834C492.256 331.575 491.301 331.334 490.355 331.111L490.584 330.137C491.541 330.363 492.506 330.607 493.479 330.868L493.219 331.834ZM487.436 330.475C486.456 330.28 485.486 330.106 484.526 329.954L484.682 328.966C485.656 329.12 486.639 329.296 487.631 329.494L487.436 330.475ZM481.58 329.553C480.586 329.441 479.603 329.355 478.63 329.294L478.692 328.296C479.682 328.358 480.682 328.446 481.692 328.559L481.58 329.553ZM475.681 329.194C474.681 329.189 473.693 329.214 472.717 329.271L472.659 328.272C473.657 328.214 474.666 328.189 475.687 328.194L475.681 329.194ZM469.793 329.541C468.807 329.667 467.834 329.828 466.874 330.026L466.672 329.047C467.657 328.844 468.655 328.678 469.666 328.549L469.793 329.541ZM464.019 330.733C463.076 331.008 462.145 331.322 461.228 331.675L460.868 330.742C461.812 330.379 462.77 330.056 463.74 329.773L464.019 330.733ZM458.536 332.846C457.659 333.273 456.793 333.74 455.941 334.248L455.429 333.389C456.306 332.866 457.196 332.386 458.099 331.947L458.536 332.846ZM453.482 335.854C452.695 336.415 451.92 337.014 451.155 337.653L450.514 336.886C451.298 336.231 452.094 335.616 452.902 335.04L453.482 335.854ZM448.951 339.636C448.262 340.301 447.582 341.002 446.913 341.738L446.173 341.066C446.857 340.313 447.551 339.597 448.256 338.916L448.951 339.636ZM444.968 344.012C444.371 344.754 443.781 345.528 443.2 346.334L442.389 345.748C442.98 344.929 443.58 344.141 444.189 343.385L444.968 344.012ZM441.504 348.809C440.983 349.61 440.468 350.439 439.961 351.297L439.1 350.787C439.615 349.918 440.136 349.077 440.666 348.264L441.504 348.809ZM438.492 353.895C438.25 354.341 438.011 354.795 437.772 355.255L436.884 354.796C437.125 354.33 437.368 353.871 437.612 353.419L438.492 353.895ZM437.772 355.255C437.544 355.697 437.316 356.138 437.088 356.58L436.2 356.121C436.428 355.679 436.656 355.238 436.884 354.796L437.772 355.255ZM435.721 359.233C435.265 360.118 434.81 361.004 434.354 361.89L433.465 361.432C433.92 360.546 434.376 359.661 434.832 358.775L435.721 359.233ZM432.99 364.545C432.535 365.431 432.08 366.316 431.625 367.201L430.735 366.744C431.19 365.859 431.645 364.974 432.1 364.088L432.99 364.545ZM430.257 369.858C429.801 370.743 429.344 371.628 428.887 372.511L427.999 372.052C428.456 371.169 428.912 370.284 429.368 369.399L430.257 369.858ZM427.513 375.163C427.053 376.048 426.593 376.932 426.132 377.814L425.246 377.351C425.706 376.47 426.166 375.587 426.625 374.702L427.513 375.163ZM424.747 380.456C424.282 381.341 423.815 382.223 423.348 383.103L422.465 382.635C422.931 381.756 423.397 380.874 423.862 379.99L424.747 380.456ZM421.945 385.737C421.473 386.618 421 387.496 420.526 388.371L419.647 387.895C420.12 387.021 420.592 386.144 421.063 385.265L421.945 385.737ZM419.096 390.995C418.617 391.871 418.136 392.742 417.653 393.61L416.779 393.125C417.261 392.258 417.741 391.388 418.22 390.515L419.096 390.995ZM416.191 396.223C415.701 397.091 415.21 397.954 414.718 398.813L413.85 398.315C414.341 397.459 414.831 396.597 415.32 395.732L416.191 396.223ZM413.214 401.411C412.711 402.272 412.207 403.128 411.7 403.979L410.841 403.467C411.346 402.619 411.849 401.765 412.351 400.907L413.214 401.411ZM410.153 406.549C409.633 407.403 409.111 408.251 408.588 409.092L407.739 408.564C408.261 407.725 408.781 406.88 409.298 406.029L410.153 406.549ZM406.99 411.626C406.451 412.471 405.909 413.308 405.365 414.138L404.529 413.59C405.071 412.763 405.61 411.929 406.147 411.088L406.99 411.626ZM403.709 416.628C403.146 417.461 402.581 418.285 402.013 419.101L401.193 418.529C401.758 417.718 402.32 416.897 402.88 416.069L403.709 416.628ZM400.287 421.538C399.699 422.355 399.107 423.163 398.511 423.96L397.71 423.362C398.302 422.569 398.891 421.766 399.476 420.954L400.287 421.538ZM396.704 426.335C396.085 427.132 395.462 427.918 394.835 428.692L394.058 428.063C394.68 427.294 395.299 426.514 395.914 425.722L396.704 426.335ZM392.932 430.991C392.279 431.762 391.621 432.521 390.959 433.265L390.212 432.601C390.869 431.862 391.521 431.11 392.169 430.345L392.932 430.991ZM388.945 435.472C388.253 436.209 387.557 436.932 386.855 437.639L386.145 436.934C386.84 436.234 387.53 435.518 388.215 434.788L388.945 435.472ZM384.713 439.73C383.979 440.424 383.239 441.101 382.493 441.761L381.831 441.011C382.568 440.36 383.3 439.69 384.026 439.004L384.713 439.73ZM380.208 443.707C379.429 444.347 378.642 444.967 377.849 445.566L377.246 444.768C378.029 444.177 378.805 443.565 379.574 442.934L380.208 443.707ZM375.409 447.329C374.581 447.9 373.745 448.449 372.902 448.975L372.372 448.127C373.203 447.609 374.025 447.069 374.841 446.506L375.409 447.329ZM370.301 450.509C369.423 450.997 368.535 451.461 367.639 451.899L367.2 451.001C368.08 450.571 368.952 450.115 369.815 449.635L370.301 450.509ZM364.892 453.149C363.966 453.539 363.03 453.902 362.085 454.236L361.751 453.294C362.678 452.966 363.595 452.61 364.504 452.227L364.892 453.149ZM359.212 455.156C358.249 455.433 357.277 455.68 356.294 455.897L356.078 454.921C357.04 454.708 357.993 454.466 358.936 454.195L359.212 455.156ZM353.322 456.458C352.339 456.611 351.345 456.735 350.342 456.829L350.249 455.833C351.232 455.742 352.205 455.62 353.168 455.47L353.322 456.458ZM347.327 457.016C346.334 457.048 345.331 457.049 344.319 457.021L344.347 456.022C345.34 456.049 346.323 456.047 347.296 456.017L347.327 457.016ZM341.313 456.85C340.323 456.766 339.324 456.653 338.315 456.511L338.455 455.52C339.446 455.66 340.427 455.771 341.398 455.854L341.313 456.85ZM335.358 456.015C334.383 455.827 333.399 455.611 332.407 455.368L332.644 454.397C333.621 454.636 334.589 454.848 335.548 455.034L335.358 456.015ZM329.517 454.591C328.567 454.313 327.609 454.01 326.642 453.682L326.964 452.735C327.917 453.059 328.862 453.358 329.798 453.632L329.517 454.591ZM323.823 452.663C322.904 452.311 321.978 451.936 321.045 451.539L321.437 450.618C322.359 451.011 323.274 451.381 324.181 451.729L323.823 452.663ZM318.283 450.306C317.4 449.895 316.511 449.463 315.615 449.011L316.066 448.119C316.952 448.566 317.832 448.993 318.706 449.4L318.283 450.306ZM312.908 447.595C312.057 447.134 311.201 446.655 310.338 446.158L310.838 445.291C311.693 445.784 312.542 446.259 313.384 446.716L312.908 447.595ZM307.752 444.623C306.904 444.105 306.05 443.57 305.19 443.017L305.73 442.176C306.584 442.725 307.431 443.256 308.273 443.769L307.752 444.623ZM302.726 441.396C301.9 440.839 301.068 440.267 300.232 439.678L300.807 438.86C301.638 439.445 302.464 440.014 303.285 440.566L302.726 441.396ZM297.8 437.932C297.014 437.357 296.224 436.768 295.429 436.164L296.034 435.368C296.824 435.968 297.61 436.554 298.39 437.126L297.8 437.932ZM293.03 434.311C292.627 433.995 292.224 433.675 291.819 433.351L292.444 432.57C292.846 432.892 293.248 433.21 293.648 433.524L293.03 434.311Z" fill="url(#paint3_linear_16266_270)" fill-opacity="0.5"/>
<path d="M638.591 489.753L654.866 506.774L556.313 495.563L638.591 489.753Z" fill="white" fill-opacity="0.1"/>
<path d="M561.761 495.68L653.55 506.121L638.392 490.268L561.761 495.68Z" stroke="url(#paint4_linear_16266_270)" stroke-opacity="0.1"/>
<path d="M630.771 504.04L654.874 506.78L625.416 522.623L630.771 504.04Z" fill="white" fill-opacity="0.15"/>
<path d="M626.226 521.62L653.23 507.096L631.134 504.585L626.226 521.62Z" stroke="url(#paint5_linear_16266_270)" stroke-opacity="0.1"/>
<path d="M532.323 492.235L653.666 457.733C654.419 457.515 655.221 457.536 655.961 457.793C656.702 458.05 657.345 458.531 657.801 459.168C658.257 459.806 658.504 460.569 658.508 461.353C658.512 462.137 658.273 462.903 657.823 463.545L639.613 489.883L557.346 495.457L631.882 503.706L616.93 555.196C616.581 556.436 615.928 557.57 615.031 558.493C614.133 559.417 613.019 560.102 611.789 560.486C610.56 560.869 609.254 560.94 607.99 560.69C606.726 560.441 605.545 559.88 604.553 559.058L530.896 498.834C530.36 498.389 529.956 497.806 529.728 497.148C529.501 496.49 529.458 495.782 529.606 495.101C529.753 494.42 530.084 493.793 530.563 493.288C531.042 492.782 531.651 492.418 532.323 492.235Z" fill="white" fill-opacity="0.2"/>
<path d="M532.46 492.716L532.455 492.717C531.871 492.876 531.342 493.193 530.926 493.632C530.51 494.071 530.222 494.615 530.094 495.207L529.606 495.101L530.094 495.207C529.966 495.798 530.003 496.413 530.201 496.985C530.398 497.556 530.748 498.062 531.213 498.447C531.214 498.448 531.214 498.448 531.215 498.449L604.869 558.671L604.872 558.673C605.799 559.442 606.905 559.967 608.087 560.2C609.269 560.433 610.49 560.367 611.64 560.008C612.79 559.649 613.832 559.009 614.672 558.145C615.512 557.281 616.122 556.221 616.448 555.061L616.449 555.057L631.236 504.138L557.291 495.954L557.313 494.958L639.339 489.401L657.412 463.261L657.414 463.258C657.804 462.701 658.011 462.036 658.008 461.356C658.004 460.675 657.79 460.013 657.394 459.459C656.998 458.906 656.44 458.489 655.797 458.266L655.961 457.795L655.797 458.266C655.155 458.043 654.458 458.024 653.805 458.214L653.802 458.214L532.46 492.716Z" stroke="url(#paint6_linear_16266_270)" stroke-opacity="0.3"/>
<path d="M905.496 371.083C905.515 370.808 905.753 370.599 906.029 370.618C906.304 370.636 906.512 370.874 906.494 371.15L905.496 371.083ZM842.137 437.182L841.954 437.648L842.137 437.182ZM924.223 414.725L923.762 414.918L924.223 414.725ZM833.914 495.517L833.765 495.994L833.914 495.517ZM735.423 475.126L734.979 474.896L735.423 475.126ZM906.494 371.15C906.461 371.646 906.424 372.148 906.383 372.657L905.386 372.577C905.427 372.073 905.463 371.574 905.496 371.083L906.494 371.15ZM906.1 375.704C905.995 376.698 905.876 377.712 905.743 378.742L904.751 378.614C904.883 377.592 905.001 376.586 905.105 375.599L906.1 375.704ZM905.316 381.771C905.164 382.765 904.999 383.772 904.82 384.789L903.835 384.616C904.013 383.607 904.176 382.607 904.327 381.62L905.316 381.771ZM904.257 387.795C904.059 388.787 903.849 389.786 903.625 390.789L902.649 390.571C902.871 389.575 903.08 388.584 903.276 387.6L904.257 387.795ZM902.924 393.767C902.679 394.752 902.422 395.74 902.151 396.728L901.187 396.464C901.455 395.484 901.711 394.504 901.953 393.527L902.924 393.767ZM901.306 399.666C901.012 400.64 900.705 401.613 900.384 402.583L899.435 402.268C899.753 401.308 900.057 400.343 900.349 399.377L901.306 399.666ZM899.381 405.474C899.032 406.434 898.669 407.389 898.292 408.336L897.363 407.966C897.736 407.029 898.095 406.084 898.441 405.133L899.381 405.474ZM897.113 411.163C896.704 412.101 896.279 413.03 895.839 413.948L894.937 413.516C895.372 412.609 895.792 411.691 896.197 410.763L897.113 411.163ZM894.462 416.685C893.982 417.593 893.487 418.487 892.974 419.366L892.111 418.862C892.615 417.996 893.104 417.114 893.577 416.218L894.462 416.685ZM891.368 421.982C890.808 422.847 890.23 423.694 889.634 424.519L888.824 423.934C889.409 423.123 889.977 422.29 890.528 421.439L891.368 421.982ZM887.767 426.961C887.116 427.763 886.447 428.54 885.756 429.29L885.02 428.613C885.696 427.879 886.352 427.117 886.99 426.331L887.767 426.961ZM883.597 431.485C882.848 432.195 882.077 432.874 881.283 433.521L880.652 432.746C881.425 432.116 882.177 431.453 882.909 430.759L883.597 431.485ZM878.816 435.372C877.968 435.955 877.096 436.502 876.2 437.009L875.707 436.139C876.577 435.647 877.424 435.115 878.25 434.548L878.816 435.372ZM873.446 438.407C872.512 438.828 871.554 439.208 870.573 439.543L870.249 438.597C871.201 438.272 872.129 437.904 873.035 437.496L873.446 438.407ZM867.604 440.403C866.614 440.639 865.601 440.832 864.566 440.979L864.425 439.989C865.43 439.846 866.412 439.659 867.372 439.43L867.604 440.403ZM861.486 441.277C860.478 441.33 859.45 441.34 858.401 441.308L858.433 440.308C859.454 440.34 860.454 440.33 861.434 440.278L861.486 441.277ZM855.338 441.092C854.342 440.984 853.329 440.838 852.299 440.652L852.476 439.668C853.484 439.85 854.474 439.993 855.446 440.098L855.338 441.092ZM849.286 440.008C848.306 439.766 847.31 439.49 846.3 439.178L846.596 438.222C847.588 438.529 848.564 438.8 849.525 439.037L849.286 440.008ZM843.422 438.205C842.936 438.027 842.447 437.842 841.954 437.648L842.321 436.717C842.806 436.908 843.287 437.091 843.765 437.266L843.422 438.205ZM841.954 437.648C841.451 437.45 840.961 437.25 840.485 437.049L840.874 436.127C841.343 436.325 841.825 436.522 842.321 436.717L841.954 437.648ZM837.779 435.823C836.82 435.355 835.925 434.879 835.092 434.397L835.594 433.532C836.404 434.001 837.278 434.465 838.218 434.924L837.779 435.823ZM832.602 432.805C831.724 432.182 830.94 431.548 830.248 430.905L830.929 430.172C831.586 430.782 832.334 431.389 833.181 431.99L832.602 432.805ZM828.193 428.616C827.546 427.726 827.056 426.821 826.718 425.905L827.656 425.559C827.959 426.38 828.403 427.204 829.002 428.027L828.193 428.616ZM826.147 422.84C826.137 421.809 826.304 420.783 826.631 419.768L827.583 420.075C827.286 420.996 827.138 421.916 827.147 422.83L826.147 422.84ZM827.934 416.984C828.443 416.155 829.052 415.337 829.751 414.533L830.505 415.19C829.838 415.957 829.263 416.731 828.787 417.507L827.934 416.984ZM831.885 412.369C832.606 411.715 833.387 411.072 834.221 410.44L834.825 411.237C834.011 411.853 833.254 412.478 832.556 413.11L831.885 412.369ZM836.658 408.729C837.471 408.197 838.323 407.675 839.21 407.165L839.709 408.031C838.837 408.533 838.002 409.045 837.205 409.566L836.658 408.729ZM841.858 405.726C842.727 405.28 843.623 404.844 844.542 404.419L844.962 405.327C844.054 405.746 843.17 406.176 842.314 406.615L841.858 405.726ZM847.273 403.221C848.186 402.841 849.119 402.471 850.069 402.112L850.422 403.048C849.482 403.402 848.56 403.768 847.658 404.144L847.273 403.221ZM852.865 401.108C853.8 400.789 854.748 400.481 855.709 400.185L856.004 401.14C855.052 401.434 854.113 401.739 853.188 402.054L852.865 401.108ZM858.577 399.346C859.529 399.082 860.491 398.83 861.461 398.59L861.701 399.561C860.74 399.799 859.787 400.048 858.844 400.309L858.577 399.346ZM864.376 397.913C865.343 397.702 866.317 397.504 867.295 397.318L867.481 398.301C866.512 398.484 865.547 398.681 864.589 398.89L864.376 397.913ZM870.238 396.803C871.219 396.645 872.204 396.501 873.19 396.371L873.321 397.362C872.344 397.491 871.369 397.634 870.397 397.79L870.238 396.803ZM876.157 396.022C877.148 395.92 878.139 395.833 879.13 395.761L879.202 396.759C878.222 396.83 877.24 396.916 876.259 397.017L876.157 396.022ZM882.115 395.592C883.112 395.551 884.105 395.527 885.094 395.519L885.102 396.519C884.124 396.527 883.142 396.551 882.156 396.591L882.115 395.592ZM888.092 395.549C889.091 395.577 890.084 395.623 891.07 395.688L891.004 396.685C890.032 396.621 889.051 396.576 888.064 396.548L888.092 395.549ZM894.058 395.946C895.058 396.054 896.048 396.183 897.026 396.333L896.874 397.322C895.911 397.174 894.936 397.047 893.951 396.941L894.058 395.946ZM899.965 396.86C900.958 397.064 901.936 397.292 902.897 397.546L902.641 398.513C901.7 398.264 900.74 398.04 899.764 397.839L899.965 396.86ZM905.764 398.398C906.726 398.717 907.666 399.065 908.583 399.442L908.203 400.367C907.308 399.999 906.39 399.659 905.449 399.347L905.764 398.398ZM911.325 400.696C912.227 401.154 913.1 401.644 913.943 402.169L913.414 403.018C912.597 402.509 911.75 402.033 910.873 401.588L911.325 400.696ZM916.424 403.888C917.226 404.505 917.992 405.16 918.718 405.855L918.027 406.578C917.328 405.909 916.589 405.276 915.814 404.68L916.424 403.888ZM920.777 408.064C921.42 408.839 922.019 409.654 922.572 410.511L921.731 411.053C921.201 410.23 920.625 409.447 920.007 408.702L920.777 408.064ZM924.051 413.133C924.274 413.589 924.485 414.056 924.685 414.532L923.762 414.918C923.57 414.459 923.367 414.011 923.153 413.572L924.051 413.133ZM924.685 414.532C924.885 415.011 925.076 415.491 925.257 415.972L924.322 416.325C924.144 415.855 923.958 415.386 923.762 414.918L924.685 414.532ZM926.239 418.871C926.536 419.861 926.795 420.854 927.018 421.849L926.042 422.068C925.825 421.096 925.571 420.126 925.281 419.159L926.239 418.871ZM927.583 424.869C927.736 425.884 927.852 426.901 927.932 427.918L926.935 427.996C926.857 427.003 926.743 426.009 926.594 425.018L927.583 424.869ZM928.068 430.986C928.078 432.01 928.053 433.033 927.994 434.055L926.995 433.997C927.053 432.997 927.078 431.996 927.068 430.995L928.068 430.986ZM927.716 437.11C927.591 438.124 927.433 439.136 927.244 440.144L926.261 439.959C926.447 438.971 926.601 437.98 926.724 436.988L927.716 437.11ZM926.587 443.139C926.34 444.126 926.063 445.109 925.757 446.087L924.803 445.789C925.103 444.828 925.375 443.864 925.617 442.895L926.587 443.139ZM924.763 448.987C924.407 449.941 924.024 450.889 923.615 451.831L922.698 451.433C923.1 450.506 923.476 449.574 923.826 448.637L924.763 448.987ZM922.329 454.604C921.879 455.515 921.406 456.419 920.909 457.316L920.034 456.831C920.523 455.948 920.99 455.058 921.433 454.161L922.329 454.604ZM919.362 459.963C918.831 460.826 918.279 461.682 917.707 462.528L916.878 461.968C917.443 461.133 917.987 460.29 918.51 459.439L919.362 459.963ZM915.941 465.025C915.337 465.843 914.714 466.653 914.072 467.452L913.292 466.826C913.925 466.037 914.541 465.238 915.137 464.431L915.941 465.025ZM912.116 469.794C911.45 470.561 910.767 471.317 910.068 472.063L909.338 471.379C910.028 470.643 910.703 469.895 911.361 469.138L912.116 469.794ZM907.934 474.257C907.213 474.971 906.478 475.674 905.728 476.365L905.05 475.63C905.791 474.947 906.518 474.252 907.23 473.547L907.934 474.257ZM903.444 478.396C902.673 479.059 901.888 479.709 901.09 480.346L900.466 479.565C901.254 478.935 902.03 478.292 902.793 477.637L903.444 478.396ZM898.672 482.21C897.856 482.817 897.028 483.411 896.189 483.99L895.62 483.168C896.45 482.594 897.268 482.007 898.075 481.407L898.672 482.21ZM893.646 485.684C892.789 486.233 891.923 486.768 891.046 487.288L890.536 486.428C891.402 485.914 892.259 485.385 893.106 484.842L893.646 485.684ZM888.392 488.801C887.499 489.29 886.597 489.763 885.687 490.22L885.238 489.326C886.137 488.875 887.029 488.407 887.912 487.924L888.392 488.801ZM882.932 491.543C882.006 491.967 881.073 492.375 880.133 492.765L879.749 491.842C880.678 491.456 881.6 491.053 882.516 490.634L882.932 491.543ZM877.289 493.886C876.333 494.242 875.372 494.58 874.405 494.899L874.092 493.949C875.046 493.634 875.996 493.3 876.94 492.949L877.289 493.886ZM871.486 495.801C870.505 496.084 869.52 496.347 868.531 496.59L868.292 495.618C869.269 495.379 870.241 495.119 871.209 494.84L871.486 495.801ZM865.548 497.258C864.548 497.461 863.545 497.643 862.539 497.804L862.381 496.816C863.373 496.658 864.362 496.478 865.349 496.278L865.548 497.258ZM859.508 498.221C858.494 498.338 857.479 498.433 856.463 498.505L856.392 497.507C857.393 497.436 858.394 497.343 859.393 497.227L859.508 498.221ZM853.406 498.652C852.386 498.677 851.365 498.679 850.346 498.656L850.368 497.656C851.372 497.679 852.376 497.677 853.381 497.652L853.406 498.652ZM847.288 498.515C846.27 498.443 845.254 498.346 844.24 498.224L844.36 497.231C845.357 497.352 846.357 497.447 847.358 497.517L847.288 498.515ZM841.211 497.781C840.206 497.608 839.204 497.409 838.205 497.183L838.425 496.208C839.407 496.43 840.393 496.625 841.381 496.796L841.211 497.781ZM835.239 496.431C834.747 496.292 834.256 496.147 833.765 495.994L834.062 495.039C834.544 495.189 835.026 495.332 835.51 495.468L835.239 496.431ZM833.765 495.994C833.273 495.841 832.781 495.686 832.292 495.529L832.598 494.577C833.084 494.733 833.572 494.887 834.062 495.039L833.765 495.994ZM829.372 494.559C828.396 494.224 827.426 493.882 826.463 493.532L826.804 492.592C827.762 492.94 828.726 493.28 829.696 493.613L829.372 494.559ZM823.578 492.456C822.617 492.089 821.663 491.714 820.715 491.334L821.087 490.406C822.03 490.784 822.979 491.157 823.935 491.522L823.578 492.456ZM817.861 490.165C816.911 489.768 815.967 489.365 815.031 488.958L815.429 488.041C816.362 488.446 817.301 488.847 818.247 489.243L817.861 490.165ZM812.221 487.716C811.279 487.292 810.344 486.865 809.416 486.435L809.836 485.528C810.761 485.956 811.692 486.382 812.631 486.803L812.221 487.716ZM806.631 485.127C805.702 484.685 804.78 484.242 803.866 483.797L804.304 482.898C805.216 483.341 806.135 483.784 807.061 484.224L806.631 485.127ZM801.101 482.438C800.175 481.979 799.258 481.52 798.348 481.063L798.798 480.169C799.706 480.626 800.621 481.084 801.545 481.542L801.101 482.438ZM795.609 479.677C794.69 479.209 793.779 478.743 792.877 478.281L793.333 477.391C794.234 477.853 795.145 478.318 796.063 478.785L795.609 479.677ZM790.137 476.876C789.216 476.404 788.304 475.936 787.402 475.475L787.857 474.584C788.76 475.046 789.672 475.514 790.593 475.986L790.137 476.876ZM784.67 474.083C783.749 473.616 782.837 473.158 781.937 472.709L782.383 471.814C783.286 472.264 784.199 472.724 785.122 473.191L784.67 474.083ZM779.182 471.351C778.247 470.897 777.324 470.455 776.412 470.027L776.837 469.121C777.753 469.552 778.681 469.996 779.619 470.452L779.182 471.351ZM773.626 468.749C772.677 468.324 771.741 467.918 770.818 467.532L771.204 466.609C772.135 466.999 773.079 467.408 774.035 467.836L773.626 468.749ZM767.982 466.396C767.009 466.024 766.052 465.68 765.111 465.365L765.429 464.416C766.384 464.736 767.354 465.086 768.339 465.461L767.982 466.396ZM762.201 464.472C761.197 464.195 760.214 463.957 759.251 463.762L759.45 462.782C760.437 462.982 761.443 463.225 762.468 463.508L762.201 464.472ZM756.268 463.293C755.243 463.181 754.244 463.128 753.271 463.138L753.262 462.138C754.278 462.128 755.316 462.184 756.376 462.299L756.268 463.293ZM750.281 463.382C749.288 463.54 748.325 463.777 747.392 464.1L747.065 463.154C748.057 462.812 749.076 462.561 750.123 462.394L750.281 463.382ZM744.68 465.326C743.841 465.802 743.027 466.364 742.237 467.015L741.6 466.244C742.433 465.557 743.295 464.962 744.186 464.456L744.68 465.326ZM740.087 469.086C739.446 469.797 738.824 470.58 738.22 471.439L737.402 470.864C738.027 469.975 738.675 469.16 739.343 468.417L740.087 469.086ZM736.608 473.991C736.357 474.431 736.111 474.885 735.867 475.355L734.979 474.896C735.228 474.414 735.482 473.948 735.739 473.496L736.608 473.991ZM735.867 475.355C735.638 475.8 735.408 476.245 735.178 476.691L734.289 476.233C734.519 475.787 734.749 475.341 734.979 474.896L735.867 475.355ZM733.802 479.367C733.343 480.26 732.884 481.153 732.425 482.045L731.536 481.587C731.995 480.696 732.454 479.803 732.912 478.91L733.802 479.367ZM731.042 484.719C730.578 485.612 730.114 486.502 729.647 487.388L728.762 486.922C729.228 486.039 729.692 485.15 730.155 484.258L731.042 484.719ZM728.233 490.049C727.756 490.939 727.276 491.823 726.794 492.7L725.918 492.217C726.398 491.344 726.876 490.464 727.352 489.577L728.233 490.049ZM725.322 495.334C724.821 496.215 724.317 497.086 723.809 497.947L722.948 497.438C723.453 496.583 723.954 495.716 724.452 494.84L725.322 495.334ZM722.248 500.532C721.713 501.397 721.174 502.249 720.629 503.084L719.791 502.538C720.331 501.71 720.867 500.865 721.397 500.007L722.248 500.532ZM718.94 505.594C718.357 506.432 717.767 507.251 717.17 508.049L716.37 507.45C716.959 506.662 717.542 505.852 718.119 505.023L718.94 505.594ZM715.305 510.438C714.657 511.232 713.999 512 713.331 512.74L712.589 512.069C713.245 511.343 713.892 510.588 714.531 509.805L715.305 510.438ZM711.23 514.932C710.495 515.653 709.747 516.338 708.985 516.984L708.338 516.221C709.08 515.592 709.81 514.923 710.529 514.218L711.23 514.932ZM706.575 518.862C705.733 519.46 704.874 520.011 703.996 520.51L703.502 519.641C704.349 519.159 705.179 518.627 705.995 518.047L706.575 518.862ZM701.253 521.872C700.309 522.273 699.345 522.616 698.359 522.895L698.087 521.932C699.031 521.665 699.955 521.337 700.861 520.952L701.253 521.872ZM695.354 523.534C694.356 523.678 693.338 523.759 692.297 523.772L692.284 522.772C693.281 522.759 694.257 522.682 695.212 522.544L695.354 523.534ZM689.237 523.621C688.249 523.513 687.243 523.346 686.218 523.118L686.435 522.142C687.426 522.362 688.396 522.523 689.346 522.627L689.237 523.621ZM683.273 522.31C682.337 522.006 681.386 521.653 680.418 521.249L680.804 520.326C681.747 520.72 682.673 521.064 683.582 521.359L683.273 522.31ZM677.657 519.978C676.78 519.537 675.889 519.056 674.985 518.533L675.486 517.667C676.374 518.181 677.247 518.653 678.106 519.084L677.657 519.978ZM672.39 516.939C671.562 516.403 670.724 515.832 669.874 515.226L670.454 514.412C671.293 515.009 672.119 515.572 672.934 516.1L672.39 516.939ZM667.465 513.438C667.061 513.126 666.654 512.807 666.245 512.48L666.87 511.699C667.274 512.023 667.676 512.338 668.075 512.646L667.465 513.438Z" fill="url(#paint7_linear_16266_270)" fill-opacity="0.5"/>
<defs>
<linearGradient id="paint0_linear_16266_270" x1="123.264" y1="437.942" x2="211.811" y2="449.892" gradientUnits="userSpaceOnUse">
<stop stop-color="white" stop-opacity="0"/>
<stop offset="1" stop-color="white"/>
</linearGradient>
<linearGradient id="paint1_linear_16266_270" x1="211.666" y1="441.989" x2="237.509" y2="453.87" gradientUnits="userSpaceOnUse">
<stop stop-color="white" stop-opacity="0"/>
<stop offset="1" stop-color="white"/>
</linearGradient>
<linearGradient id="paint2_linear_16266_270" x1="101.174" y1="454" x2="242.749" y2="482.967" gradientUnits="userSpaceOnUse">
<stop stop-color="white"/>
<stop offset="1" stop-color="white" stop-opacity="0"/>
</linearGradient>
<linearGradient id="paint3_linear_16266_270" x1="457.243" y1="245.149" x2="580.431" y2="494.623" gradientUnits="userSpaceOnUse">
<stop stop-color="white" stop-opacity="0"/>
<stop offset="1" stop-color="white"/>
</linearGradient>
<linearGradient id="paint4_linear_16266_270" x1="586.465" y1="514.451" x2="628.462" y2="520.12" gradientUnits="userSpaceOnUse">
<stop stop-color="white" stop-opacity="0"/>
<stop offset="1" stop-color="white"/>
</linearGradient>
<linearGradient id="paint5_linear_16266_270" x1="628.393" y1="516.372" x2="640.65" y2="522.006" gradientUnits="userSpaceOnUse">
<stop stop-color="white" stop-opacity="0"/>
<stop offset="1" stop-color="white"/>
</linearGradient>
<linearGradient id="paint6_linear_16266_270" x1="575.987" y1="522.068" x2="643.136" y2="535.807" gradientUnits="userSpaceOnUse">
<stop stop-color="white"/>
<stop offset="1" stop-color="white" stop-opacity="0"/>
</linearGradient>
<linearGradient id="paint7_linear_16266_270" x1="744.869" y1="423.012" x2="803.296" y2="541.336" gradientUnits="userSpaceOnUse">
<stop stop-color="white" stop-opacity="0"/>
<stop offset="1" stop-color="white"/>
</linearGradient>
</defs>
</svg>
