<svg width="534" height="333" viewBox="0 0 534 333" fill="none" xmlns="http://www.w3.org/2000/svg">
<path d="M442.517 273.972L449.08 347.212L230.407 127.89L442.517 273.972Z" fill="white" fill-opacity="0.1"/>
<path d="M234.593 131.38L448.458 345.88L442.04 274.25L234.593 131.38Z" stroke="url(#paint0_linear_16147_8870)" stroke-opacity="0.1"/>
<path d="M395.607 293.604L449.093 347.238L346.343 328.524L395.607 293.604Z" fill="white" fill-opacity="0.15"/>
<path d="M347.602 328.245L447.611 346.46L395.552 294.257L347.602 328.245Z" stroke="url(#paint1_linear_16147_8870)" stroke-opacity="0.1"/>
<path d="M175.838 72.3606L539.164 224.515C541.426 225.45 543.342 227.063 544.649 229.133C545.956 231.202 546.589 233.626 546.46 236.071C546.331 238.515 545.447 240.859 543.93 242.78C542.413 244.701 540.338 246.104 537.99 246.796L442.247 275.602L230.629 128.963L396.457 294.277L259.674 390.807C256.409 393.155 252.608 394.649 248.618 395.155C244.628 395.661 240.575 395.161 236.827 393.703C233.079 392.244 229.755 389.872 227.156 386.803C224.558 383.733 222.767 380.063 221.947 376.125L159.501 85.684C159.059 83.555 159.209 81.3453 159.936 79.2958C160.663 77.2463 161.938 75.4357 163.623 74.0613C165.308 72.6869 167.339 71.8016 169.492 71.5017C171.646 71.2018 173.841 71.4989 175.838 72.3606Z" fill="white" fill-opacity="0.2"/>
<path d="M175.644 72.8218L175.639 72.8197C173.727 71.9942 171.624 71.7096 169.561 71.9969C167.498 72.2842 165.554 73.1323 163.939 74.4488C162.325 75.7653 161.103 77.4997 160.407 79.4629C159.711 81.4262 159.567 83.5428 159.991 85.5822L222.436 376.02L222.437 376.023C223.24 379.879 224.993 383.473 227.538 386.48C230.083 389.486 233.338 391.808 237.008 393.237C240.679 394.665 244.648 395.154 248.556 394.659C252.463 394.164 256.185 392.7 259.383 390.401L259.386 390.399L395.683 294.212L230.276 129.317L230.914 128.552L442.334 275.054L537.846 246.317L537.848 246.316C540.097 245.654 542.085 244.31 543.538 242.47C544.991 240.631 545.837 238.385 545.96 236.044C546.084 233.703 545.478 231.382 544.226 229.4C542.975 227.417 541.139 225.872 538.973 224.977L538.97 224.976L175.644 72.8218Z" stroke="url(#paint2_linear_16147_8870)" stroke-opacity="0.3"/>
<path d="M59.4119 204.295L46.0167 214.715L61.2748 144.884L59.4119 204.295Z" fill="white" fill-opacity="0.1"/>
<path d="M60.605 150.292L46.8001 213.472L58.9195 204.045L60.605 150.292Z" stroke="url(#paint3_linear_16147_8870)" stroke-opacity="0.1"/>
<path d="M49.7434 197.642L46.0136 214.721L36.8137 192.441L49.7434 197.642Z" fill="white" fill-opacity="0.15"/>
<path d="M37.7293 193.349L45.866 213.053L49.1648 197.948L37.7293 193.349Z" stroke="url(#paint4_linear_16147_8870)" stroke-opacity="0.1"/>
<path d="M65.4194 127.93L81.2626 217.448C81.3637 218.004 81.29 218.577 81.0515 219.089C80.813 219.601 80.4215 220.027 79.931 220.307C79.4405 220.587 78.8752 220.708 78.3129 220.654C77.7506 220.599 77.2191 220.372 76.7916 220.003L59.2439 205.018L61.2764 145.633L49.9008 198.463L14.0836 183.97C13.2201 183.63 12.4554 183.079 11.859 182.368C11.2626 181.656 10.8533 180.807 10.6683 179.898C10.4833 178.988 10.5285 178.047 10.7997 177.159C11.071 176.271 11.5597 175.465 12.2216 174.815L60.7933 126.423C61.1513 126.071 61.5989 125.824 62.0875 125.709C62.576 125.594 63.0867 125.616 63.5639 125.771C64.0411 125.927 64.4665 126.21 64.7937 126.591C65.1209 126.971 65.3373 127.434 65.4194 127.93Z" fill="white" fill-opacity="0.2"/>
<path d="M64.927 128.017L64.9261 128.011C64.859 127.607 64.6821 127.228 64.4145 126.917C64.147 126.606 63.7993 126.374 63.4091 126.247C63.0189 126.12 62.6014 126.102 62.2019 126.196C61.8031 126.29 61.4376 126.491 61.1452 126.778C61.1447 126.779 61.1443 126.779 61.1438 126.779L12.5745 175.169L12.5721 175.171C11.9697 175.764 11.5248 176.497 11.2779 177.305C11.031 178.113 10.9899 178.97 11.1582 179.798C11.3266 180.626 11.6992 181.399 12.2421 182.046C12.785 182.694 13.4811 183.195 14.2671 183.505L14.2711 183.507L49.5372 197.776L60.7876 145.527L61.7761 145.65L59.7519 204.794L77.1163 219.622L77.1185 219.624C77.4677 219.926 77.9019 220.112 78.3612 220.156C78.8205 220.201 79.2823 220.102 79.6829 219.873C80.0836 219.644 80.4034 219.296 80.5982 218.878C80.793 218.46 80.8533 217.991 80.7707 217.537L80.7703 217.535L64.927 128.017Z" stroke="url(#paint5_linear_16147_8870)" stroke-opacity="0.3"/>
<path d="M44.136 227.422C44.2247 227.161 44.0845 226.877 43.823 226.788C43.5615 226.7 43.2776 226.84 43.189 227.101L44.136 227.422ZM59.7047 268.197L59.6952 268.697L59.7047 268.197ZM27.6203 243.181L27.9725 243.536L27.6203 243.181ZM52.6273 295.487L52.8084 295.953L52.6273 295.487ZM99.8101 304.583L99.3118 304.625L99.8101 304.583ZM43.189 227.101C43.0361 227.552 42.8848 228.018 42.7361 228.497L43.6912 228.794C43.8374 228.323 43.986 227.865 44.136 227.422L43.189 227.101ZM41.9331 231.323C41.6941 232.245 41.4683 233.2 41.2608 234.181L42.2391 234.388C42.4435 233.422 42.6658 232.482 42.9011 231.574L41.9331 231.323ZM40.7183 237.065C40.5611 238.022 40.4242 238.994 40.3116 239.975L41.3051 240.089C41.4157 239.125 41.5504 238.169 41.705 237.227L40.7183 237.065ZM40.0538 242.906C39.9945 243.886 39.9631 244.868 39.9635 245.848L40.9635 245.848C40.9631 244.89 40.9938 243.927 41.052 242.966L40.0538 242.906ZM40.0667 248.796C40.1376 249.787 40.2464 250.769 40.3978 251.733L41.3857 251.578C41.239 250.644 41.1332 249.69 41.0642 248.725L40.0667 248.796ZM41.0007 254.634C41.2559 255.604 41.5633 256.548 41.9285 257.458L42.8566 257.086C42.5082 256.217 42.2133 255.313 41.9677 254.38L41.0007 254.634ZM43.2379 260.142C43.7452 261.006 44.3205 261.824 44.9699 262.588L45.7317 261.94C45.1221 261.223 44.58 260.452 44.1003 259.636L43.2379 260.142ZM47.12 264.683C47.8817 265.296 48.714 265.85 49.6215 266.336L50.094 265.455C49.2409 264.997 48.4603 264.478 47.7471 263.904L47.12 264.683ZM52.3692 267.52C53.2749 267.825 54.2384 268.075 55.2622 268.265L55.4448 267.282C54.4649 267.1 53.5473 266.861 52.6885 266.572L52.3692 267.52ZM58.1989 268.631C58.686 268.665 59.1847 268.687 59.6952 268.697L59.7143 267.697C59.2198 267.687 58.7377 267.666 58.2676 267.634L58.1989 268.631ZM59.6952 268.697C60.2397 268.707 60.7604 268.703 61.2577 268.687L61.2238 267.687C60.7454 267.703 60.2425 267.707 59.7143 267.697L59.6952 268.697ZM64.2536 268.377C65.4216 268.157 66.4069 267.828 67.216 267.395L66.7449 266.513C66.0453 266.887 65.1614 267.188 64.0684 267.394L64.2536 268.377ZM69.5102 265.158C69.9907 264.203 70.1121 263.12 69.9535 261.975L68.963 262.113C69.1003 263.103 68.9869 263.973 68.6168 264.709L69.5102 265.158ZM69.0183 259.009C68.6148 258.15 68.0986 257.269 67.4867 256.378L66.6625 256.944C67.2493 257.799 67.7368 258.633 68.1132 259.434L69.0183 259.009ZM65.6383 253.989C65.0078 253.254 64.3212 252.519 63.5864 251.791L62.8825 252.501C63.5996 253.212 64.2677 253.927 64.8793 254.64L65.6383 253.989ZM61.3773 249.748C60.6334 249.104 59.8556 248.471 59.0496 247.855L58.4422 248.649C59.2325 249.254 59.9947 249.874 60.7229 250.504L61.3773 249.748ZM56.6179 246.105C55.7937 245.547 54.9483 245.01 54.0871 244.497L53.5757 245.356C54.4199 245.859 55.2489 246.386 56.0574 246.933L56.6179 246.105ZM51.464 243.041C50.5695 242.58 49.6639 242.149 48.7525 241.754L48.3547 242.672C49.2447 243.057 50.1302 243.478 51.0059 243.93L51.464 243.041ZM45.954 240.663C44.9883 240.329 44.0216 240.04 43.0603 239.803L42.8205 240.773C43.7502 241.003 44.6879 241.283 45.6273 241.608L45.954 240.663ZM40.0892 239.236C39.0659 239.101 38.0553 239.034 37.0658 239.043L37.0752 240.043C38.0134 240.034 38.9771 240.098 39.9586 240.227L40.0892 239.236ZM34.0216 239.336C33.0041 239.531 32.0217 239.827 31.0859 240.235L31.4854 241.151C32.3483 240.775 33.2593 240.5 34.2098 240.318L34.0216 239.336ZM28.4363 241.801C28.0319 242.114 27.6421 242.455 27.2681 242.826L27.9725 243.536C28.3175 243.194 28.6763 242.879 29.0481 242.592L28.4363 241.801ZM27.2681 242.826C26.8812 243.21 26.5182 243.609 26.1783 244.022L26.9501 244.657C27.2688 244.27 27.6094 243.896 27.9725 243.536L27.2681 242.826ZM24.3908 246.695C23.8867 247.637 23.4732 248.626 23.1439 249.654L24.0962 249.959C24.4082 248.986 24.7986 248.052 25.2725 247.166L24.3908 246.695ZM22.4132 252.767C22.2514 253.801 22.1589 254.862 22.1303 255.942L23.13 255.968C23.1575 254.928 23.2465 253.91 23.4012 252.922L22.4132 252.767ZM22.221 259.122C22.3045 260.158 22.4389 261.207 22.6199 262.262L23.6055 262.093C23.4292 261.065 23.2987 260.046 23.2178 259.042L22.221 259.122ZM23.2775 265.358C23.5328 266.371 23.8268 267.385 24.1561 268.397L25.107 268.087C24.7844 267.096 24.4967 266.104 24.2472 265.114L23.2775 265.358ZM25.2252 271.364C25.6101 272.339 26.0253 273.307 26.4675 274.263L27.3752 273.844C26.9408 272.904 26.5331 271.953 26.1554 270.997L25.2252 271.364ZM27.8687 277.088C28.3626 278.02 28.8805 278.936 29.4193 279.832L30.2763 279.316C29.7467 278.436 29.2376 277.535 28.7521 276.62L27.8687 277.088ZM31.1187 282.491C31.7165 283.372 32.3333 284.227 32.9655 285.051L33.759 284.442C33.1388 283.634 32.5334 282.794 31.9462 281.929L31.1187 282.491ZM34.962 287.493C35.6711 288.305 36.3943 289.076 37.1271 289.801L37.8302 289.09C37.1157 288.383 36.4093 287.63 35.7153 286.835L34.962 287.493ZM39.4755 291.932C40.3226 292.633 41.1774 293.266 42.0337 293.823L42.5787 292.984C41.7578 292.45 40.9337 291.84 40.1128 291.162L39.4755 291.932ZM44.8347 295.359C45.8722 295.819 46.9059 296.153 47.9238 296.339L48.1038 295.355C47.1752 295.185 46.2172 294.878 45.2403 294.445L44.8347 295.359ZM51.2042 296.393C51.7509 296.301 52.2865 296.156 52.8084 295.953L52.4461 295.021C51.9893 295.198 51.5198 295.326 51.039 295.407L51.2042 296.393ZM52.8084 295.953C53.2561 295.779 53.7198 295.608 54.1983 295.44L53.8681 294.496C53.3794 294.667 52.905 294.842 52.4461 295.021L52.8084 295.953ZM57.0245 294.543C57.9485 294.277 58.9092 294.025 59.8993 293.789L59.6676 292.816C58.6631 293.055 57.6873 293.312 56.7477 293.582L57.0245 294.543ZM62.8114 293.16C63.7728 292.974 64.753 292.803 65.7462 292.651L65.5946 291.662C64.5883 291.817 63.595 291.989 62.6206 292.179L62.8114 293.16ZM68.698 292.257C69.6815 292.146 70.6718 292.054 71.6634 291.982L71.5916 290.985C70.5861 291.057 69.5822 291.151 68.5855 291.264L68.698 292.257ZM74.6364 291.833C75.6334 291.805 76.626 291.8 77.6091 291.82L77.6293 290.82C76.6294 290.8 75.6205 290.805 74.6083 290.833L74.6364 291.833ZM80.5774 291.96C81.5795 292.036 82.5644 292.141 83.5261 292.277L83.6665 291.287C82.6817 291.148 81.675 291.04 80.6529 290.963L80.5774 291.96ZM86.4323 292.804C87.4184 293.025 88.3686 293.285 89.275 293.587L89.5909 292.638C88.6494 292.325 87.6666 292.056 86.651 291.828L86.4323 292.804ZM91.9929 294.685C92.8955 295.125 93.7315 295.618 94.4914 296.17L95.0786 295.36C94.2665 294.771 93.3795 294.248 92.4306 293.786L91.9929 294.685ZM96.6233 298.102C97.2522 298.823 97.784 299.614 98.2066 300.481L99.1055 300.042C98.6426 299.093 98.0611 298.229 97.3769 297.444L96.6233 298.102ZM99.1128 303.195C99.204 303.654 99.2708 304.13 99.3118 304.625L100.308 304.542C100.264 304.011 100.192 303.497 100.094 303L99.1128 303.195ZM99.3118 304.625C99.3514 305.101 99.3902 305.579 99.4289 306.058L100.426 305.977C100.387 305.498 100.348 305.02 100.308 304.542L99.3118 304.625ZM99.6614 308.928C99.7411 309.89 99.8237 310.85 99.9133 311.802L100.909 311.709C100.82 310.761 100.737 309.806 100.658 308.846L99.6614 308.928ZM100.212 314.676C100.324 315.647 100.448 316.606 100.589 317.547L101.578 317.399C101.439 316.471 101.316 315.524 101.205 314.562L100.212 314.676ZM101.083 320.406C101.278 321.38 101.498 322.328 101.748 323.243L102.713 322.979C102.469 322.09 102.255 321.165 102.064 320.21L101.083 320.406ZM102.655 326.028C103.019 326.972 103.432 327.866 103.901 328.701L104.772 328.21C104.33 327.424 103.938 326.574 103.588 325.668L102.655 326.028ZM105.597 331.139C106.255 331.9 106.992 332.574 107.819 333.148L108.389 332.327C107.635 331.804 106.96 331.187 106.354 330.485L105.597 331.139ZM110.489 334.52C111.38 334.841 112.345 335.072 113.389 335.205L113.515 334.213C112.539 334.089 111.646 333.874 110.828 333.579L110.489 334.52ZM116.346 335.324C117.265 335.289 118.236 335.192 119.26 335.03L119.104 334.042C118.115 334.199 117.184 334.291 116.308 334.324L116.346 335.324ZM122.118 334.442C122.582 334.326 123.056 334.199 123.54 334.059L123.263 333.098C122.79 333.235 122.327 333.359 121.875 333.472L122.118 334.442Z" fill="url(#paint6_linear_16147_8870)" fill-opacity="0.5"/>
<path d="M438.246 56.2963L455.593 67.5145L369.215 77.9731L438.246 56.2963Z" fill="white" fill-opacity="0.1"/>
<path d="M374.542 76.8245L454.161 67.1842L438.172 56.8437L374.542 76.8245Z" stroke="url(#paint7_linear_16147_8870)" stroke-opacity="0.1"/>
<path d="M434.476 70.0754L455.601 67.5153L433.683 87.021L434.476 70.0754Z" fill="white" fill-opacity="0.15"/>
<path d="M434.238 85.8578L454.075 68.2038L434.956 70.5209L434.238 85.8578Z" stroke="url(#paint8_linear_16147_8870)" stroke-opacity="0.1"/>
<path d="M347.2 81.3526L443.736 27.255C444.334 26.916 445.023 26.7708 445.707 26.8397C446.391 26.9085 447.037 27.1878 447.556 27.6392C448.075 28.0906 448.441 28.6918 448.604 29.3599C448.766 30.028 448.718 30.7302 448.465 31.3695L438.277 57.5454L369.208 79.0172L434.489 70.9119L432.191 117.889C432.146 119.018 431.819 120.117 431.241 121.088C430.662 122.059 429.851 122.869 428.879 123.447C427.908 124.024 426.808 124.349 425.679 124.394C424.55 124.438 423.428 124.199 422.414 123.699L347.322 87.2736C346.775 87.0033 346.311 86.5877 345.984 86.0722C345.656 85.5568 345.476 84.9612 345.463 84.3504C345.45 83.7396 345.606 83.1371 345.912 82.6085C346.218 82.0798 346.663 81.6454 347.2 81.3526Z" fill="white" fill-opacity="0.2"/>
<path d="M347.444 81.7888L347.439 81.7914C346.983 82.0404 346.605 82.4097 346.344 82.8591C346.084 83.3085 345.952 83.8208 345.963 84.34C345.974 84.8593 346.127 85.3656 346.405 85.8039C346.684 86.2415 347.077 86.5945 347.542 86.8243C347.542 86.8246 347.543 86.8249 347.544 86.8252L422.632 123.249L422.635 123.251C423.574 123.714 424.614 123.935 425.659 123.894C426.705 123.853 427.724 123.552 428.624 123.017C429.524 122.482 430.275 121.731 430.811 120.832C431.347 119.933 431.649 118.914 431.691 117.868L431.692 117.864L433.96 71.4814L369.269 79.5134L369.059 78.5397L437.898 57.1395L447.999 31.1882L448 31.1855C448.215 30.6423 448.256 30.0458 448.118 29.4782C447.98 28.9106 447.669 28.3999 447.228 28.0164C446.787 27.6329 446.238 27.3956 445.657 27.3371C445.076 27.2787 444.491 27.402 443.983 27.69L443.98 27.6912L347.444 81.7888Z" stroke="url(#paint9_linear_16147_8870)" stroke-opacity="0.3"/>
<path d="M468.375 69.9263C500.007 82.8373 518.655 84.7965 522.44 116.729C526.224 148.661 440.294 163.208 460.306 116.729C485.321 58.6292 545.034 37.6488 494.197 7.79215C443.36 -22.0645 489.355 71.5403 522.44 64.2779C548.907 58.468 570.049 42.4905 577.312 35.228" stroke="url(#paint10_linear_16147_8870)" stroke-opacity="0.5" stroke-dasharray="3 3"/>
<defs>
<linearGradient id="paint0_linear_16147_8870" x1="267.199" y1="232.715" x2="358.649" y2="328.35" gradientUnits="userSpaceOnUse">
<stop stop-color="white" stop-opacity="0"/>
<stop offset="1" stop-color="white"/>
</linearGradient>
<linearGradient id="paint1_linear_16147_8870" x1="365.786" y1="319.066" x2="384.723" y2="356.691" gradientUnits="userSpaceOnUse">
<stop stop-color="white" stop-opacity="0"/>
<stop offset="1" stop-color="white"/>
</linearGradient>
<linearGradient id="paint2_linear_16147_8870" x1="224.286" y1="230.215" x2="361.394" y2="394.534" gradientUnits="userSpaceOnUse">
<stop stop-color="white"/>
<stop offset="1" stop-color="white" stop-opacity="0"/>
</linearGradient>
<linearGradient id="paint3_linear_16147_8870" x1="45.5246" y1="165.116" x2="38.384" y2="194.808" gradientUnits="userSpaceOnUse">
<stop stop-color="white" stop-opacity="0"/>
<stop offset="1" stop-color="white"/>
</linearGradient>
<linearGradient id="paint4_linear_16147_8870" x1="41.0774" y1="195.034" x2="36.1398" y2="203.408" gradientUnits="userSpaceOnUse">
<stop stop-color="white" stop-opacity="0"/>
<stop offset="1" stop-color="white"/>
</linearGradient>
<linearGradient id="paint5_linear_16147_8870" x1="40.8326" y1="157.046" x2="26.0635" y2="204.178" gradientUnits="userSpaceOnUse">
<stop stop-color="white"/>
<stop offset="1" stop-color="white" stop-opacity="0"/>
</linearGradient>
<linearGradient id="paint6_linear_16147_8870" x1="105.44" y1="279.818" x2="57.9664" y2="320.669" gradientUnits="userSpaceOnUse">
<stop stop-color="white" stop-opacity="0"/>
<stop offset="1" stop-color="white"/>
</linearGradient>
<linearGradient id="paint7_linear_16147_8870" x1="398.783" y1="87.9646" x2="435.773" y2="84.2679" gradientUnits="userSpaceOnUse">
<stop stop-color="white" stop-opacity="0"/>
<stop offset="1" stop-color="white"/>
</linearGradient>
<linearGradient id="paint8_linear_16147_8870" x1="434.953" y1="81.0812" x2="446.557" y2="83.399" gradientUnits="userSpaceOnUse">
<stop stop-color="white" stop-opacity="0"/>
<stop offset="1" stop-color="white"/>
</linearGradient>
<linearGradient id="paint9_linear_16147_8870" x1="390.522" y1="97.9385" x2="450.614" y2="96.018" gradientUnits="userSpaceOnUse">
<stop stop-color="white"/>
<stop offset="1" stop-color="white" stop-opacity="0"/>
</linearGradient>
<linearGradient id="paint10_linear_16147_8870" x1="555.919" y1="72.4832" x2="493.724" y2="119.943" gradientUnits="userSpaceOnUse">
<stop stop-color="white" stop-opacity="0"/>
<stop offset="1" stop-color="white"/>
</linearGradient>
</defs>
</svg>
