<svg width="320" height="264" viewBox="0 0 320 264" fill="none" xmlns="http://www.w3.org/2000/svg">
<mask id="mask0_16147_10250" style="mask-type:luminance" maskUnits="userSpaceOnUse" x="0" y="0" width="385" height="388">
<path d="M384.806 0H0V387.187H384.806V0Z" fill="white"/>
</mask>
<g mask="url(#mask0_16147_10250)">
<path d="M256.416 232.536L260.145 274.147L135.906 149.539L256.416 232.536Z" fill="white" fill-opacity="0.1"/>
<path d="M140.091 153.029L259.524 272.816L255.939 232.814L140.091 153.029Z" stroke="url(#paint0_linear_16147_10250)" stroke-opacity="0.1"/>
<path d="M229.765 243.689L260.153 274.161L201.775 263.529L229.765 243.689Z" fill="white" fill-opacity="0.15"/>
<path d="M203.034 263.25L258.67 273.383L229.709 244.341L203.034 263.25Z" stroke="url(#paint1_linear_16147_10250)" stroke-opacity="0.1"/>
<path d="M104.902 117.99L311.326 204.437C312.611 204.968 313.7 205.884 314.442 207.06C315.185 208.236 315.544 209.613 315.471 211.002C315.398 212.391 314.896 213.723 314.034 214.814C313.172 215.906 311.993 216.703 310.659 217.096L256.263 233.462L136.032 150.149L230.247 244.072L152.534 298.916C150.678 300.25 148.519 301.099 146.252 301.386C143.985 301.673 141.683 301.39 139.553 300.561C137.424 299.732 135.535 298.385 134.059 296.641C132.582 294.897 131.565 292.811 131.099 290.574L95.6203 125.56C95.3688 124.35 95.4542 123.095 95.8672 121.93C96.2802 120.766 97.0049 119.737 97.9623 118.956C98.9198 118.176 100.073 117.673 101.297 117.502C102.521 117.332 103.767 117.501 104.902 117.99Z" fill="white" fill-opacity="0.2"/>
<path d="M104.709 118.451L104.704 118.449C103.653 117.996 102.499 117.84 101.366 117.997C100.233 118.155 99.1648 118.621 98.2783 119.344C97.3918 120.067 96.7208 121.019 96.3384 122.098C95.9563 123.175 95.8771 124.337 96.1094 125.456C96.1096 125.457 96.1097 125.457 96.1098 125.458L131.588 290.469L131.589 290.472C132.037 292.628 133.018 294.637 134.44 296.318C135.863 297.998 137.683 299.297 139.734 300.095C141.786 300.894 144.005 301.167 146.189 300.89C148.374 300.613 150.454 299.795 152.242 298.51L152.246 298.507L229.473 244.007L135.679 150.503L136.316 149.738L256.35 232.914L310.515 216.617L310.518 216.616C311.752 216.252 312.844 215.514 313.642 214.504C314.439 213.494 314.904 212.261 314.972 210.976C315.04 209.691 314.707 208.416 314.02 207.327C313.332 206.239 312.325 205.39 311.135 204.899L311.133 204.898L104.709 118.451Z" stroke="url(#paint2_linear_16147_10250)" stroke-opacity="0.3"/>
<path d="M38.7554 192.949L31.1449 198.869L39.8138 159.194L38.7554 192.949Z" fill="white" fill-opacity="0.1"/>
<path d="M39.144 164.602L31.9282 197.626L38.263 192.698L39.144 164.602Z" stroke="url(#paint3_linear_16147_10250)" stroke-opacity="0.1"/>
<path d="M33.262 189.169L31.1429 198.873L25.916 186.215L33.262 189.169Z" fill="white" fill-opacity="0.15"/>
<path d="M26.8315 187.122L30.9953 197.205L32.6834 189.476L26.8315 187.122Z" stroke="url(#paint4_linear_16147_10250)" stroke-opacity="0.1"/>
<path d="M42.1683 149.562L51.1696 200.422C51.227 200.737 51.1851 201.063 51.0496 201.354C50.9141 201.645 50.6917 201.887 50.413 202.046C50.1344 202.205 49.8132 202.274 49.4937 202.243C49.1742 202.212 48.8723 202.083 48.6294 201.873L38.6597 193.36L39.8144 159.62L33.3513 189.635L13.0018 181.401C12.5112 181.208 12.0767 180.895 11.7379 180.491C11.399 180.087 11.1665 179.604 11.0614 179.088C10.9563 178.571 10.9819 178.036 11.136 177.532C11.2902 177.027 11.5678 176.569 11.9439 176.2L39.54 148.706C39.7433 148.506 39.9976 148.366 40.2752 148.3C40.5528 148.235 40.843 148.247 41.1141 148.336C41.3852 148.424 41.6269 148.585 41.8128 148.801C41.9987 149.017 42.1216 149.28 42.1683 149.562Z" fill="white" fill-opacity="0.2"/>
<path d="M41.6759 149.649L41.6759 149.649L41.675 149.644C41.6433 149.453 41.5598 149.274 41.4336 149.127C41.3074 148.98 41.1433 148.871 40.9592 148.811C40.7751 148.751 40.5781 148.743 40.3897 148.787C40.2018 148.831 40.0296 148.926 39.8917 149.061C39.8913 149.061 39.8909 149.062 39.8904 149.062L12.2968 176.554L12.2944 176.556C11.9778 176.867 11.744 177.253 11.6142 177.678C11.4844 178.102 11.4628 178.553 11.5513 178.988C11.6398 179.423 11.8356 179.829 12.121 180.17C12.4063 180.51 12.7722 180.773 13.1853 180.936L13.1893 180.938L32.9877 188.949L39.3256 159.515L40.3141 159.637L39.1676 193.136L48.9541 201.493L48.9563 201.495C49.1209 201.637 49.3255 201.725 49.542 201.746C49.7585 201.767 49.9761 201.72 50.165 201.612C50.3538 201.504 50.5045 201.34 50.5964 201.143L51.0496 201.354L50.5964 201.143C50.6882 200.946 50.7166 200.725 50.6777 200.511L50.6772 200.509L41.6759 149.649Z" stroke="url(#paint5_linear_16147_10250)" stroke-opacity="0.3"/>
<path d="M30.2801 206.159C30.3687 205.897 30.2286 205.613 29.967 205.525C29.7055 205.436 29.4216 205.576 29.333 205.838L30.2801 206.159ZM38.9209 229.255L38.9114 229.755L38.9209 229.255ZM20.6922 215.043L20.34 214.688L20.6922 215.043ZM34.8999 244.76L35.081 245.226L34.8999 244.76ZM61.7068 249.928L62.2051 249.887L61.7068 249.928ZM29.333 205.838C29.1786 206.293 29.0271 206.775 28.8814 207.279L29.842 207.557C29.9836 207.067 30.1306 206.599 30.2801 206.159L29.333 205.838ZM28.1629 210.212C27.9682 211.174 27.8052 212.177 27.6882 213.197L28.6817 213.311C28.7951 212.321 28.9536 211.347 29.1431 210.41L28.1629 210.212ZM27.4911 216.221C27.4784 217.243 27.5248 218.264 27.6451 219.261L28.6379 219.142C28.5236 218.194 28.4788 217.218 28.491 216.233L27.4911 216.221ZM28.2749 222.263C28.5897 223.266 29.0112 224.217 29.5602 225.085L30.4054 224.551C29.9092 223.766 29.5218 222.896 29.229 221.963L28.2749 222.263ZM31.6355 227.427C32.4152 228.055 33.3203 228.574 34.3629 228.961L34.7114 228.024C33.7665 227.673 32.956 227.206 32.2626 226.648L31.6355 227.427ZM37.372 229.656C37.8637 229.712 38.3766 229.745 38.9114 229.755L38.9305 228.755C38.4249 228.746 37.9429 228.714 37.4835 228.663L37.372 229.656ZM38.9114 229.755C39.4908 229.766 40.025 229.75 40.5156 229.708L40.4299 228.711C39.9788 228.75 39.48 228.766 38.9305 228.755L38.9114 229.755ZM43.6884 228.748C44.2326 228.369 44.609 227.889 44.8141 227.326C45.0176 226.769 45.0417 226.161 44.9339 225.539L43.9486 225.709C44.0337 226.201 44.0053 226.626 43.8747 226.984C43.7458 227.337 43.5065 227.656 43.1175 227.927L43.6884 228.748ZM43.6038 222.541C43.0584 221.728 42.3719 220.9 41.5808 220.086L40.8638 220.783C41.6215 221.563 42.2677 222.345 42.7733 223.098L43.6038 222.541ZM39.2449 217.97C38.4435 217.325 37.5859 216.706 36.6914 216.132L36.1509 216.973C37.0156 217.528 37.8443 218.126 38.618 218.749L39.2449 217.97ZM33.9552 214.578C32.9981 214.104 32.0203 213.691 31.0413 213.361L30.7212 214.308C31.6534 214.623 32.5899 215.017 33.5114 215.474L33.9552 214.578ZM27.9488 212.607C26.8468 212.45 25.7634 212.427 24.7317 212.572L24.8712 213.563C25.7938 213.433 26.7813 213.451 27.8081 213.597L27.9488 212.607ZM21.642 213.659C21.1794 213.945 20.7438 214.287 20.34 214.688L21.0444 215.398C21.3943 215.05 21.7701 214.756 22.1683 214.509L21.642 213.659ZM20.34 214.688C19.9855 215.039 19.6654 215.413 19.3783 215.805L20.1852 216.396C20.4416 216.045 20.7274 215.712 21.0444 215.398L20.34 214.688ZM18.0277 218.401C17.7143 219.303 17.517 220.255 17.4211 221.241L18.4164 221.338C18.5055 220.422 18.6878 219.548 18.9722 218.73L18.0277 218.401ZM17.4093 224.117C17.4841 225.046 17.63 225.991 17.8375 226.94L18.8144 226.726C18.6156 225.817 18.477 224.917 18.4061 224.037L17.4093 224.117ZM18.5993 229.68C18.8979 230.569 19.2435 231.454 19.6287 232.323L20.543 231.918C20.1697 231.076 19.8356 230.22 19.5474 229.362L18.5993 229.68ZM20.8872 234.861C21.3462 235.696 21.8383 236.506 22.3564 237.283L23.1883 236.728C22.6861 235.975 22.2088 235.189 21.7634 234.379L20.8872 234.861ZM24.0353 239.569C24.6506 240.329 25.2891 241.038 25.9416 241.683L26.6447 240.972C26.0206 240.355 25.4067 239.673 24.8125 238.939L24.0353 239.569ZM28.1162 243.55C28.9489 244.156 29.7942 244.647 30.6345 244.992L31.014 244.066C30.2622 243.758 29.4868 243.311 28.705 242.741L28.1162 243.55ZM33.5693 245.55C34.0874 245.521 34.5937 245.416 35.081 245.226L34.7187 244.294C34.3343 244.443 33.932 244.528 33.5135 244.551L33.5693 245.55ZM35.081 245.226C35.525 245.054 35.9976 244.886 36.4946 244.726L36.1871 243.774C35.6733 243.94 35.1823 244.114 34.7187 244.294L35.081 245.226ZM39.4112 243.929C40.3649 243.71 41.3632 243.519 42.3862 243.362L42.2346 242.374C41.1879 242.534 40.1657 242.73 39.188 242.954L39.4112 243.929ZM45.3951 243.01C46.405 242.929 47.4187 242.886 48.4184 242.886L48.4187 241.886C47.3901 241.886 46.3496 241.93 45.315 242.013L45.3951 243.01ZM51.4302 243.03C52.4626 243.134 53.4545 243.296 54.3844 243.523L54.621 242.551C53.6395 242.312 52.6013 242.143 51.5303 242.035L51.4302 243.03ZM57.171 244.499C58.0956 244.949 58.8882 245.498 59.5202 246.155L60.2407 245.462C59.5123 244.705 58.6177 244.091 57.6087 243.6L57.171 244.499ZM60.945 248.567C61.0773 249.001 61.1669 249.468 61.2086 249.97L62.2051 249.887C62.1579 249.318 62.0555 248.781 61.9016 248.275L60.945 248.567ZM61.2086 249.97C61.2535 250.511 61.2967 251.054 61.3406 251.599L62.3374 251.518C62.2936 250.975 62.2502 250.43 62.2051 249.887L61.2086 249.97ZM61.6311 254.869C61.7469 255.988 61.8852 257.089 62.0668 258.144L63.0523 257.974C62.8758 256.949 62.7402 255.872 62.6258 254.766L61.6311 254.869ZM62.84 261.393C63.2083 262.53 63.6801 263.573 64.2995 264.469L65.1219 263.9C64.5727 263.106 64.1388 262.158 63.7913 261.085L62.84 261.393ZM66.8915 266.789C67.845 267.278 68.9579 267.561 70.2531 267.61L70.291 266.611C69.1219 266.566 68.1551 266.313 67.3477 265.899L66.8915 266.789ZM73.6151 267.289C74.137 267.181 74.6812 267.046 75.2488 266.883L74.9719 265.922C74.4268 266.079 73.9075 266.208 73.4126 266.31L73.6151 267.289Z" fill="url(#paint6_linear_16147_10250)" fill-opacity="0.5"/>
<path d="M253.99 108.864L263.845 115.238L214.77 121.18L253.99 108.864Z" fill="white" fill-opacity="0.1"/>
<path d="M220.097 120.031L262.414 114.908L253.915 109.412L220.097 120.031Z" stroke="url(#paint7_linear_16147_10250)" stroke-opacity="0.1"/>
<path d="M251.848 116.692L263.85 115.238L251.397 126.32L251.848 116.692Z" fill="white" fill-opacity="0.15"/>
<path d="M251.952 125.157L262.324 115.926L252.328 117.138L251.952 125.157Z" stroke="url(#paint8_linear_16147_10250)" stroke-opacity="0.1"/>
<path d="M202.262 123.1L257.109 92.364C257.449 92.1714 257.84 92.0889 258.229 92.128C258.618 92.1671 258.985 92.3258 259.28 92.5823C259.574 92.8387 259.782 93.1803 259.875 93.5599C259.967 93.9395 259.94 94.3384 259.796 94.7017L254.008 109.574L214.766 121.773L251.855 117.168L250.55 143.858C250.524 144.499 250.339 145.124 250.01 145.675C249.681 146.227 249.22 146.687 248.668 147.015C248.117 147.343 247.492 147.528 246.85 147.553C246.209 147.578 245.571 147.443 244.995 147.159L202.332 126.464C202.021 126.31 201.757 126.074 201.571 125.781C201.385 125.488 201.283 125.15 201.275 124.803C201.268 124.456 201.356 124.113 201.53 123.813C201.704 123.513 201.957 123.266 202.262 123.1Z" fill="white" fill-opacity="0.2"/>
<path d="M202.506 123.536L202.506 123.536L202.502 123.538C202.277 123.661 202.091 123.843 201.963 124.064C201.835 124.285 201.77 124.537 201.775 124.792C201.781 125.048 201.856 125.297 201.993 125.513C202.13 125.728 202.323 125.901 202.552 126.015C202.552 126.015 202.553 126.015 202.553 126.015L245.214 146.709L245.216 146.71C245.717 146.958 246.272 147.076 246.831 147.054C247.389 147.032 247.933 146.871 248.413 146.586C248.893 146.3 249.295 145.899 249.58 145.419C249.866 144.939 250.028 144.396 250.05 143.837L250.051 143.833L251.327 117.737L214.827 122.269L214.617 121.295L253.629 109.168L259.33 94.5203L259.331 94.5177C259.437 94.2506 259.457 93.9573 259.389 93.6782C259.321 93.3991 259.168 93.148 258.951 92.9595C258.735 92.7709 258.465 92.6543 258.179 92.6255C257.893 92.5968 257.606 92.6574 257.356 92.799L257.354 92.8002L202.506 123.536Z" stroke="url(#paint9_linear_16147_10250)" stroke-opacity="0.3"/>
<path d="M271.108 116.608C289.079 123.943 299.674 125.056 301.825 143.199C303.975 161.341 255.153 169.606 266.523 143.199C280.735 110.189 314.662 98.2693 285.779 81.3062C256.895 64.3431 283.028 117.525 301.825 113.399C316.862 110.098 328.874 101.02 333 96.8939" stroke="url(#paint10_linear_16147_10250)" stroke-opacity="0.5" stroke-dasharray="3 3"/>
</g>
<defs>
<linearGradient id="paint0_linear_16147_10250" x1="156.81" y1="209.096" x2="208.767" y2="263.431" gradientUnits="userSpaceOnUse">
<stop stop-color="white" stop-opacity="0"/>
<stop offset="1" stop-color="white"/>
</linearGradient>
<linearGradient id="paint1_linear_16147_10250" x1="212.822" y1="258.155" x2="223.58" y2="279.532" gradientUnits="userSpaceOnUse">
<stop stop-color="white" stop-opacity="0"/>
<stop offset="1" stop-color="white"/>
</linearGradient>
<linearGradient id="paint2_linear_16147_10250" x1="132.428" y1="207.676" x2="210.326" y2="301.033" gradientUnits="userSpaceOnUse">
<stop stop-color="white"/>
<stop offset="1" stop-color="white" stop-opacity="0"/>
</linearGradient>
<linearGradient id="paint3_linear_16147_10250" x1="30.8653" y1="170.689" x2="26.8084" y2="187.559" gradientUnits="userSpaceOnUse">
<stop stop-color="white" stop-opacity="0"/>
<stop offset="1" stop-color="white"/>
</linearGradient>
<linearGradient id="paint4_linear_16147_10250" x1="28.3384" y1="187.688" x2="25.5331" y2="192.445" gradientUnits="userSpaceOnUse">
<stop stop-color="white" stop-opacity="0"/>
<stop offset="1" stop-color="white"/>
</linearGradient>
<linearGradient id="paint5_linear_16147_10250" x1="28.1992" y1="166.105" x2="19.8082" y2="192.883" gradientUnits="userSpaceOnUse">
<stop stop-color="white"/>
<stop offset="1" stop-color="white" stop-opacity="0"/>
</linearGradient>
<linearGradient id="paint6_linear_16147_10250" x1="64.9055" y1="235.858" x2="37.9333" y2="259.067" gradientUnits="userSpaceOnUse">
<stop stop-color="white" stop-opacity="0"/>
<stop offset="1" stop-color="white"/>
</linearGradient>
<linearGradient id="paint7_linear_16147_10250" x1="231.569" y1="126.857" x2="252.585" y2="124.756" gradientUnits="userSpaceOnUse">
<stop stop-color="white" stop-opacity="0"/>
<stop offset="1" stop-color="white"/>
</linearGradient>
<linearGradient id="paint8_linear_16147_10250" x1="252.119" y1="122.945" x2="258.712" y2="124.262" gradientUnits="userSpaceOnUse">
<stop stop-color="white" stop-opacity="0"/>
<stop offset="1" stop-color="white"/>
</linearGradient>
<linearGradient id="paint9_linear_16147_10250" x1="226.876" y1="132.523" x2="261.017" y2="131.432" gradientUnits="userSpaceOnUse">
<stop stop-color="white"/>
<stop offset="1" stop-color="white" stop-opacity="0"/>
</linearGradient>
<linearGradient id="paint10_linear_16147_10250" x1="320.846" y1="118.06" x2="285.51" y2="145.025" gradientUnits="userSpaceOnUse">
<stop stop-color="white" stop-opacity="0"/>
<stop offset="1" stop-color="white"/>
</linearGradient>
</defs>
</svg>
